<svg width="35" height="47" viewBox="0 0 35 47" fill="none" xmlns="http://www.w3.org/2000/svg">
<g clip-path="url(#clip0)">
<path d="M34.3253 42.6263H5.06665C4.88785 42.6263 4.71638 42.5555 4.58995 42.4296C4.46352 42.3037 4.39249 42.1329 4.39249 41.9548V0.671428C4.39249 0.493354 4.46352 0.322574 4.58995 0.196657C4.71638 0.0707395 4.88785 0 5.06665 0H25.1817C25.3604 3.80279e-05 25.5319 0.0708025 25.6583 0.196728L34.802 9.30331C34.9284 9.42919 34.9995 9.59995 34.9995 9.77801V41.9548C34.9995 42.1329 34.9285 42.3037 34.802 42.4296C34.6756 42.5555 34.5041 42.6263 34.3253 42.6263ZM5.74081 41.2834H33.6512V10.056L24.9026 1.34286H5.73947L5.74081 41.2834Z" fill="white" stroke="white" stroke-width="0.3"/>
<path d="M0.674162 21.855C0.495363 21.855 0.323888 21.7843 0.197458 21.6583C0.0710277 21.5324 0 21.3616 0 21.1836V4.3173C0 4.13923 0.0710277 3.96845 0.197458 3.84253C0.323888 3.71661 0.495363 3.64587 0.674162 3.64587H5.06296C5.24176 3.64587 5.41323 3.71661 5.53966 3.84253C5.66609 3.96845 5.73712 4.13923 5.73712 4.3173C5.73712 4.49538 5.66609 4.66616 5.53966 4.79207C5.41323 4.91799 5.24176 4.98873 5.06296 4.98873H1.34832V21.1836C1.34832 21.3616 1.2773 21.5324 1.15087 21.6583C1.02444 21.7843 0.852961 21.855 0.674162 21.855Z" fill="white" stroke="white" stroke-width="0.3"/>
<path d="M30.6677 47H0.674163C0.495364 47 0.323888 46.9292 0.197458 46.8033C0.0710278 46.6774 0 46.5066 0 46.3286V17.8712C0 17.6931 0.0710278 17.5223 0.197458 17.3964C0.323888 17.2705 0.495364 17.1998 0.674163 17.1998C0.852962 17.1998 1.02444 17.2705 1.15087 17.3964C1.2773 17.5223 1.34833 17.6931 1.34833 17.8712V45.6571H29.9935V41.9576C29.9935 41.7795 30.0645 41.6087 30.191 41.4828C30.3174 41.3569 30.4889 41.2861 30.6677 41.2861C30.8465 41.2861 31.018 41.3569 31.1444 41.4828C31.2708 41.6087 31.3418 41.7795 31.3418 41.9576V46.3286C31.3418 46.5066 31.2708 46.6774 31.1444 46.8033C31.018 46.9292 30.8465 47 30.6677 47Z" fill="white" stroke="white" stroke-width="0.3"/>
<path d="M34.3258 10.4494H25.1822C25.0034 10.4494 24.8319 10.3787 24.7055 10.2528C24.579 10.1269 24.508 9.95608 24.508 9.77801V0.671428C24.508 0.493354 24.579 0.322574 24.7055 0.196657C24.8319 0.0707395 25.0034 0 25.1822 0C25.361 0 25.5324 0.0707395 25.6589 0.196657C25.7853 0.322574 25.8563 0.493354 25.8563 0.671428V9.10658H34.3258C34.5046 9.10658 34.6761 9.17732 34.8025 9.30324C34.929 9.42915 35 9.59993 35 9.77801C35 9.95608 34.929 10.1269 34.8025 10.2528C34.6761 10.3787 34.5046 10.4494 34.3258 10.4494Z" fill="white" stroke="white" stroke-width="0.3"/>
<path d="M28.7753 16.1142H10.6167C10.4379 16.1142 10.2664 16.0435 10.14 15.9176C10.0136 15.7916 9.94254 15.6209 9.94254 15.4428C9.94254 15.2647 10.0136 15.0939 10.14 14.968C10.2664 14.8421 10.4379 14.7714 10.6167 14.7714H28.7753C28.9541 14.7714 29.1256 14.8421 29.252 14.968C29.3784 15.0939 29.4494 15.2647 29.4494 15.4428C29.4494 15.6209 29.3784 15.7916 29.252 15.9176C29.1256 16.0435 28.9541 16.1142 28.7753 16.1142Z" fill="white" stroke="white" stroke-width="0.3"/>
<path d="M28.7753 22.2913H10.6167C10.4379 22.2913 10.2664 22.2206 10.14 22.0947C10.0136 21.9688 9.94254 21.798 9.94254 21.6199C9.94254 21.4418 10.0136 21.2711 10.14 21.1451C10.2664 21.0192 10.4379 20.9485 10.6167 20.9485H28.7753C28.9541 20.9485 29.1256 21.0192 29.252 21.1451C29.3784 21.2711 29.4494 21.4418 29.4494 21.6199C29.4494 21.798 29.3784 21.9688 29.252 22.0947C29.1256 22.2206 28.9541 22.2913 28.7753 22.2913Z" fill="white" stroke="white" stroke-width="0.3"/>
<path d="M28.7753 28.4686H10.6167C10.4379 28.4686 10.2664 28.3979 10.14 28.2719C10.0136 28.146 9.94254 27.9752 9.94254 27.7972C9.94254 27.6191 10.0136 27.4483 10.14 27.3224C10.2664 27.1965 10.4379 27.1257 10.6167 27.1257H28.7753C28.9541 27.1257 29.1256 27.1965 29.252 27.3224C29.3784 27.4483 29.4494 27.6191 29.4494 27.7972C29.4494 27.9752 29.3784 28.146 29.252 28.2719C29.1256 28.3979 28.9541 28.4686 28.7753 28.4686Z" fill="white" stroke="white" stroke-width="0.3"/>
<path d="M28.7753 34.6457H10.6167C10.4379 34.6457 10.2664 34.575 10.14 34.4491C10.0136 34.3231 9.94254 34.1524 9.94254 33.9743C9.94254 33.7962 10.0136 33.6254 10.14 33.4995C10.2664 33.3736 10.4379 33.3029 10.6167 33.3029H28.7753C28.9541 33.3029 29.1256 33.3736 29.252 33.4995C29.3784 33.6254 29.4494 33.7962 29.4494 33.9743C29.4494 34.1524 29.3784 34.3231 29.252 34.4491C29.1256 34.575 28.9541 34.6457 28.7753 34.6457Z" fill="white" stroke="white" stroke-width="0.3"/>
</g>
<defs>
<clipPath id="clip0">
<rect width="35" height="47" fill="white"/>
</clipPath>
</defs>
</svg>
