<svg width="63" height="56" viewBox="0 0 63 56" fill="none" xmlns="http://www.w3.org/2000/svg">
<g clip-path="url(#clip0)">
<path d="M14.8909 22.7351H13.5069V26.5163H14.8909V22.7351Z" fill="black"/>
<path d="M17.2773 22.7351H15.8932V26.5163H17.2773V22.7351Z" fill="black"/>
<path d="M19.6637 22.7351H18.2796V26.5163H19.6637V22.7351Z" fill="black"/>
<path d="M22.0978 22.7351H20.7138V26.5163H22.0978V22.7351Z" fill="black"/>
<path d="M24.4842 22.7351H23.0046V26.5163H24.4842V22.7351Z" fill="black"/>
<path d="M26.8705 22.7351H25.391V26.5163H26.8705V22.7351Z" fill="black"/>
<path d="M29.2091 22.7351H27.825V26.5163H29.2091V22.7351Z" fill="black"/>
<path d="M31.5955 22.7351H30.2114V26.5163H31.5955V22.7351Z" fill="black"/>
<path d="M33.9819 22.7351H32.5978V26.5163H33.9819V22.7351Z" fill="black"/>
<path d="M36.416 22.7351H35.0319V26.5163H36.416V22.7351Z" fill="black"/>
<path d="M38.8024 22.7351H37.3228V26.5163H38.8024V22.7351Z" fill="black"/>
<path d="M41.1887 22.7351H39.7092V26.5163H41.1887V22.7351Z" fill="black"/>
<path d="M43.5273 22.7351H42.1432V26.5163H43.5273V22.7351Z" fill="black"/>
<path d="M45.9137 22.7351H44.5296V26.5163H45.9137V22.7351Z" fill="black"/>
<path d="M48.3 22.7351H46.9159V26.5163H48.3V22.7351Z" fill="black"/>
<path d="M50.7342 22.7351H49.3501V26.5163H50.7342V22.7351Z" fill="black"/>
<path d="M14.8909 26.947H13.5069V28.4308H14.8909V26.947Z" fill="black"/>
<path d="M17.2773 26.947H15.8932V28.4308H17.2773V26.947Z" fill="black"/>
<path d="M19.6637 26.947H18.2796V28.4308H19.6637V26.947Z" fill="black"/>
<path d="M22.0978 26.947H20.7138V28.4308H22.0978V26.947Z" fill="black"/>
<path d="M23.0046 26.947H24.4842V28.4786H23.0046V26.947Z" fill="black"/>
<path d="M25.391 26.9949L26.8705 26.947V28.4786H25.391V26.9949Z" fill="black"/>
<path d="M29.2091 26.947H27.825V28.4308H29.2091V26.947Z" fill="black"/>
<path d="M31.5955 26.947H30.2114V28.4308H31.5955V26.947Z" fill="black"/>
<path d="M33.9819 26.947H32.5978V28.4308H33.9819V26.947Z" fill="black"/>
<path d="M36.416 26.947H35.0319V28.4308H36.416V26.947Z" fill="black"/>
<path d="M37.3228 26.947L38.8024 26.9949V28.4786H37.3228V26.947Z" fill="black"/>
<path d="M39.7092 26.9949L41.1887 26.947V28.4786H39.7092V26.9949Z" fill="black"/>
<path d="M43.5273 26.947H42.1432V28.4308H43.5273V26.947Z" fill="black"/>
<path d="M45.9137 26.947H44.5296V28.4308H45.9137V26.947Z" fill="black"/>
<path d="M48.3 26.947H46.9159V28.4308H48.3V26.947Z" fill="black"/>
<path d="M50.7342 26.947H49.3501V28.4308H50.7342V26.947Z" fill="black"/>
<path d="M18.1365 19.7675H16.8956V20.294H18.1365V19.7675Z" fill="black"/>
<path d="M20.0933 19.7675H18.7092V20.294H20.0933V19.7675Z" fill="black"/>
<path d="M22.05 19.7675H20.6659V20.294H22.05V19.7675Z" fill="black"/>
<path d="M23.8638 19.7675H22.6228V20.294H23.8638V19.7675Z" fill="black"/>
<path d="M33.5046 19.7675H32.1205V20.294H33.5046V19.7675Z" fill="black"/>
<path d="M31.5478 19.7675H30.1637V20.294H31.5478V19.7675Z" fill="black"/>
<path d="M29.591 19.7675H28.3501V20.294H29.591V19.7675Z" fill="black"/>
<path d="M25.8205 19.7675H24.4364V20.294H25.8205V19.7675Z" fill="black"/>
<path d="M27.7773 19.7675H26.3932V20.294H27.7773V19.7675Z" fill="black"/>
<path d="M44.9591 19.7675H43.575V20.294H44.9591V19.7675Z" fill="black"/>
<path d="M43.0024 19.7675H41.6183V20.294H43.0024V19.7675Z" fill="black"/>
<path d="M41.0456 19.7675H39.8047V20.294H41.0456V19.7675Z" fill="black"/>
<path d="M39.2319 19.7675H37.8478V20.294H39.2319V19.7675Z" fill="black"/>
<path d="M37.2751 19.7675H35.891V20.294H37.2751V19.7675Z" fill="black"/>
<path d="M35.366 19.7675H34.0774V20.294H35.366V19.7675Z" fill="black"/>
<path d="M18.1365 17.9487H16.8956V19.0017H18.1365V17.9487Z" fill="black"/>
<path d="M46.7729 19.7675H45.5319V20.294H46.7729V19.7675Z" fill="black"/>
<path d="M20.0933 17.9487H18.7092V19.0017H20.0933V17.9487Z" fill="black"/>
<path d="M22.05 17.9487H20.6659V19.0017H22.05V17.9487Z" fill="black"/>
<path d="M23.9115 17.9487H22.6228V19.0017H23.9115V17.9487Z" fill="black"/>
<path d="M25.8205 17.9487H24.4364V19.0017H25.8205V17.9487Z" fill="black"/>
<path d="M27.7773 17.9487H26.3932V19.0017H27.7773V17.9487Z" fill="black"/>
<path d="M29.591 17.9487H28.3501V19.0017H29.591V17.9487Z" fill="black"/>
<path d="M31.5478 17.9487H30.1637V19.0017H31.5478V17.9487Z" fill="black"/>
<path d="M41.0456 17.9487H39.8047V19.0017H41.0456V17.9487Z" fill="black"/>
<path d="M39.2319 17.9487H37.8478V19.0017H39.2319V17.9487Z" fill="black"/>
<path d="M37.2751 17.9487H35.891V19.0017H37.2751V17.9487Z" fill="black"/>
<path d="M35.366 17.9487H34.0774V19.0017H35.366V17.9487Z" fill="black"/>
<path d="M33.5046 17.9487H32.1205V19.0017H33.5046V17.9487Z" fill="black"/>
<path d="M46.7729 17.9487H45.5319V19.0017H46.7729V17.9487Z" fill="black"/>
<path d="M44.9591 17.9487H43.575V19.0017H44.9591V17.9487Z" fill="black"/>
<path d="M43.0024 17.9487H41.6183V19.0017H43.0024V17.9487Z" fill="black"/>
<path d="M18.1365 15.9863H16.8956V17.0393H18.1365V15.9863Z" fill="black"/>
<path d="M20.0933 15.9863H18.7092V17.0393H20.0933V15.9863Z" fill="black"/>
<path d="M22.05 15.9863H20.6659V17.0393H22.05V15.9863Z" fill="black"/>
<path d="M23.9115 15.9863H22.6228V17.0393H23.9115V15.9863Z" fill="black"/>
<path d="M25.8205 15.9863H24.4364V17.0393H25.8205V15.9863Z" fill="black"/>
<path d="M27.7773 15.9863H26.3932V17.0393H27.7773V15.9863Z" fill="black"/>
<path d="M29.591 15.9863H28.3501V17.0393H29.591V15.9863Z" fill="black"/>
<path d="M31.5478 15.9863H30.1637V17.0393H31.5478V15.9863Z" fill="black"/>
<path d="M41.0456 15.9863H39.8047V17.0393H41.0456V15.9863Z" fill="black"/>
<path d="M39.2319 15.9863H37.8478V17.0393H39.2319V15.9863Z" fill="black"/>
<path d="M37.2751 15.9863H35.891V17.0393H37.2751V15.9863Z" fill="black"/>
<path d="M35.366 15.9863H34.0774V17.0393H35.366V15.9863Z" fill="black"/>
<path d="M33.5046 15.9863H32.1205V17.0393H33.5046V15.9863Z" fill="black"/>
<path d="M46.7729 15.9863H45.5319V17.0393H46.7729V15.9863Z" fill="black"/>
<path d="M44.9591 15.9863H43.575V17.0393H44.9591V15.9863Z" fill="black"/>
<path d="M43.0024 15.9863H41.6183V17.0393H43.0024V15.9863Z" fill="black"/>
<path d="M18.1365 14.1196H16.8956V15.1726H18.1365V14.1196Z" fill="black"/>
<path d="M20.0933 14.1196H18.7092V15.1726H20.0933V14.1196Z" fill="black"/>
<path d="M22.05 14.1196H20.6659V15.1726H22.05V14.1196Z" fill="black"/>
<path d="M23.9115 14.1196H22.6228V15.1726H23.9115V14.1196Z" fill="black"/>
<path d="M25.8205 14.1196H24.4364V15.1726H25.8205V14.1196Z" fill="black"/>
<path d="M27.7773 14.1196H26.3932V15.1726H27.7773V14.1196Z" fill="black"/>
<path d="M29.591 14.1196H28.3501V15.1726H29.591V14.1196Z" fill="black"/>
<path d="M31.5478 14.1196H30.1637V15.1726H31.5478V14.1196Z" fill="black"/>
<path d="M41.0456 14.1196H39.8047V15.1726H41.0456V14.1196Z" fill="black"/>
<path d="M39.2319 14.1196H37.8478V15.1726H39.2319V14.1196Z" fill="black"/>
<path d="M37.2751 14.1196H35.891V15.1726H37.2751V14.1196Z" fill="black"/>
<path d="M35.366 14.1196H34.0774V15.1726H35.366V14.1196Z" fill="black"/>
<path d="M33.5046 14.1196H32.1205V15.1726H33.5046V14.1196Z" fill="black"/>
<path d="M46.7729 14.1196H45.5319V15.1726H46.7729V14.1196Z" fill="black"/>
<path d="M44.9591 14.1196H43.575V15.1726H44.9591V14.1196Z" fill="black"/>
<path d="M43.0024 14.1196H41.6183V15.1726H43.0024V14.1196Z" fill="black"/>
<path d="M18.1365 12.2051H16.8956V13.2581H18.1365V12.2051Z" fill="black"/>
<path d="M20.0933 12.2051H18.7092V13.2581H20.0933V12.2051Z" fill="black"/>
<path d="M22.05 12.2051H20.6659V13.2581H22.05V12.2051Z" fill="black"/>
<path d="M23.9115 12.2051H22.6228V13.2581H23.9115V12.2051Z" fill="black"/>
<path d="M25.8205 12.2051H24.4364V13.2581H25.8205V12.2051Z" fill="black"/>
<path d="M27.7773 12.2051H26.3932V13.2581H27.7773V12.2051Z" fill="black"/>
<path d="M29.591 12.2051H28.3501V13.2581H29.591V12.2051Z" fill="black"/>
<path d="M31.5478 12.2051H30.1637V13.2581H31.5478V12.2051Z" fill="black"/>
<path d="M41.0456 12.2051H39.8047V13.2581H41.0456V12.2051Z" fill="black"/>
<path d="M39.2319 12.2051H37.8478V13.2581H39.2319V12.2051Z" fill="black"/>
<path d="M37.2751 12.2051H35.891V13.2581H37.2751V12.2051Z" fill="black"/>
<path d="M35.366 12.2051H34.0774V13.2581H35.366V12.2051Z" fill="black"/>
<path d="M33.5046 12.2051H32.1205V13.2581H33.5046V12.2051Z" fill="black"/>
<path d="M46.7729 12.2051H45.5319V13.2581H46.7729V12.2051Z" fill="black"/>
<path d="M44.9591 12.2051H43.575V13.2581H44.9591V12.2051Z" fill="black"/>
<path d="M43.0024 12.2051H41.6183V13.2581H43.0024V12.2051Z" fill="black"/>
<path d="M18.1365 10.2428H16.8956V11.2958H18.1365V10.2428Z" fill="black"/>
<path d="M20.0933 10.2428H18.7092V11.2958H20.0933V10.2428Z" fill="black"/>
<path d="M22.05 10.2428H20.6659V11.2958H22.05V10.2428Z" fill="black"/>
<path d="M23.9115 10.2428H22.6228V11.2958H23.9115V10.2428Z" fill="black"/>
<path d="M25.8205 10.2428H24.4364V11.2958H25.8205V10.2428Z" fill="black"/>
<path d="M27.7773 10.2428H26.3932V11.2958H27.7773V10.2428Z" fill="black"/>
<path d="M29.591 10.2428H28.3501V11.2958H29.591V10.2428Z" fill="black"/>
<path d="M31.5478 10.2428H30.1637V11.2958H31.5478V10.2428Z" fill="black"/>
<path d="M41.0456 10.2428H39.8047V11.2958H41.0456V10.2428Z" fill="black"/>
<path d="M39.2319 10.2428H37.8478V11.2958H39.2319V10.2428Z" fill="black"/>
<path d="M37.2751 10.2428H35.891V11.2958H37.2751V10.2428Z" fill="black"/>
<path d="M35.366 10.2428H34.0774V11.2958H35.366V10.2428Z" fill="black"/>
<path d="M33.5046 10.2428H32.1205V11.2958H33.5046V10.2428Z" fill="black"/>
<path d="M46.7729 10.2428H45.5319V11.2958H46.7729V10.2428Z" fill="black"/>
<path d="M44.9591 10.2428H43.575V11.2958H44.9591V10.2428Z" fill="black"/>
<path d="M43.0024 10.2428H41.6183V11.2958H43.0024V10.2428Z" fill="black"/>
<path d="M60.7569 28.9094V19.8154H60.1842V20.2461H58.3705V19.7675H55.5069V20.2461H53.5501V19.8154H53.1205V20.7248L51.641 21.6342H48.3001V9.66838H48.7773V6.79658H48.3001V6.31795H42.0955V5.83931H40.616V6.31795H32.5978V3.44615H31.5478V1.48376H33.9342V0H31.0705V3.54188H30.1637V6.41367H22.0501V5.93504H20.5705V6.41367H15.416L14.9387 6.8923V9.90769H15.416V7.94529H15.8455V9.42906H16.3228V7.94529H16.8001V9.42906H17.3728V7.94529H17.7069V9.42906H18.2796V7.94529H18.6137V9.42906H19.1864V7.94529H19.6637V9.42906H20.2364V7.94529H20.5705V9.42906H21.1432V7.94529H21.4773V9.42906H22.0501V7.94529H22.5273V9.42906H23.1001V7.94529H23.4342V9.42906H24.0069V7.94529H24.341V9.42906H24.9137V7.94529H25.391V9.42906H25.9637V7.94529H26.2978V9.42906H26.8705V7.94529H27.2046V9.42906H27.7773V7.94529H28.2546V9.42906H28.8273V7.94529H29.1614V9.42906H29.7342V7.94529H30.0683V9.42906H30.641V7.94529H31.1182V9.42906H31.691V7.94529H32.0251V9.42906H32.5978V7.94529H32.9319V9.42906H33.5046V7.94529H33.9342V9.42906H34.5069V7.94529H34.841V9.42906H35.4137V7.94529H35.7478V9.42906H36.3205V7.94529H36.7978V9.42906H37.3705V7.94529H37.7046V9.42906H38.2773V7.94529H38.6592V9.42906H39.2319V7.94529H39.7092V9.42906H40.2819V7.94529H40.616V9.42906H41.1887V7.94529H41.5228V9.42906H42.0955V7.94529H42.5251V9.42906H43.0978V7.94529H43.4319V9.42906H43.9569V7.94529H44.3387V9.42906H44.9114V7.94529H45.3887V9.42906H45.9614V7.94529H46.2955V9.42906H46.8682V7.94529H47.2023V9.42906H47.7751V7.94529H48.2523V9.7641H47.8228V21.8256H46.7728V20.8205H45.5319V21.8256H44.9592V20.8205H43.5751V21.8256H43.0023V20.8205H41.6182V21.8256H41.0455V20.8205H39.8046V21.8256H39.2319V20.8205H37.8478V21.8256H37.2751V20.8205H35.891V21.8256H35.3182V20.8205H34.0773V21.8256H33.5046V20.8205H32.1205V21.8256H31.5478V20.8205H30.1637V21.8256H29.591V20.8205H28.3501V21.8256H27.7773V20.8205H26.3932V21.8256H25.8205V20.8205H24.4364V21.8256H23.8637V20.8205H22.6228V21.8256H22.0501V20.8205H20.666V21.8256H20.0933V20.8205H18.7092V21.8256H18.1364V20.8205H16.8955V21.8256H15.8455V9.81197H15.416L15.3682 21.8256H12.4092L10.9773 20.3419V19.8632H10.5478V20.294H8.59098V19.8632H5.72734V20.3419H3.9137V19.9111H3.34098V29.0051H6.86646e-05V29.9145H63.0001V29.0051L60.7569 28.9094ZM16.3228 7.51453H15.7501V6.8923H16.3228V7.51453ZM17.3251 7.51453H16.7523V6.8923H17.3251V7.51453ZM18.2796 7.51453H17.7069V6.8923H18.2796V7.51453ZM19.1864 7.51453H18.6137V6.8923H19.1864V7.51453ZM20.1887 7.51453H19.616V6.8923H20.1887V7.51453ZM21.1432 7.51453H20.5705V6.8923H21.1432V7.51453ZM22.0501 7.51453H21.4773V6.8923H22.0501V7.51453ZM23.0523 7.51453H22.4796V6.8923H23.0523V7.51453ZM23.4342 7.51453V6.8923H24.0069V7.51453H23.4342ZM24.9137 7.51453H24.341V6.8923H24.9137V7.51453ZM25.916 7.51453H25.3433V6.8923H25.916V7.51453ZM26.2978 7.51453V6.8923H26.8705V7.51453H26.2978ZM27.2046 7.51453V6.8923H27.7773V7.51453H27.2046ZM28.7796 7.51453H28.2069V6.8923H28.7796V7.51453ZM29.6864 7.51453H29.1137V6.8923H29.6864V7.51453ZM30.641 7.51453H30.0683V6.8923H30.641V7.51453ZM31.6432 7.51453H31.0705V6.8923H31.6432V7.51453ZM30.641 5.98291V5.40854H32.0251V5.98291H30.641ZM32.5501 7.51453H31.9773V6.8923H32.5501V7.51453ZM32.9319 7.51453V6.8923H33.5046V7.51453H32.9319ZM34.5069 7.51453H33.9342V6.8923H34.5069V7.51453ZM35.4137 7.51453H34.841V6.8923H35.4137V7.51453ZM36.3682 7.51453H35.7955V6.8923H36.3682V7.51453ZM37.3705 7.51453H36.7978V6.8923H37.3705V7.51453ZM38.2773 7.51453H37.7046V6.8923H38.2773V7.51453ZM39.2319 7.51453H38.6592V6.8923H39.2319V7.51453ZM40.2342 7.51453H39.6614V6.8923H40.2342V7.51453ZM41.141 7.51453H40.5682V6.8923H41.141V7.51453ZM42.0955 7.51453H41.5228V6.8923H42.0955V7.51453ZM43.0978 7.51453H42.5251V6.8923H43.0978V7.51453ZM44.0046 7.51453H43.4319V6.8923H44.0046V7.51453ZM44.9592 7.51453H44.3864V6.8923H44.9592V7.51453ZM45.9614 7.51453H45.3887V6.8923H45.9614V7.51453ZM46.8682 7.51453H46.2955V6.8923H46.8682V7.51453ZM47.8228 7.51453H47.2501V6.8923H47.8228V7.51453ZM9.6887 28.9094V22.2564H9.21143V28.9094H8.16144V21.682H8.59098V21.2513H5.72734V21.7299H6.30006V28.9573H5.2978V22.3043H4.82053V28.9573H3.96143V20.8205H10.5955V28.9573L9.6887 28.9094ZM51.5932 28.9094H12.5523V22.2564H51.5932V28.9094ZM59.2773 28.9094V22.2564H58.7046V28.9094H57.7978V21.682H58.3705V21.2034H55.5069V21.682H55.9842V28.9094H55.0773V22.2564H54.4569V28.9094H53.5501V20.7726H60.1842V28.9094H59.2773Z" fill="black"/>
<path d="M0.143616 34.7966H4.20043V39.918H3.19816V35.6582H1.19362V39.918H0.143616V34.7966Z" fill="black"/>
<path d="M5.29775 39.9659V34.7966H6.96821C7.58866 34.7966 8.0182 34.8445 8.2091 34.8924C8.49547 34.9881 8.7341 35.1317 8.92501 35.4189C9.11592 35.6582 9.21138 35.9932 9.21138 36.424C9.21138 36.759 9.16366 36.9983 9.02047 37.2377C8.87729 37.477 8.78184 37.6206 8.59093 37.7642C8.40002 37.9077 8.25684 37.9556 8.06593 38.0035C7.82729 38.0513 7.44547 38.0992 7.01592 38.0992H6.34774V40.0616H5.29775V39.9659ZM6.30001 35.706V37.1419H6.87275C7.30229 37.1419 7.54093 37.0941 7.68412 37.0462C7.8273 36.9983 7.92274 36.9026 8.0182 36.8069C8.11365 36.7112 8.11366 36.5676 8.11366 36.424C8.11366 36.2325 8.06592 36.0889 7.97047 35.9453C7.87501 35.8018 7.73183 35.7539 7.54093 35.706C7.39774 35.706 7.1591 35.6582 6.77729 35.6582H6.30001V35.706Z" fill="black"/>
<path d="M14.0318 39.9659H12.9341L12.4568 38.7693H10.4046L9.97502 39.918H8.8773L10.8818 34.7966H11.9796L14.0318 39.9659ZM12.1705 37.9077L11.4546 35.9932L10.7387 37.9077H12.1705Z" fill="black"/>
<path d="M14.6046 34.7966H16.6569C17.0387 34.7966 17.3728 34.7966 17.5637 34.8445C17.7546 34.8924 17.9455 34.9402 18.0887 35.0359C18.2319 35.1317 18.3751 35.2753 18.4705 35.4667C18.566 35.6582 18.6137 35.8496 18.6137 36.0889C18.6137 36.3283 18.566 36.5676 18.4228 36.759C18.2796 36.9505 18.1364 37.0941 17.8978 37.1898C18.2319 37.2855 18.4705 37.4291 18.6137 37.6684C18.7569 37.9077 18.8523 38.1471 18.8523 38.4342C18.8523 38.6735 18.8046 38.9129 18.7091 39.1043C18.6137 39.3436 18.4705 39.4872 18.2796 39.6308C18.0887 39.7744 17.8501 39.8223 17.5637 39.8701C17.3728 39.8701 16.991 39.918 16.3228 39.918H14.5569V34.7966H14.6046ZM15.6546 35.6582V36.8548H17.0864C17.2773 36.8548 17.4205 36.759 17.516 36.6633C17.6114 36.5676 17.6592 36.424 17.6592 36.2804C17.6592 36.1368 17.6114 35.9932 17.516 35.8975C17.4205 35.8018 17.2773 35.7539 17.1342 35.706H15.6546V35.6582ZM15.6546 37.7163V39.1043H16.6092C16.991 39.1043 17.2296 39.1043 17.3251 39.0565C17.4682 39.0086 17.6114 38.9607 17.7069 38.865C17.8023 38.7693 17.8501 38.6257 17.8501 38.4342C17.8501 38.2906 17.8023 38.1471 17.7546 38.0513C17.7069 37.9556 17.5637 37.8599 17.4205 37.812C17.2773 37.7642 16.991 37.7163 16.5137 37.7163H15.6546Z" fill="black"/>
<path d="M19.8069 34.7966H20.7614V38.1949L22.8614 34.7966H23.9114V39.918H22.9569V36.5676L20.9046 39.918H19.8546V34.7966H19.8069Z" fill="black"/>
<path d="M26.0592 39.9657V35.7059H24.5319V34.8444H28.5888V35.7059H27.0615V39.9657H26.0592Z" fill="black"/>
<path d="M29.3047 39.9659V34.7966H33.1228V35.6582H30.3547V36.8069H32.9319V37.6684H30.3547V39.0565H33.2183V39.918H29.3047V39.9659Z" fill="black"/>
<path d="M34.4114 34.7966H37.991V39.918H36.941V35.6582H35.4137V37.8599C35.4137 38.4821 35.4137 38.9129 35.366 39.2C35.3182 39.4394 35.2228 39.6308 35.0796 39.7744C34.9364 39.918 34.6501 39.9659 34.316 39.9659C34.1728 39.9659 33.9819 39.9659 33.6478 39.918V39.1043H33.8864C34.1251 39.1043 34.2682 39.0565 34.316 39.0086C34.3637 38.9607 34.4114 38.8171 34.4114 38.5778V34.7966Z" fill="black"/>
<path d="M39.0887 34.7966H40.1387V36.8548H41.5228C42.1909 36.8548 42.6682 36.9983 42.9546 37.3334C43.2409 37.6206 43.3841 38.0035 43.3841 38.4342C43.3841 38.7693 43.2887 39.1043 43.0978 39.3436C42.9069 39.583 42.7159 39.7744 42.4773 39.8223C42.2387 39.918 41.9046 39.9659 41.475 39.9659H39.0409V34.7966H39.0887ZM40.1387 39.1043H41.1409C41.475 39.1043 41.7137 39.1043 41.8091 39.0565C41.9523 39.0086 42.0478 38.9607 42.1432 38.8171C42.2387 38.7214 42.2864 38.5778 42.2864 38.3864C42.2864 38.1471 42.1909 37.9556 42.0478 37.8599C41.8569 37.7641 41.5705 37.7163 41.1887 37.7163H40.1387V39.1043Z" fill="black"/>
<path d="M47.3456 38.0512L48.3478 38.3863C48.2047 38.9606 47.9183 39.3435 47.5842 39.6307C47.2024 39.9179 46.7728 40.0615 46.2001 40.0615C45.5319 40.0615 44.9592 39.8222 44.5297 39.3435C44.1001 38.8649 43.8615 38.2427 43.8615 37.429C43.8615 36.5675 44.1001 35.8974 44.5297 35.4188C44.9592 34.9401 45.5319 34.7008 46.2478 34.7008C46.8683 34.7008 47.3933 34.8923 47.7751 35.2752C48.0138 35.5145 48.2047 35.8017 48.3001 36.2324L47.2978 36.4717C47.2501 36.1846 47.1069 35.9931 46.916 35.8495C46.7251 35.7059 46.4865 35.6102 46.2001 35.6102C45.8183 35.6102 45.5319 35.7538 45.2933 36.041C45.0547 36.3282 44.9592 36.7589 44.9592 37.3811C44.9592 38.0512 45.0547 38.482 45.2933 38.7692C45.5319 39.0564 45.8183 39.1999 46.2001 39.1999C46.4865 39.1999 46.7251 39.1042 46.916 38.9606C47.1069 38.7213 47.2501 38.4341 47.3456 38.0512Z" fill="black"/>
<path d="M50.2092 39.9657V35.7059H48.6819V34.8444H52.7387V35.7059H51.2114V39.9657H50.2092Z" fill="black"/>
<path d="M53.4069 34.7966H55.4591C55.841 34.7966 56.175 34.7966 56.3659 34.8445C56.5569 34.8924 56.7478 34.9402 56.891 35.0359C57.0341 35.1317 57.1773 35.2753 57.2728 35.4667C57.3682 35.6582 57.4159 35.8496 57.4159 36.0889C57.4159 36.3283 57.3682 36.5676 57.225 36.759C57.0819 36.9505 56.9387 37.0941 56.7 37.1898C57.0341 37.2855 57.2728 37.4291 57.4159 37.6684C57.5591 37.9077 57.6546 38.1471 57.6546 38.4342C57.6546 38.6735 57.6069 38.9129 57.5114 39.1043C57.416 39.3436 57.2728 39.4872 57.0819 39.6308C56.8909 39.7744 56.6523 39.8223 56.3659 39.8701C56.175 39.8701 55.7932 39.918 55.125 39.918H53.3591V34.7966H53.4069ZM54.4569 35.6582V36.8548H55.8887C56.0796 36.8548 56.2228 36.759 56.3182 36.6633C56.4137 36.5676 56.4614 36.424 56.4614 36.2804C56.4614 36.1368 56.4137 35.9932 56.3182 35.8975C56.2228 35.8018 56.0796 35.7539 55.9364 35.706H54.4569V35.6582ZM54.4569 37.7163V39.1043H55.4114C55.7932 39.1043 56.0319 39.1043 56.1273 39.0565C56.2705 39.0086 56.4137 38.9607 56.5091 38.865C56.6046 38.7693 56.6523 38.6257 56.6523 38.4342C56.6523 38.2906 56.6046 38.1471 56.5569 38.0513C56.5091 37.9556 56.3659 37.8599 56.2228 37.812C56.0796 37.7642 55.7932 37.7163 55.316 37.7163H54.4569Z" fill="black"/>
<path d="M58.2273 37.429C58.2273 36.9025 58.3228 36.4717 58.466 36.0888C58.5614 35.8495 58.7523 35.6102 58.9432 35.3709C59.1342 35.1794 59.3728 34.988 59.6114 34.8923C59.9455 34.7487 60.2796 34.7008 60.7092 34.7008C61.4728 34.7008 62.0455 34.9401 62.5228 35.4188C62.9523 35.8974 63.191 36.5196 63.191 37.3811C63.191 38.1948 62.9523 38.8649 62.5228 39.3435C62.0932 39.8222 61.4728 40.0615 60.7092 40.0615C59.9455 40.0615 59.3251 39.8222 58.8955 39.3435C58.4182 38.8649 58.2273 38.2427 58.2273 37.429ZM59.2773 37.3811C59.2773 37.9555 59.4205 38.3863 59.6592 38.7213C59.9455 39.0085 60.2796 39.1521 60.6614 39.1521C61.091 39.1521 61.4251 39.0085 61.6637 38.7213C61.9501 38.4341 62.0455 37.9555 62.0455 37.3811C62.0455 36.8068 61.9023 36.376 61.6637 36.041C61.4251 35.7538 61.0432 35.6102 60.6614 35.6102C60.2319 35.6102 59.8978 35.7538 59.6114 36.041C59.4205 36.3282 59.2773 36.8068 59.2773 37.3811Z" fill="black"/>
<path d="M6.01366 47.3847V42.2155H7.68411C8.30457 42.2155 8.7341 42.2633 8.92501 42.3112C9.21137 42.4069 9.45001 42.5505 9.64092 42.8377C9.83183 43.077 9.92728 43.412 9.92728 43.8428C9.92728 44.1778 9.87956 44.4172 9.73638 44.6565C9.5932 44.8958 9.49774 45.0394 9.30683 45.183C9.11593 45.3266 8.97274 45.3744 8.78183 45.4223C8.5432 45.4702 8.16137 45.518 7.73183 45.518H7.06365V47.3847H6.01366ZM7.06365 43.1249V44.5608H7.63638C8.06593 44.5608 8.30455 44.5129 8.44774 44.465C8.59092 44.4172 8.68638 44.3214 8.78183 44.2257C8.87729 44.13 8.87729 43.9864 8.87729 43.8428C8.87729 43.6513 8.82956 43.5078 8.7341 43.3642C8.63865 43.2206 8.49547 43.1727 8.30456 43.1249C8.16138 43.1249 7.92274 43.077 7.54092 43.077H7.06365V43.1249Z" fill="black"/>
<path d="M10.5955 44.8478C10.5955 44.3213 10.691 43.8906 10.8342 43.5077C10.9296 43.2683 11.1205 43.029 11.3114 42.7897C11.5023 42.5983 11.741 42.4068 11.9796 42.3111C12.3137 42.1675 12.6478 42.1196 13.0774 42.1196C13.841 42.1196 14.4137 42.3589 14.891 42.8376C15.3205 43.3162 15.5592 43.9384 15.5592 44.8C15.5592 45.6136 15.3205 46.2837 14.891 46.7624C14.4614 47.241 13.841 47.4803 13.0774 47.4803C12.3137 47.4803 11.6933 47.241 11.2637 46.7624C10.8342 46.2837 10.5955 45.6615 10.5955 44.8478ZM11.6455 44.8C11.6455 45.3743 11.7887 45.8051 12.0273 46.1401C12.3137 46.4273 12.6478 46.5709 13.0296 46.5709C13.4592 46.5709 13.7933 46.4273 14.0319 46.1401C14.3183 45.853 14.4137 45.3743 14.4137 44.8C14.4137 44.2256 14.2705 43.7948 14.0319 43.4598C13.7933 43.1726 13.4114 43.029 13.0296 43.029C12.6001 43.029 12.266 43.1726 11.9796 43.4598C11.7887 43.747 11.6455 44.2256 11.6455 44.8Z" fill="black"/>
<path d="M19.7591 45.4701L20.7614 45.8051C20.6182 46.3795 20.3318 46.7624 19.9977 47.0495C19.6159 47.3367 19.1864 47.4803 18.6137 47.4803C17.9455 47.4803 17.3727 47.241 16.9432 46.7624C16.5137 46.2837 16.275 45.6615 16.275 44.8478C16.275 43.9863 16.5137 43.3162 16.9432 42.8376C17.3727 42.3589 17.9455 42.1196 18.6614 42.1196C19.2818 42.1196 19.8068 42.3111 20.1887 42.694C20.4273 42.9333 20.6182 43.2205 20.7137 43.6513L19.7114 43.8906C19.6637 43.6034 19.5205 43.4119 19.3296 43.2683C19.1387 43.1248 18.9 43.029 18.6137 43.029C18.2318 43.029 17.9455 43.1726 17.7068 43.4598C17.4682 43.747 17.3727 44.1777 17.3727 44.8C17.3727 45.4701 17.4682 45.9008 17.7068 46.188C17.9455 46.4752 18.2318 46.6188 18.6137 46.6188C18.9 46.6188 19.1387 46.523 19.3296 46.3795C19.5205 46.1401 19.6637 45.853 19.7591 45.4701Z" fill="black"/>
<path d="M25.0091 45.4701L26.0114 45.8051C25.8682 46.3795 25.5818 46.7624 25.2477 47.0495C24.8659 47.3367 24.4364 47.4803 23.8637 47.4803C23.1955 47.4803 22.6227 47.241 22.1932 46.7624C21.7637 46.2837 21.525 45.6615 21.525 44.8478C21.525 43.9863 21.7637 43.3162 22.1932 42.8376C22.6227 42.3589 23.1955 42.1196 23.9114 42.1196C24.5318 42.1196 25.0568 42.3111 25.4387 42.694C25.6773 42.9333 25.8682 43.2205 25.9637 43.6513L24.9614 43.8906C24.9137 43.6034 24.7705 43.4119 24.5796 43.2683C24.3887 43.1248 24.15 43.029 23.8637 43.029C23.4818 43.029 23.1955 43.1726 22.9568 43.4598C22.7182 43.747 22.6227 44.1777 22.6227 44.8C22.6227 45.4701 22.7182 45.9008 22.9568 46.188C23.1955 46.4752 23.4818 46.6188 23.8637 46.6188C24.15 46.6188 24.3887 46.523 24.5796 46.3795C24.8182 46.1401 24.9614 45.853 25.0091 45.4701Z" fill="black"/>
<path d="M27.0614 42.2155H28.016V45.6137L30.116 42.2155H31.166V47.3847H30.2114V44.0343L28.1592 47.3847H27.1092V42.2155H27.0614Z" fill="black"/>
<path d="M32.3114 42.2154H33.266V45.6137L35.366 42.2154H36.416V47.3846H35.4614V44.0342L33.4092 47.3846H32.3592V42.2154H32.3114ZM34.9364 40.9709H35.4137C35.366 41.306 35.2705 41.5453 35.0796 41.7368C34.8887 41.9282 34.6501 42.0239 34.316 42.0239C33.9819 42.0239 33.7433 41.9282 33.5523 41.7368C33.3614 41.5453 33.266 41.306 33.2183 40.9709H33.6955C33.6955 41.1145 33.791 41.2581 33.8864 41.3539C33.9819 41.4496 34.1251 41.4974 34.316 41.4974C34.5069 41.4974 34.6501 41.4496 34.7455 41.3539C34.8887 41.2581 34.9364 41.1145 34.9364 40.9709Z" fill="black"/>
<path d="M40.8069 45.4701L41.8092 45.8051C41.666 46.3795 41.3796 46.7624 41.0455 47.0495C40.6637 47.3367 40.2342 47.4803 39.6614 47.4803C38.9933 47.4803 38.4205 47.241 37.991 46.7624C37.5614 46.2837 37.3228 45.6615 37.3228 44.8478C37.3228 43.9863 37.5614 43.3162 37.991 42.8376C38.4205 42.3589 38.9933 42.1196 39.7092 42.1196C40.3296 42.1196 40.8546 42.3111 41.2365 42.694C41.4751 42.9333 41.666 43.2205 41.7615 43.6513L40.7592 43.8906C40.7115 43.6034 40.5683 43.4119 40.3774 43.2683C40.1864 43.1248 39.9478 43.029 39.6614 43.029C39.2796 43.029 38.9933 43.1726 38.7546 43.4598C38.516 43.747 38.4205 44.1777 38.4205 44.8C38.4205 45.4701 38.516 45.9008 38.7546 46.188C38.9933 46.4752 39.2796 46.6188 39.6614 46.6188C39.9478 46.6188 40.1864 46.523 40.3774 46.3795C40.5683 46.1401 40.7115 45.853 40.8069 45.4701Z" fill="black"/>
<path d="M42.8115 42.2153H43.8615V44.4171C44.1001 44.4171 44.2433 44.3213 44.3387 44.2256C44.4342 44.1299 44.5296 43.8427 44.7206 43.4119C44.9115 42.8376 45.1501 42.5025 45.3887 42.3589C45.5796 42.2153 45.9615 42.1675 46.4387 42.1675H46.5819V42.9333H46.4387C46.2478 42.9333 46.0569 42.9812 45.9615 43.029C45.866 43.0769 45.7706 43.1726 45.7228 43.2683C45.6751 43.3641 45.5796 43.6034 45.4365 43.9384C45.3887 44.1299 45.2933 44.2735 45.2456 44.3692C45.1501 44.4649 45.0546 44.6085 44.8637 44.7042C45.1024 44.7521 45.2933 44.8957 45.4365 45.0871C45.5796 45.2786 45.7706 45.5658 45.9137 45.9487L46.6296 47.3367H45.3887L44.7683 45.9965C44.7683 45.9965 44.7206 45.9487 44.7206 45.9008C44.7206 45.9008 44.6728 45.8051 44.5774 45.6615C44.4342 45.4222 44.3387 45.2307 44.2433 45.1829C44.1478 45.135 44.0046 45.0871 43.8615 45.0871V47.3846H42.8115V42.2153Z" fill="black"/>
<path d="M47.0591 44.8478C47.0591 44.3213 47.1546 43.8906 47.2977 43.5077C47.3932 43.2683 47.5841 43.029 47.775 42.7897C47.9659 42.5983 48.2046 42.4068 48.4432 42.3111C48.7773 42.1675 49.1114 42.1196 49.5409 42.1196C50.3046 42.1196 50.8773 42.3589 51.3546 42.8376C51.7841 43.3162 52.0227 43.9384 52.0227 44.8C52.0227 45.6136 51.7841 46.2837 51.3546 46.7624C50.925 47.241 50.3046 47.4803 49.5409 47.4803C48.7773 47.4803 48.1568 47.241 47.7273 46.7624C47.2977 46.2837 47.0591 45.6615 47.0591 44.8478ZM48.1568 44.8C48.1568 45.3743 48.3 45.8051 48.5386 46.1401C48.825 46.4273 49.1591 46.5709 49.5409 46.5709C49.9705 46.5709 50.3046 46.4273 50.5432 46.1401C50.8296 45.853 50.925 45.3743 50.925 44.8C50.925 44.2256 50.7818 43.7948 50.5432 43.4598C50.3046 43.1726 49.9227 43.029 49.5409 43.029C49.1114 43.029 48.7773 43.1726 48.4909 43.4598C48.3 43.747 48.1568 44.2256 48.1568 44.8Z" fill="black"/>
<path d="M52.9773 42.2154H53.9319V45.6137L56.0319 42.2154H57.0819V47.3846H56.1273V44.0342L54.0751 47.3846H53.0251V42.2154H52.9773ZM55.6501 40.9709H56.1273C56.0796 41.306 55.9842 41.5453 55.7933 41.7368C55.6023 41.9282 55.3637 42.0239 55.0296 42.0239C54.6955 42.0239 54.4569 41.9282 54.266 41.7368C54.0751 41.5453 53.9796 41.306 53.9319 40.9709H54.4092C54.4092 41.1145 54.5046 41.2581 54.6001 41.3539C54.6955 41.4496 54.8387 41.4974 55.0296 41.4974C55.2205 41.4974 55.3637 41.4496 55.4592 41.3539C55.5546 41.2581 55.6023 41.1145 55.6501 40.9709Z" fill="black"/>
<path d="M11.8841 54.1813V54.8035H10.8818V54.1813C10.0705 54.1334 9.49774 53.942 9.16364 53.5591C8.82955 53.1762 8.63866 52.6975 8.63866 52.171C8.63866 51.5967 8.82955 51.118 9.16364 50.7351C9.49774 50.3522 10.0705 50.1608 10.8818 50.1608V49.6343H11.8841V50.1608C12.6955 50.2086 13.2682 50.4001 13.6023 50.783C13.9364 51.1659 14.1273 51.6445 14.1273 52.2189C14.1273 52.7933 13.9364 53.2719 13.6023 53.6069C13.2682 53.942 12.6955 54.1813 11.8841 54.1813ZM10.8818 53.3197V51.0223C10.4523 51.0223 10.1182 51.118 9.92728 51.3095C9.73638 51.5009 9.64092 51.7881 9.64092 52.171C9.64092 52.9368 10.0227 53.3197 10.8818 53.3197ZM11.8841 53.3197C12.1705 53.3197 12.4091 53.2719 12.6 53.1762C12.7909 53.0804 12.9341 52.9847 13.0296 52.7933C13.125 52.6497 13.1727 52.4103 13.1727 52.1232C13.1727 51.3574 12.7432 51.0223 11.9318 51.0223V53.3197H11.8841Z" fill="black"/>
<path d="M15.0342 54.8034V49.682H18.8523V50.5435H16.0841V51.6923H18.6614V52.5538H16.0841V53.9418H18.9478V54.8034H15.0342Z" fill="black"/>
<path d="M20.3319 49.6343H23.8637V53.8941H24.2932V55.8565H23.4342V54.7556H20.1887V55.8565H19.3296V53.8941H19.7592C19.9501 53.4633 20.0932 52.9368 20.1887 52.3625C20.2364 51.7881 20.2842 51.0702 20.2842 50.1608V49.6343H20.3319ZM21.3341 50.4958C21.3341 52.0753 21.191 53.1762 20.9046 53.8941H22.8614V50.4958H21.3341Z" fill="black"/>
<path d="M25.1523 54.8034V49.682H28.9705V50.5435H26.2023V51.6923H28.7796V52.5538H26.2023V53.9418H29.066V54.8034H25.1523Z" fill="black"/>
<path d="M30.0206 54.8034V49.682H31.691C32.3115 49.682 32.741 49.7299 32.9319 49.7777C33.2183 49.8735 33.4569 50.017 33.6478 50.3042C33.8388 50.5435 33.9342 50.8786 33.9342 51.3094C33.9342 51.6444 33.8865 51.8837 33.7433 52.123C33.6001 52.3623 33.5047 52.5059 33.3137 52.6495C33.1228 52.7931 32.9797 52.841 32.7887 52.8888C32.5501 52.9367 32.1683 52.9846 31.7388 52.9846H31.0706V54.947H30.0206V54.8034ZM31.0706 50.5435V51.9794H31.6433C32.0728 51.9794 32.3115 51.9316 32.4547 51.8837C32.5978 51.8359 32.6933 51.7401 32.7887 51.6444C32.8842 51.5487 32.8842 51.4051 32.8842 51.2615C32.8842 51.07 32.8365 50.9264 32.741 50.7829C32.6456 50.6393 32.5024 50.5914 32.3115 50.5435C32.1683 50.5435 31.9297 50.4957 31.5478 50.4957H31.0706V50.5435Z" fill="black"/>
<path d="M38.8978 54.8034H37.7524L37.3228 53.6547H35.2705L34.841 54.8034H33.7433L35.7478 49.682H36.8455L38.8978 54.8034ZM36.9887 52.7453L36.2728 50.8307L35.5569 52.7453H36.9887Z" fill="black"/>
<path d="M39.566 49.6343H40.616V53.8941H42.6206V49.6343H43.6706V53.8941H44.1001V55.8565H43.241V54.7556H39.6138V49.6343H39.566Z" fill="black"/>
<path d="M44.9114 49.6343H45.8659V53.0326L47.9659 49.6343H49.0159V54.7556H48.0614V51.4052L46.0091 54.7556H44.9114V49.6343Z" fill="black"/>
<path d="M50.1614 49.6343H51.1159V53.0326L53.2159 49.6343H54.2659V54.7556H53.3114V51.4052L51.2591 54.7556H50.1614V49.6343Z" fill="black"/>
</g>
<defs>
<clipPath id="clip0">
<rect width="63" height="56" fill="white"/>
</clipPath>
</defs>
</svg>
