<?xml version="1.0" encoding="UTF-8"?>
<!DOCTYPE svg PUBLIC "-//W3C//DTD SVG 1.1//EN" "http://www.w3.org/Graphics/SVG/1.1/DTD/svg11.dtd">
<!-- Creator: CorelDRAW 2020 (64-Bit) -->
<svg xmlns="http://www.w3.org/2000/svg" xml:space="preserve" width="1.6932mm" height="1.6932mm" version="1.1" style="shape-rendering:geometricPrecision; text-rendering:geometricPrecision; image-rendering:optimizeQuality; fill-rule:evenodd; clip-rule:evenodd"
viewBox="0 0 169.32 169.32"
 xmlns:xlink="http://www.w3.org/1999/xlink"
 xmlns:xodm="http://www.corel.com/coreldraw/odm/2003">
 <defs>
  <style type="text/css">
   <![CDATA[
    .fil0 {fill:white;fill-rule:nonzero}
   ]]>
  </style>
 </defs>
 <g id="Слой_x0020_1">
  <metadata id="CorelCorpID_0Corel-Layer"/>
  <path class="fil0" d="M7.36 25.76l154.6 0c4.07,0 7.36,3.3 7.36,7.36l0 0c0,4.07 -3.29,7.37 -7.36,7.37l-154.6 0c-4.06,0 -7.36,-3.3 -7.36,-7.37l0 0c0,-4.06 3.3,-7.36 7.36,-7.36z"/>
  <path class="fil0" d="M7.36 77.3l154.6 0c4.07,0 7.36,3.29 7.36,7.36l0 0c0,4.06 -3.29,7.36 -7.36,7.36l-154.6 0c-4.06,0 -7.36,-3.3 -7.36,-7.36l0 0c0,-4.07 3.3,-7.36 7.36,-7.36z"/>
  <path class="fil0" d="M7.36 128.83l154.6 0c4.07,0 7.36,3.3 7.36,7.36l0 0.01c0,4.06 -3.29,7.36 -7.36,7.36l-154.6 0c-4.06,0 -7.36,-3.3 -7.36,-7.37l0 0.01c0,-4.07 3.3,-7.37 7.36,-7.37z"/>
 </g>
</svg>
