<svg width="114" height="114" viewBox="0 0 114 114" fill="none" xmlns="http://www.w3.org/2000/svg">
<path d="M97.375 33.25L111.625 42.75V111.625H2.375V42.75L16.625 33.25" stroke="white" stroke-width="2" stroke-miterlimit="10"/>
<path d="M57.2262 76L99.9762 49.875V0H14.4762V49.875L57.2262 76Z" fill="white"/>
<path d="M2.375 42.75L111.625 111.625" stroke="white" stroke-width="2" stroke-miterlimit="10"/>
<path d="M111.625 42.75L2.375 111.625" stroke="white" stroke-width="2" stroke-miterlimit="10"/>
<path d="M57.1907 55.7838C56.4278 55.7838 55.7284 56.3771 55.7284 57.3263C55.7284 58.1569 56.4278 58.8096 57.1907 58.8096C57.9537 58.8096 58.653 58.1569 58.653 57.3263C58.653 56.3771 57.8901 55.7838 57.1907 55.7838ZM57.7629 43.9774C57.7629 40.121 58.653 38.4005 63.0399 35.0188C66.0281 32.6456 68.7619 30.3911 68.7619 25.4075C68.7619 18.8814 63.6121 15.381 57.2543 15.381C51.3133 15.381 46.7293 18.5194 45.3782 24.2658C45.2923 24.631 45.539 24.9864 45.9084 25.052C46.2757 25.1173 46.6244 24.8715 46.7109 24.5086C47.8149 19.8745 51.601 16.6269 57.1272 16.6269C62.7856 16.6269 67.3632 19.712 67.3632 25.4668C67.3632 29.5012 65.3923 31.3404 62.9127 33.5355L60.7511 35.3154C57.0636 38.0445 56.3642 40.833 56.3642 43.4434V45.8885C56.3642 46.2747 56.6773 46.5879 57.0636 46.5879C57.4498 46.5879 57.7629 46.2747 57.7629 45.8885V43.9774Z" fill="#0288CB" stroke="#0288CB" stroke-width="1.1"/>
</svg>
