<svg width="21" height="19" viewBox="0 0 21 19" fill="none" xmlns="http://www.w3.org/2000/svg">
<rect x="0.75" y="13.75" width="6.5" height="4.5" stroke="white" stroke-width="1.5"/>
<rect x="0.75" y="13.75" width="6.5" height="4.5" stroke="white" stroke-width="1.5"/>
<rect x="0.75" y="13.75" width="6.5" height="4.5" stroke="white" stroke-width="1.5"/>
<rect x="13.75" y="13.75" width="6.5" height="4.5" stroke="white" stroke-width="1.5"/>
<rect x="13.75" y="13.75" width="6.5" height="4.5" stroke="white" stroke-width="1.5"/>
<rect x="13.75" y="13.75" width="6.5" height="4.5" stroke="white" stroke-width="1.5"/>
<rect x="5.31525" y="0.75" width="10.3696" height="4.8913" stroke="white" stroke-width="1.5"/>
<rect x="5.31525" y="0.75" width="10.3696" height="4.8913" stroke="white" stroke-width="1.5"/>
<rect x="5.31525" y="0.75" width="10.3696" height="4.8913" stroke="white" stroke-width="1.5"/>
<path d="M3.55396 9.17618L17.3987 9.13037V10.0434L3.55396 10.0892V9.17618Z" fill="white" stroke="white" stroke-width="0.4"/>
<rect x="4.56525" y="10.0435" width="3.65217" height="0.913043" transform="rotate(90 4.56525 10.0435)" fill="white" stroke="white" stroke-width="0.7"/>
<rect x="17.3478" y="10.0435" width="3.65217" height="0.913043" transform="rotate(90 17.3478 10.0435)" fill="white" stroke="white" stroke-width="0.5"/>
<rect x="10.9565" y="5.47827" width="3.65217" height="0.913043" transform="rotate(90 10.9565 5.47827)" fill="white" stroke="white" stroke-width="0.5"/>
</svg>
