<svg width="13" height="21" viewBox="0 0 13 21" fill="none" xmlns="http://www.w3.org/2000/svg">
<g clip-path="url(#clip0)">
<path d="M0.19154 11.2708C-0.339802 12.3252 0.263484 12.8292 1.63995 13.6902C2.81011 14.4199 4.42668 14.6868 5.46509 14.7936C5.0395 15.2066 6.98977 13.3131 1.37297 18.7669C0.182005 19.9193 2.09934 21.7682 3.28945 20.6403L6.51131 17.5034C7.74475 18.7013 8.92705 19.8493 9.73317 20.6447C10.9241 21.7769 12.8406 19.9438 11.6626 18.7713C11.5742 18.6864 7.29662 14.5442 7.55752 14.7979C8.60894 14.6912 10.2012 14.4086 11.3575 13.6946L11.3567 13.6937C12.7331 12.8283 13.3364 12.3252 12.8129 11.2708C12.4965 10.6723 11.6436 10.1718 10.5081 11.0372C10.5081 11.0372 8.97472 12.2228 6.50177 12.2228C4.02795 12.2228 2.49547 11.0372 2.49547 11.0372C1.36084 10.1675 0.504451 10.6723 0.19154 11.2708Z" fill="#EA7F07"/>
<path d="M6.50026 10.6242C9.51495 10.6242 11.9766 8.24596 11.9766 5.31823C11.9766 2.37824 9.51495 0 6.50026 0C3.48469 0 1.02301 2.37824 1.02301 5.31823C1.02301 8.24596 3.48469 10.6242 6.50026 10.6242ZM6.50026 2.69411C7.9816 2.69411 9.18991 3.86748 9.18991 5.31823C9.18991 6.75672 7.9816 7.93009 6.50026 7.93009C5.01891 7.93009 3.81061 6.75672 3.81061 5.31823C3.80974 3.86661 5.01805 2.69411 6.50026 2.69411Z" fill="#EA7F07"/>
</g>
<defs>
<clipPath id="clip0">
<rect width="13" height="21" fill="white"/>
</clipPath>
</defs>
</svg>
