<svg width="253" height="340" viewBox="0 0 253 340" fill="none" xmlns="http://www.w3.org/2000/svg">
<mask id="mask0" mask-type="alpha" maskUnits="userSpaceOnUse" x="0" y="0" width="253" height="340">
<rect x="0.401123" width="252.599" height="340" fill="#C4C4C4"/>
</mask>
<g mask="url(#mask0)">
<path fill-rule="evenodd" clip-rule="evenodd" d="M63.8795 6.36685C56.9435 20.6364 44.7118 34.1168 35.9116 37.1913C34.6106 37.645 31.6426 38.2546 29.3158 38.5446L25.0844 39.0723L21.9645 51.6512C5.64932 117.429 2.06296 174.921 10.9579 228.134C22.2831 295.893 55.5123 353.456 107.203 394.862C125.474 409.497 147.668 422.861 166.72 430.698C175.387 434.264 175.888 434.366 179.353 433.295C183.693 431.954 192.327 428.097 200.752 423.735C235.712 405.64 267.698 378.513 291.395 346.864C316.047 313.941 332.633 275.614 340.752 232.812C349.591 186.222 348.236 133.418 336.755 77.0113C334.07 63.8119 328.312 39.739 327.71 39.1847C327.641 39.1216 325.435 38.7547 322.809 38.371C319.944 37.9508 317.071 37.2288 315.623 36.566C306.882 32.5614 296.217 20.4214 289.174 6.45761L287.854 3.8418H176.481H65.1075L63.8795 6.36685ZM276.635 26.8682C281.164 34.6011 292.521 46.8901 299.278 51.3671C302.786 53.6939 308.327 56.6066 310.145 57.083C310.818 57.2586 311.36 59.0478 313.25 67.3499C318.589 90.8024 322.131 112.528 324.053 133.619C326.306 158.345 326.144 186.328 323.622 208.397C314.99 283.922 279.845 345.611 221.877 386.992C209.794 395.617 193.4 404.947 181.291 410.088L176.751 412.015L174.489 411.228C170.767 409.933 155.988 402.596 149.391 398.769C131.236 388.234 115.869 376.335 100.223 360.696C81.982 342.462 68.7166 324.398 57.0017 301.84C28.511 246.981 20.4022 178.877 33.1005 101.12C35.4273 86.8718 41.0554 59.8537 42.1118 57.8534C42.3061 57.4874 43.2224 56.9213 44.1486 56.5958C45.0758 56.2693 47.2723 55.2178 49.03 54.2591C58.2021 49.2504 67.318 40.3348 75.0815 28.7807L77.6746 24.9221H176.585H275.495L276.635 26.8682ZM86.7274 39.0861C82.7997 45.5526 81.5756 47.3941 79.0003 50.7102C75.2502 55.5384 69.4909 61.1567 65.941 63.4489C63.1092 65.2776 59.8572 66.7098 56.7098 67.5147C54.599 68.0542 54.9472 67.2296 52.4517 77.6238C47.5959 97.8578 43.9572 120.024 41.8573 142.183C40.9084 152.19 40.5267 180.585 41.1944 191.412C44.695 248.093 63.046 295.576 96.5317 334.593C102.36 341.383 115.577 354.269 122.745 360.148C138.065 372.715 157.981 384.963 172.64 390.833L176.563 392.404L180.697 390.682C206.309 380.015 233.719 360.086 253.987 337.399C285.308 302.335 303.932 259.782 310.206 208.939C314.535 173.858 312.348 133.884 303.828 92.3362C302.188 84.3389 298.512 68.3669 298.251 68.1065C298.164 68.0197 296.929 67.6449 295.504 67.274C290.207 65.8951 283.428 61.4259 278.397 55.9941C275.108 52.4422 270.182 45.7706 267.682 41.4819L265.71 38.0978H176.519H87.327L86.7274 39.0861Z" fill="#E6E8EB"/>
<path d="M347.969 120.554C301.467 141.386 251.221 112.177 235.933 100.171C220.618 88.1904 210.293 88.0316 205.17 89.3829C200.074 90.7352 194.208 101.655 192.881 108.255C191.846 113.291 188.634 117.267 187.175 118.857L187.625 98.554C187.625 98.554 194.155 94.0484 192.562 84.2943C190.598 72.0754 180.592 69.7693 176.079 69.7693C171.567 69.7693 159.783 71.7302 159.57 85.3547C159.411 95.6916 165.277 99.2958 165.277 99.2958L165.86 119.784H165.781V119.625C165.781 119.625 160.712 114.881 159.357 108.281C158.004 101.682 152.165 90.7618 147.068 89.4096C141.972 88.0583 131.62 88.2171 116.305 100.197C100.99 112.151 50.7454 141.36 4.24295 120.554C4.24295 120.554 17.753 135.37 25.5304 138.232C25.5304 138.232 18.6289 138.842 15.0188 137.49C15.0188 137.49 23.5656 158.456 57.0098 142.739L57.7525 143.348C57.7525 143.348 49.9494 155.036 33.1479 153.976C33.1479 153.976 44.853 169.403 69.0067 156.972C69.0067 156.972 64.654 163.412 55.9475 162.803C55.9475 162.803 59.6907 170.144 75.0057 170.144C85.1977 170.144 97.5133 159.357 97.5133 159.357L98.0439 160.258C98.0439 160.258 91.7806 167.362 84.0298 170.966C84.0298 170.966 90.0022 177.699 99.6635 176.029C103.671 175.339 107.308 173.591 110.599 170.966C112.51 184.325 126.551 194.265 140.592 196.067C139.424 197.366 138.495 198.77 137.885 200.281C133.717 210.618 137.194 223.42 141.256 227.476C144.573 230.789 149.086 233.652 151.82 234.526C145.37 239.615 141.866 246.161 143.75 253.424C147.334 267.26 156.863 269.884 157.022 269.937C153.306 273.939 152.165 278.922 152.988 283.826C154.447 292.547 161.242 296.734 161.64 296.972C156.756 301.452 154.766 308.079 155.163 313.087C155.642 319.157 161.004 323.16 161.853 323.769C158.72 326.579 157.474 330.316 159.172 335.962C161.136 342.456 170.85 349.214 172.443 350.301L172.47 351.308C170.426 352.793 169.417 353.853 170.692 355.946C172.23 358.491 174.487 357.298 175.973 356.609C176.344 356.45 176.903 356.133 177.512 355.735C177.433 356.769 177.061 358.783 175.336 361.433C173.372 364.429 174.301 367.635 175.947 368.033C177.645 368.43 181.309 367.238 183.007 364.217C186.749 357.537 185.953 351.599 185.449 349.373C191.447 342.429 190.28 335.67 189.829 333.365C189.35 330.952 187.413 328.355 187.041 327.851C201.587 322.497 199.225 306.833 198.136 302.592C197.366 299.597 194.553 296.257 192.854 294.427C200.393 287.988 199.092 280.645 197.87 276.537C197.366 274.814 196.544 273.303 195.668 272.031C210.744 266.464 210.134 252.39 208.222 244.121C207.214 239.827 204.799 236.806 202.648 234.897C223.379 223.765 218.627 209.16 216.849 203.621C216.079 201.208 214.487 198.744 212.92 196.756C223.245 193.443 229.536 188.937 233.57 184.908C235.561 182.921 237.419 179.13 238.507 174.571C239.94 174.174 240.764 173.67 240.764 173.67C240.127 173.325 239.516 172.928 238.932 172.477C239.118 171.338 239.277 170.171 239.356 168.978C243.258 172.742 247.638 175.181 252.575 176.056C262.263 177.752 268.208 170.993 268.208 170.993C260.458 167.388 254.194 160.285 254.194 160.285L254.725 159.383C254.725 159.383 267.015 170.171 277.233 170.171C292.522 170.171 296.291 162.83 296.291 162.83C287.585 163.439 283.231 156.998 283.231 156.998C307.385 169.429 319.091 154.003 319.091 154.003C302.29 155.063 294.485 143.375 294.485 143.375L295.229 142.765C328.672 158.483 337.219 137.517 337.219 137.517C333.609 138.868 326.709 138.259 326.709 138.259C334.485 135.37 347.969 120.554 347.969 120.554Z" fill="white"/>
<path d="M348.478 120.554C302.04 141.386 251.866 112.177 236.599 100.171C221.306 88.1904 210.995 88.0316 205.879 89.3829C200.79 90.7352 194.933 101.655 193.608 108.255C192.574 113.291 189.367 117.267 187.909 118.857L188.359 98.554C188.359 98.554 194.879 94.0484 193.289 84.2943C191.328 72.0754 181.336 69.7693 176.83 69.7693C172.323 69.7693 160.555 71.7302 160.343 85.3547C160.184 95.6916 166.042 99.2958 166.042 99.2958L166.837 127.127L166.916 129.671L166.943 131.049L166.969 132.348L167.023 133.78L167.049 134.787L167.208 140.591C167.182 140.645 167.182 140.698 167.155 140.777L166.996 135.157C166.864 135.874 166.625 136.642 166.466 137.49C166.148 139.346 164.319 140.962 164.319 140.962C164.319 140.962 164.399 140.035 164.346 137.119C164.293 134.204 162.967 134.416 163.312 135.211C163.656 136.006 163.763 141.837 163.763 141.837C163.868 141.386 161.059 137.464 160.29 136.112C159.495 134.76 159.946 133.409 161.748 131.951C162.04 131.712 162.332 131.606 162.649 131.527C163.073 132.799 162.967 133.806 162.967 133.806C163.259 132.639 162.994 131.898 162.781 131.5C162.835 131.5 162.915 131.473 162.967 131.473C164.505 132.614 165.221 133.673 165.221 133.673C165.034 132.614 163.922 131.844 163.206 131.447C164.797 131.473 166.466 132.826 166.466 132.826C166.704 133.063 166.837 133.302 166.943 133.567L166.916 132.348C162.437 130.969 162.517 126.332 162.623 125.033C162.861 125.563 163.339 126.173 164.346 126.517C164.346 126.517 163.285 125.934 162.649 124.742C162.649 124.688 162.649 124.662 162.649 124.662C162.781 124.715 162.888 124.767 163.02 124.794C163.603 125.43 164.16 126.12 164.16 126.12C163.895 125.616 163.524 125.191 163.206 124.874C164.797 125.457 165.936 126.199 166.731 127.021L166.519 119.625C166.519 119.625 161.457 114.881 160.105 108.281C158.753 101.682 152.922 90.7618 147.832 89.4096C142.744 88.0583 132.407 88.2171 117.113 100.197C101.846 112.151 51.672 141.36 5.23459 120.554C5.23459 120.554 18.7259 135.37 26.4915 138.232C26.4915 138.232 19.5998 138.842 15.9957 137.49C15.9957 137.49 24.5306 158.456 57.9264 142.739L58.6692 143.348C58.6692 143.348 50.877 155.036 34.0992 153.976C34.0992 153.976 45.7874 169.403 69.9077 156.972C69.9077 156.972 65.5608 163.412 56.8671 162.803C56.8671 162.803 60.6044 170.144 75.8978 170.144C86.0759 170.144 98.3737 159.357 98.3737 159.357L98.9044 160.258C98.9044 160.258 92.6489 167.362 84.909 170.966C84.909 170.966 90.8725 177.699 100.521 176.029C104.524 175.339 108.154 173.591 111.441 170.966C113.35 184.325 127.37 194.265 141.392 196.067C140.226 197.366 139.298 198.77 138.689 200.281C134.527 210.618 137.999 223.42 142.054 227.476C145.367 230.789 149.874 233.652 152.603 234.526C146.163 239.615 142.664 246.161 144.546 253.424C148.124 267.26 157.64 269.884 157.798 269.937C154.088 273.939 152.949 278.922 153.77 283.826C155.228 292.547 162.013 296.734 162.411 296.972C157.534 301.452 155.546 308.079 155.943 313.087C156.42 319.157 161.774 323.16 162.623 323.769C159.495 326.579 158.249 330.316 159.946 335.962C161.908 342.456 171.608 349.214 173.198 350.301L173.225 351.308C171.184 352.793 170.177 353.853 171.449 355.947C172.986 358.491 175.239 357.298 176.724 356.609C177.094 356.45 177.652 356.133 178.261 355.735C178.181 356.769 177.81 358.783 176.087 361.433C174.126 364.429 175.054 367.635 176.697 368.033C178.393 368.43 182.051 367.238 183.747 364.217C187.485 357.537 186.69 351.6 186.186 349.373C192.176 342.429 191.01 335.67 190.559 333.365C190.083 330.952 188.147 328.355 187.777 327.851C202.302 322.497 199.942 306.833 198.855 302.592C198.087 299.597 195.277 296.257 193.581 294.427C201.108 287.988 199.81 280.645 198.59 276.537C198.087 274.814 197.265 273.303 196.39 272.031C211.445 266.464 210.835 252.39 208.928 244.121C207.92 239.827 205.508 236.806 203.361 234.897C224.062 223.765 219.317 209.16 217.542 203.621C216.773 201.208 215.182 198.744 213.619 196.756C223.929 193.443 230.211 188.937 234.24 184.908C236.228 182.921 238.083 179.13 239.17 174.571C240.602 174.174 241.423 173.67 241.423 173.67C240.787 173.325 240.177 172.928 239.594 172.477C239.78 171.338 239.939 170.171 240.019 168.978C243.915 172.742 248.288 175.181 253.218 176.056C262.892 177.752 268.829 170.993 268.829 170.993C261.09 167.388 254.835 160.285 254.835 160.285L255.364 159.383C255.364 159.383 267.636 170.171 277.841 170.171C293.108 170.171 296.872 162.83 296.872 162.83C288.178 163.439 283.831 156.998 283.831 156.998C307.952 169.429 319.64 154.003 319.64 154.003C302.862 155.063 295.07 143.375 295.07 143.375L295.812 142.765C329.208 158.483 337.743 137.517 337.743 137.517C334.138 138.868 327.247 138.259 327.247 138.259C335.013 135.37 348.478 120.554 348.478 120.554ZM197.928 115.252C198.14 115.04 198.326 114.828 198.538 114.642C198.538 114.642 198.538 114.669 198.564 114.669C198.352 117.452 196.629 119.546 196.629 119.546C198.379 117.691 198.643 115.836 198.643 114.828C198.935 115.358 199.757 116.87 200.181 117.24C200.181 117.24 198.379 122.621 198.379 124.662C198.379 126.702 199.121 129.538 199.121 129.538C199.121 129.538 197.319 134.336 196.417 134.787C196.417 134.787 195.966 128.717 196.046 125.51C195.781 127.948 195.357 132.11 195.437 133.965C195.437 133.965 192.202 132.03 192.362 128.426C192.494 125.086 193.555 119.971 197.504 115.649C197.239 116.419 197 117.426 197 118.645C197.053 118.645 197.451 116.975 197.928 115.252ZM205.615 98.9781C205.986 98.7394 206.33 98.5806 206.648 98.5274C206.648 98.5274 206.674 98.6339 206.727 98.7927C206.542 99.8797 205.561 100.992 205.561 100.992C206.489 100.117 206.727 99.4289 206.781 99.0048C207.443 101.549 209.962 113.689 199.518 120.156C199.518 120.156 204.687 111.462 204.077 106.161C204.077 106.161 201.983 115.385 200.632 116.948C200.632 116.948 197.928 115.517 199.121 109.898C200.074 105.446 202.884 101.125 205.057 99.349C203.971 100.833 204.501 102.238 204.501 102.238C204.421 100.78 205.057 99.6676 205.615 98.9781ZM209.325 98.8982C209.537 98.6862 209.749 98.4741 209.935 98.2887C210.411 98.8983 210.969 99.7731 211.472 100.992C211.472 100.992 211.127 99.4555 210.04 98.1831C210.253 97.9444 210.411 97.7324 210.571 97.5469C212.956 99.0837 213.487 101.178 213.487 101.178C213.063 98.9515 211.552 97.8912 210.65 97.4404C210.915 97.0962 211.074 96.8575 211.074 96.8575C211.074 96.8575 214.52 97.467 215.05 100.913C215.58 104.359 215.209 111.012 213.036 113.582C213.036 113.582 212.956 108.123 212.293 106.93C211.631 105.737 211.764 115.173 211.764 115.173C211.764 115.173 208.238 112.469 208.106 109.474C207.92 106.479 208.292 99.8797 209.325 98.8982ZM216.455 98.7661C216.535 98.5806 216.905 98.3952 217.33 98.2354C217.834 99.1636 218.39 100.383 218.814 101.841C218.814 101.841 218.655 99.9852 217.568 98.1299C218.098 97.9444 218.629 97.7856 218.629 97.7856C218.629 97.7856 218.655 97.7856 218.681 97.7856C219.45 98.6073 220.457 99.8797 221.332 101.523C221.332 101.523 220.696 99.4289 218.999 97.7856C220.723 97.9178 227.905 99.5078 223.876 116.048C223.876 116.048 222.684 105.419 219.37 101.894C219.37 101.894 223.029 109.156 222.366 115.836C222.366 115.836 216.985 114.272 216.296 109.686C215.633 105.127 216.216 99.1902 216.455 98.7661ZM264.297 128.611C263.687 128.16 259.818 125.483 259.208 124.742C259.208 124.742 259.42 124.503 259.738 124.264C260.666 125.112 262.919 126.994 265.649 128.187L259.818 124.211L259.844 124.184C260.347 124.264 261.302 124.555 262.548 125.483C262.548 125.483 261.514 124.052 260.056 124.052C260.533 123.787 261.143 123.628 261.805 123.999C263.157 124.742 277.973 134.787 289.451 137.252C289.451 137.252 281.949 139.637 269.598 133.806C269.598 133.806 279.272 140.167 294.38 139.346C294.38 139.346 278.265 153.208 257.83 127.895C257.83 127.895 257.909 127.656 258.041 127.339C258.572 128.214 259.552 129.247 261.355 129.777C261.355 129.777 259.632 129.009 258.174 127.073C258.201 127.021 258.253 126.941 258.307 126.888C259.499 127.577 262.097 129.247 262.839 131.129C262.839 131.129 261.912 127.948 258.386 126.756C258.625 126.437 258.969 126.146 259.393 126.093C260.507 125.934 262.627 129.088 264.032 129.247C264.085 129.247 264.933 129.035 264.297 128.611ZM268.962 143.534C268.962 143.534 260.189 135.37 253.536 133.355C253.536 133.355 264.774 140.698 267.928 145.574C267.928 145.574 253.854 145.574 248.686 138.312C243.517 131.049 242.404 126.994 242.404 126.544C242.404 126.437 242.562 126.358 242.801 126.278C242.881 126.305 242.987 126.332 243.066 126.358C243.676 128.134 245.054 131.447 247.387 132.772C247.387 132.772 245.027 130.387 243.225 126.411C244.815 126.915 247.731 128.055 249.348 129.857C249.348 129.857 247.704 126.782 243.172 126.173C243.464 126.12 243.808 126.04 244.127 126.013C245.239 126.04 247.28 126.278 248.738 127.656C248.738 127.656 247.916 125.987 245.107 125.907C245.239 125.907 245.319 125.881 245.319 125.881C245.319 125.881 252.051 125.059 253.271 125.881C254.41 126.676 269.094 137.914 268.962 143.534ZM250.381 156.494C246.936 155.434 241.688 148.861 241.847 147.801C242.006 146.74 242.006 139.716 241.555 135.211C241.105 130.705 238.269 128.929 238.269 128.929L242.457 129.221C247.704 141.652 255.047 144.646 255.047 144.646C256.69 149.577 252.502 157.528 252.502 157.528C252.051 154.241 247.572 144.037 247.572 144.037C247.387 149.312 250.381 156.494 250.381 156.494ZM238.083 151.564C234.187 148.861 230.901 146.184 230.29 141.069C229.681 135.979 226.394 125.934 226.394 125.934C226.951 126.252 228.303 126.623 229.973 127.047C229.336 128.876 230.397 132.534 230.397 132.534C230.053 130.308 230.078 128.028 230.105 127.1H230.131C231.165 132.348 234.161 132.799 234.161 132.799C231.935 131.208 230.768 128.584 230.265 127.153C230.556 127.233 230.821 127.312 231.112 127.392C231.245 128.187 231.775 129.724 234.028 130.096C234.028 130.096 232.305 129.645 231.298 127.444C233.949 128.16 236.996 129.088 238.932 130.466C242.536 133.011 240.575 155.328 240.124 152.625C239.673 149.921 233.975 133.912 233.842 136.457C233.763 138.975 238.083 151.564 238.083 151.564ZM221.835 137.702C221.835 137.702 221.942 139.187 222.366 141.386C221.73 141.069 219.741 140.274 215.766 139.928C215.766 139.902 215.766 139.85 215.766 139.823C215.66 131.5 216.323 131.632 216.323 131.632C216.323 131.632 216.455 131.739 216.64 131.898C215.394 134.257 217.276 136.244 217.276 136.244C215.925 134.177 216.376 132.534 216.64 131.898L216.667 131.924C216.428 132.826 216.932 133.7 216.932 133.7C216.693 132.826 216.693 132.295 216.72 131.978C218.019 132.985 221.994 136.059 222.922 136.139C222.922 136.139 225.096 132.56 225.387 128.743C225.44 129.035 226.13 133.488 225.918 135.449C225.918 135.449 226.527 131.58 225.387 128.717C225.387 128.69 225.387 128.664 225.387 128.664C226.58 130.52 227.11 131.473 227.11 131.473C226.977 130.308 225.838 129.035 225.414 128.584C225.44 128.028 225.44 127.471 225.387 126.915C225.387 126.915 228.541 127.948 229.044 144.699C227.349 143.587 225.44 142.605 223.24 141.784C222.71 140.353 222.206 138.975 221.835 137.702ZM193.077 159.383C193.104 159.41 193.157 159.437 193.184 159.463C194.455 160.577 196.019 161.424 197.795 161.955C198.192 162.087 198.59 162.167 198.988 162.272C199.465 166.143 199.465 169.932 199.465 169.932C198.034 166.619 195.251 162.484 193.581 160.073C196.073 164.128 198.909 171.258 198.909 171.258C190.188 164.924 187.723 158.244 187.114 153.976L187.219 149.709C187.326 149.816 187.405 149.948 187.511 150.053C187.511 151.352 187.67 155.965 189.923 158.403C189.923 158.403 188.174 155.461 187.564 150.107C187.67 150.213 187.777 150.345 187.855 150.451C188.306 151.406 189.234 153.552 189.525 155.646C189.525 155.646 189.579 153.181 188.174 150.823C188.784 151.485 189.367 151.989 189.896 152.386C190.003 155.302 191.169 157.661 193.077 159.383ZM203.838 163.28C208.45 169.111 212.903 171.364 216.216 172.159C215.766 172.398 215.289 172.636 214.758 172.875C209.643 175.127 197.397 177.699 186.557 179.766L187.034 157.899C191.169 167.335 199.571 173.457 199.571 173.457C200.632 170.914 200.366 166.514 199.783 162.538C201.108 162.803 202.46 163.068 203.838 163.28ZM213.46 163.651C214.334 166.567 217.038 169.482 218.337 170.754C218.258 170.834 218.151 170.887 218.071 170.966C215.13 169.27 209.59 163.757 209.59 163.757C210.386 166.726 216.057 170.568 217.383 171.443C217.33 171.47 217.276 171.523 217.224 171.55C212.612 170.728 208.636 167.176 205.667 163.491C208.238 163.757 210.862 163.783 213.46 163.651ZM220.377 162.856C220.377 162.856 221.411 164.578 220.935 166.806C219.768 165.56 218.787 164.314 218.046 163.227C218.841 163.121 219.609 163.015 220.377 162.856ZM216.905 163.359C218.178 165.029 219.424 166.487 220.669 167.733C220.351 168.554 219.794 169.403 218.893 170.251C216.481 168.183 215.368 165.639 214.838 163.571C215.528 163.518 216.216 163.439 216.905 163.359ZM185.974 128.292L185.921 130.917L185.895 132.295V132.56L184.808 180.084C182.211 180.561 179.719 181.039 177.44 181.436V181.065L178.632 103.166C178.632 103.166 184.092 102.106 186.636 99.4289L185.974 128.292ZM189.923 151.406C188.969 150.557 187.882 149.392 187.273 148.013L187.352 144.249C188.121 145.706 189.049 146.184 189.049 146.184C188.438 145.574 187.855 144.355 187.379 143.188L187.405 141.44C187.75 142.155 188.174 143.109 188.359 143.692C188.359 143.692 188.253 142.42 187.405 141.121V141.095C188.227 141.837 189.817 143.242 190.135 143.321C190.135 143.321 192.256 139.001 193.82 137.464C192.282 140.83 193.421 142.871 193.421 142.871C192.997 141.095 193.66 138.551 194.084 137.225C194.243 137.093 194.403 136.986 194.535 136.961C194.535 136.961 194.827 137.173 195.224 137.543C195.251 138.471 195.251 139.77 195.066 141.227C195.066 141.227 195.595 139.796 195.383 137.676C196.152 138.392 197.212 139.558 197.743 140.91C197.768 141.015 197.795 141.121 197.822 141.227C192.786 142.579 190.268 145.521 189.896 151.167C189.923 151.247 189.923 151.326 189.923 151.406ZM197.133 136.351C196.894 134.045 197.928 133.063 199.2 132.851C199.624 134.681 200.234 137.331 200.234 137.331C200.26 135.291 199.677 133.647 199.333 132.826C199.518 132.799 199.677 132.799 199.862 132.799C201.108 134.707 202.566 137.41 202.566 137.41C201.824 135.131 200.499 133.435 199.942 132.799C201.506 132.826 203.202 133.673 203.521 134.442C204.183 136.006 208.45 138.153 208.45 138.153C208.45 138.153 207.549 135.9 211.472 129.274C211.472 129.274 211.737 129.247 212.135 129.274C211.976 130.201 211.844 131.792 212.293 133.249C212.293 133.249 212.081 131.606 212.241 129.274C212.32 129.274 212.4 129.274 212.505 129.301C212.559 130.308 212.744 132.268 213.512 133.249C213.512 133.249 212.929 131.871 212.585 129.301C213.539 129.379 214.865 129.671 215.182 130.625C215.686 132.003 215.474 136.801 214.255 139.85C210.889 139.69 206.356 139.85 200.34 140.75C199.783 140.83 199.253 140.936 198.75 141.042C197.901 139.425 197.292 137.808 197.133 136.351ZM226.315 108.387C227.825 111.833 229.973 112.072 229.973 112.072C228.303 111.409 227.03 109.447 226.368 108.176C226.713 106.85 227.004 106.002 227.004 106.002C227.084 106.029 227.164 106.055 227.216 106.082C227.932 107.221 229.019 110.375 229.019 110.375C228.859 108.281 228.595 107.116 228.409 106.479C242.086 111.78 241.45 126.729 241.45 126.729C237.023 124.715 229.019 113.026 229.019 113.026C227.959 118.194 240.707 128.452 240.707 128.452C229.761 126.941 225.891 124.105 225.043 119.228C224.512 116.021 225.546 111.25 226.315 108.387ZM242.138 115.597C245.743 121.587 255.471 124.582 255.471 124.582C243.199 126.385 239.435 115.146 238.242 113.052C237.05 110.958 229.548 105.419 228.197 104.517C227.401 103.988 225.997 102.636 225.467 101.655C225.785 102.026 226.289 102.477 227.137 102.954C227.137 102.954 226.05 102.265 225.282 101.151C225.255 101.046 225.282 100.939 225.334 100.86C226.342 101.47 229.124 103.298 230.29 105.127C230.29 105.127 228.568 102.159 225.36 100.807C225.494 100.648 225.758 100.595 226.235 100.648C228.78 100.939 235.221 108.149 239.276 111.144C243.332 114.139 256.955 122.541 256.955 122.541C249.931 123.177 242.138 115.597 242.138 115.597ZM216.826 114.113C217.118 114.59 217.409 115.146 217.727 115.783C217.727 115.783 217.488 115.013 217.064 114.192C220.06 115.067 224.115 116.948 224.407 120.712C225.334 133.037 222.949 133.488 222.949 133.488C221.676 132.056 218.549 119.652 218.549 119.652C218.178 123.548 221.915 134.707 221.915 134.707C221.915 134.707 215.766 130.969 213.592 126.702C211.419 122.436 213.884 113.53 213.884 113.53C213.884 113.53 214.308 113.582 214.97 113.715C215.077 114.642 215.157 116.048 215.05 117.505C215.05 117.505 215.368 115.305 215.182 113.768C215.394 113.821 215.606 113.847 215.845 113.901C216.243 114.881 216.667 116.259 216.747 117.929C216.747 117.929 216.932 115.836 216.137 113.98C216.349 114.006 216.588 114.059 216.826 114.113ZM209.06 113.37C209.564 115.279 209.192 118.194 209.192 118.194C209.802 117.002 209.723 115.12 209.59 113.954C211.71 116.631 212.029 121.666 211.737 125.351C211.366 130.069 207.39 134.787 207.39 134.787C206.33 132.003 206.648 120.554 206.648 120.554C204.554 126.464 206.356 135.316 206.356 135.316C200.074 133.143 197.239 123.363 200.446 120.554C207.046 114.776 207.337 112.311 207.337 112.311C207.364 112.311 207.39 112.336 207.417 112.336C208.026 114.934 207.576 118.989 207.576 118.989C208.344 117.134 208.132 114.033 207.973 112.575C208.344 112.787 208.716 113.052 209.06 113.37ZM193.421 136.139C192.626 137.49 189.817 141.413 189.949 141.864C189.949 141.864 190.056 136.032 190.4 135.237C190.744 134.442 189.42 134.23 189.367 137.146C189.313 140.062 189.393 140.989 189.393 140.989C189.393 140.989 188.094 139.823 187.511 138.338L187.643 132.614C188.227 132.215 189.393 131.527 190.532 131.5C189.791 131.898 188.704 132.639 188.518 133.726C188.518 133.726 189.234 132.639 190.771 131.527C190.824 131.527 190.904 131.527 190.957 131.553C190.744 131.951 190.48 132.693 190.771 133.859C190.771 133.859 190.692 132.878 191.09 131.58C191.407 131.632 191.726 131.765 191.99 132.003C193.767 133.435 194.217 134.787 193.421 136.139ZM190.666 124.821C190.798 124.767 190.904 124.715 191.036 124.688C191.036 124.688 191.036 124.715 191.036 124.767C190.4 125.934 189.34 126.544 189.34 126.544C190.347 126.199 190.824 125.563 191.063 125.059C191.169 126.278 191.222 130.387 187.591 132.056L187.643 129.883C188.545 128.664 189.525 127.471 189.896 127.259C189.896 127.259 188.837 127.763 187.643 128.797L187.697 126.358C188.413 125.828 189.313 125.325 190.454 124.9C190.108 125.218 189.764 125.642 189.499 126.146C189.552 126.12 190.083 125.43 190.666 124.821ZM166.492 91.0262C158.992 81.5908 164.69 70.803 177.889 71.2538C191.063 71.7045 194.217 87.5809 190.32 92.8292C186.424 98.0766 178.923 98.8193 178.923 98.8193C186.557 95.9826 187.326 90.4433 187.326 90.4433C186.107 93.5976 173.993 100.489 166.492 91.0262ZM167.235 141.413L168.269 178.016C152.154 177.487 143.168 174.915 138.211 171.947C141.551 170.966 145.871 168.501 150.324 162.696C151.623 162.458 152.869 162.087 154.035 161.584C153.373 165.771 152.975 170.702 154.114 173.405C154.114 173.405 164.001 166.222 167.606 155.434L167.208 141.731C167.208 141.652 167.235 141.519 167.235 141.413ZM132.646 161.504C132.646 161.504 134.077 161.901 136.276 162.299C135.481 163.545 134.394 165.056 132.99 166.567C131.744 163.757 132.646 161.504 132.646 161.504ZM137.443 162.511C137.946 162.591 138.503 162.67 139.06 162.75C138.689 164.79 137.707 167.547 135.349 169.8C134.474 168.978 133.838 168.157 133.387 167.362C134.713 166.01 136.064 164.393 137.443 162.511ZM136.886 171.073C138.794 169.773 143.407 166.434 144.122 163.757C144.122 163.757 139.298 168.581 136.25 170.595C136.117 170.49 135.985 170.383 135.852 170.277C137.39 168.713 139.908 165.771 140.438 162.935C142.929 163.2 145.739 163.306 148.469 162.988C145.633 166.619 141.79 170.251 137.31 171.39C137.178 171.258 137.019 171.178 136.886 171.073ZM157.137 159.728C159.416 157.793 160.794 155.699 161.43 153.605C162.569 153.288 163.922 152.572 165.538 150.849C164.16 153.208 164.187 155.673 164.187 155.673C164.478 153.605 165.433 151.432 165.856 150.477C165.962 150.372 166.042 150.265 166.148 150.133C165.538 155.487 163.789 158.429 163.789 158.429C166.042 155.991 166.201 151.379 166.201 150.08C166.333 149.921 166.466 149.762 166.599 149.604C166.599 149.604 169.064 160.948 154.804 171.285C154.804 171.285 157.64 164.128 160.131 160.099C158.435 162.484 155.679 166.646 154.247 169.959C154.247 169.959 154.248 165.453 154.883 161.239C155.679 160.789 156.447 160.311 157.137 159.728ZM163.551 143.321C163.895 143.242 165.512 141.784 166.333 141.042C165.458 142.367 165.353 143.692 165.353 143.692C165.592 142.897 166.28 141.466 166.599 140.803C166.731 140.698 166.811 140.618 166.811 140.618C166.811 140.618 166.864 140.962 166.891 141.625C166.387 143.109 165.565 145.257 164.663 146.157C164.663 146.157 166.148 145.389 166.916 142.765C166.943 143.587 166.943 144.646 166.891 145.998C166.784 149.816 161.96 152.73 161.96 152.73C161.96 152.73 161.854 152.598 161.695 152.333C162.357 148.198 160.131 144.17 155.838 141.44C155.838 141.227 155.864 141.042 155.916 140.883C156.474 139.531 157.534 138.365 158.276 137.649C158.064 139.77 158.594 141.201 158.594 141.201C158.408 139.743 158.382 138.444 158.435 137.517C158.832 137.146 159.124 136.934 159.124 136.934C159.256 136.986 159.416 137.066 159.575 137.198C159.999 138.524 160.687 141.069 160.238 142.844C160.238 142.844 161.404 140.83 159.84 137.437C161.43 139.001 163.551 143.321 163.551 143.321ZM154.539 140.723C151.279 139.028 145.474 137.994 139.06 138.789C138.158 135.794 138.053 131.844 138.503 130.599C138.848 129.645 140.147 129.353 141.1 129.274C140.756 131.844 140.172 133.223 140.172 133.223C140.942 132.215 141.127 130.281 141.18 129.274C141.259 129.274 141.366 129.274 141.445 129.247C141.604 131.58 141.392 133.223 141.392 133.223C141.842 131.765 141.683 130.174 141.551 129.247C141.949 129.247 142.214 129.247 142.214 129.247C146.137 135.874 145.235 138.126 145.235 138.126C145.235 138.126 149.502 135.979 150.165 134.416C150.51 133.647 152.18 132.799 153.743 132.772C153.187 133.409 151.862 135.105 151.12 137.385C151.12 137.385 152.578 134.681 153.823 132.772C154.009 132.772 154.168 132.799 154.353 132.799C154.009 133.621 153.425 135.264 153.452 137.305C153.452 137.305 154.061 134.654 154.485 132.826C155.784 133.063 156.818 134.018 156.553 136.324C156.394 137.782 155.784 139.346 154.936 140.936C154.83 140.883 154.697 140.803 154.539 140.723ZM130.764 140.936C128.669 141.757 126.629 142.844 124.64 144.17C125.224 127.895 128.299 126.888 128.299 126.888C128.245 127.444 128.245 128.002 128.272 128.558C127.848 129.009 126.682 130.308 126.575 131.447C126.575 131.447 127.106 130.466 128.299 128.638C128.299 128.664 128.299 128.69 128.299 128.69C127.185 131.527 127.768 135.423 127.768 135.423C127.556 133.461 128.245 129.009 128.299 128.717C128.616 132.507 130.764 136.112 130.764 136.112C131.691 136.006 135.693 132.958 136.966 131.951C136.992 132.268 136.966 132.826 136.754 133.673C136.754 133.673 137.258 132.799 137.019 131.898L137.046 131.871C137.31 132.507 137.761 134.15 136.409 136.218C136.409 136.218 138.291 134.204 137.046 131.871C137.258 131.712 137.363 131.606 137.363 131.606C137.363 131.606 137.999 131.527 137.919 138.948C135.8 139.292 133.599 139.823 131.453 140.645C131.771 138.842 131.85 137.676 131.85 137.676C131.585 138.709 131.188 139.823 130.764 140.936ZM119.817 136.43C119.657 133.885 113.986 149.921 113.535 152.598C113.084 155.302 111.15 132.985 114.727 130.44C116.663 129.062 119.71 128.134 122.361 127.419C121.354 129.618 119.632 130.069 119.632 130.069C121.884 129.724 122.414 128.187 122.547 127.365C122.838 127.285 123.13 127.207 123.394 127.127C122.891 128.558 121.726 131.182 119.498 132.772C119.498 132.772 122.494 132.322 123.528 127.073H123.554C123.581 128.002 123.633 130.281 123.262 132.507C123.262 132.507 124.323 128.876 123.686 127.021C125.356 126.597 126.708 126.225 127.265 125.907C127.265 125.907 123.978 135.952 123.369 141.042C122.759 146.131 119.472 148.834 115.576 151.538C115.629 151.564 119.976 138.975 119.817 136.43ZM111.892 147.801C112.05 148.861 106.803 155.434 103.357 156.494C103.357 156.494 106.352 149.312 106.193 144.063C106.193 144.063 101.687 154.241 101.263 157.555C101.263 157.555 97.0757 149.604 98.7189 144.673C98.7189 144.673 106.06 141.678 111.309 129.247L115.497 128.955C115.497 128.955 112.66 130.758 112.209 135.237C111.733 139.716 111.733 146.767 111.892 147.801ZM85.8106 145.574C88.9649 140.698 100.202 133.355 100.202 133.355C93.5505 135.37 84.7769 143.534 84.7769 143.534C84.6181 137.914 99.3019 126.676 100.494 125.854C101.687 125.033 108.446 125.854 108.446 125.854C108.446 125.854 108.525 125.854 108.658 125.881C105.848 125.961 105.027 127.631 105.027 127.631C106.484 126.252 108.525 126.013 109.639 125.987C109.956 126.04 110.302 126.093 110.593 126.146C106.06 126.756 104.417 129.83 104.417 129.83C106.06 128.028 108.949 126.888 110.54 126.385C108.764 130.36 106.379 132.746 106.379 132.746C108.711 131.42 110.09 128.107 110.699 126.332C110.805 126.305 110.885 126.278 110.964 126.252C111.202 126.332 111.362 126.411 111.362 126.517C111.362 126.968 110.248 131.023 105.08 138.285C99.9115 145.574 85.8106 145.574 85.8106 145.574ZM59.3053 139.346C74.4399 140.167 84.0874 133.806 84.0874 133.806C71.7363 139.637 64.2351 137.252 64.2351 137.252C75.6857 134.787 90.5283 124.742 91.8806 123.999C92.5168 123.655 93.152 123.787 93.6294 124.052C92.1716 124.052 91.1379 125.483 91.1379 125.483C92.4102 124.555 93.3384 124.264 93.8414 124.184L93.8681 124.211L88.0368 128.187C90.767 126.994 93.0198 125.112 93.948 124.264C94.2656 124.503 94.4776 124.742 94.4776 124.742C93.8681 125.457 89.9986 128.16 89.389 128.611C88.7795 129.062 89.6011 129.247 89.6011 129.247C91.0323 129.088 93.1264 125.961 94.239 126.093C94.6631 126.146 95.0073 126.437 95.246 126.756C91.7208 127.948 90.7936 131.129 90.7936 131.129C91.5354 129.247 94.1334 127.577 95.3259 126.888C95.3792 126.941 95.4058 127.021 95.4581 127.073C94.0269 129.009 92.2781 129.777 92.2781 129.777C94.0801 129.247 95.0606 128.214 95.5912 127.339C95.75 127.656 95.8033 127.895 95.8033 127.895C75.4204 153.208 59.3053 139.346 59.3053 139.346ZM135.057 97.7856C135.084 97.7856 135.11 97.7856 135.11 97.7856C135.11 97.7856 135.64 97.9178 136.171 98.1299C135.11 99.9586 134.925 101.841 134.925 101.841C135.322 100.383 135.905 99.1636 136.409 98.2354C136.807 98.3952 137.178 98.5806 137.283 98.7661C137.495 99.2168 138.105 105.127 137.443 109.713C136.78 114.298 131.373 115.861 131.373 115.861C130.71 109.21 134.368 101.92 134.368 101.92C131.081 105.446 129.862 116.074 129.862 116.074C125.834 99.5344 132.99 97.9711 134.74 97.8123C133.043 99.4555 132.407 101.549 132.407 101.549C133.282 99.8797 134.289 98.6073 135.057 97.7856ZM143.168 97.5469C143.327 97.7324 143.485 97.9444 143.698 98.1831C142.612 99.4555 142.266 100.992 142.266 100.992C142.77 99.7731 143.327 98.8983 143.804 98.2887C143.99 98.5008 144.202 98.6862 144.414 98.8982C145.474 99.8797 145.845 106.453 145.686 109.447C145.527 112.443 142.029 115.146 142.029 115.146C142.029 115.146 142.187 105.71 141.498 106.903C140.835 108.096 140.756 113.556 140.756 113.556C138.582 111.012 138.211 104.332 138.741 100.887C139.272 97.4404 142.717 96.8308 142.717 96.8308C142.717 96.8308 142.876 97.0695 143.141 97.4138C142.214 97.8645 140.703 98.8982 140.305 101.151C140.226 101.178 140.783 99.0837 143.168 97.5469ZM146.958 99.0048C147.011 99.4289 147.249 100.092 148.178 100.992C148.178 100.992 147.197 99.8797 147.011 98.7927C147.064 98.6339 147.091 98.5274 147.091 98.5274C147.383 98.5806 147.753 98.7394 148.124 98.9781C148.681 99.6676 149.317 100.78 149.211 102.238C149.211 102.238 149.768 100.833 148.655 99.349C150.828 101.125 153.664 105.472 154.592 109.898C155.784 115.517 153.081 116.948 153.081 116.948C151.729 115.385 149.635 106.161 149.635 106.161C149.026 111.489 154.194 120.156 154.194 120.156C143.777 113.689 146.296 101.575 146.958 99.0048ZM146.163 118.989C146.163 118.989 145.713 114.934 146.322 112.336C146.349 112.336 146.375 112.311 146.401 112.311C146.401 112.311 146.693 114.776 153.293 120.554C156.5 123.363 153.664 133.143 147.383 135.316C147.383 135.316 149.185 126.49 147.091 120.554C147.091 120.554 147.383 132.003 146.349 134.787C146.349 134.787 142.373 130.069 142.002 125.351C141.71 121.666 142.029 116.657 144.148 113.954C144.016 115.12 143.963 117.028 144.546 118.194C144.546 118.194 144.148 115.279 144.679 113.37C145.023 113.052 145.367 112.787 145.792 112.575C145.633 114.033 145.394 117.161 146.163 118.989ZM136.966 117.877C137.046 116.207 137.47 114.828 137.867 113.847C138.105 113.794 138.317 113.742 138.529 113.715C138.317 115.279 138.662 117.479 138.662 117.479C138.529 116.021 138.636 114.616 138.741 113.689C139.404 113.556 139.828 113.503 139.828 113.503C139.828 113.503 142.293 122.409 140.12 126.676C137.946 130.944 131.797 134.681 131.797 134.681C131.797 134.681 135.535 123.522 135.164 119.625C135.164 119.625 132.036 132.03 130.764 133.461C130.764 133.461 128.378 132.985 129.306 120.686C129.598 116.922 133.653 115.04 136.647 114.166C136.224 115.013 135.985 115.756 135.985 115.756C136.303 115.12 136.595 114.563 136.886 114.086C137.124 114.006 137.363 113.954 137.575 113.901C136.78 115.809 136.966 117.877 136.966 117.877ZM113.005 128.479C113.005 128.479 125.727 118.221 124.693 113.052C124.693 113.052 116.689 124.742 112.263 126.756C112.263 126.756 111.626 111.807 125.303 106.506C125.118 107.141 124.852 108.281 124.693 110.402C124.693 110.402 125.78 107.221 126.496 106.107C126.575 106.082 126.655 106.055 126.708 106.029C126.708 106.029 127 106.877 127.344 108.202C126.682 109.447 125.383 111.409 123.74 112.099C123.74 112.099 125.913 111.86 127.397 108.414C128.165 111.25 129.199 116.048 128.643 119.281C127.848 124.131 123.952 126.994 113.005 128.479ZM128.352 100.86C128.404 100.939 128.404 101.046 128.404 101.151C127.636 102.265 126.549 102.954 126.549 102.954C127.397 102.477 127.901 102.026 128.219 101.655C127.716 102.636 126.284 103.988 125.488 104.517C124.137 105.419 116.663 110.958 115.444 113.052C114.251 115.146 110.514 126.385 98.2149 124.582C98.2149 124.582 107.942 121.587 111.547 115.597C111.547 115.597 103.754 123.151 96.7305 122.488C96.7305 122.488 110.354 114.113 114.41 111.091C118.465 108.096 124.906 100.913 127.45 100.595C127.928 100.542 128.192 100.621 128.325 100.754C125.144 102.106 123.394 105.074 123.394 105.074C124.561 103.298 127.37 101.47 128.352 100.86ZM158.249 133.965C158.356 132.11 157.932 127.948 157.64 125.51C157.719 128.743 157.269 134.787 157.269 134.787C156.367 134.336 154.565 129.538 154.565 129.538C154.565 129.538 155.307 126.702 155.307 124.662C155.307 122.621 153.505 117.24 153.505 117.24C153.929 116.87 154.751 115.358 155.043 114.828C155.043 115.836 155.307 117.691 157.057 119.546C157.057 119.546 155.36 117.452 155.121 114.669L155.148 114.642C155.36 114.854 155.572 115.04 155.758 115.252C156.235 117.002 156.633 118.645 156.633 118.645C156.633 117.453 156.394 116.419 156.129 115.649C160.078 119.971 161.138 125.086 161.271 128.426C161.457 132.003 158.249 133.965 158.249 133.965ZM19.9184 140.989C29.7257 146.237 41.5727 143.321 41.5727 143.321C30.9448 144.965 20.528 139.266 20.528 139.266C23.2315 139.187 29.5925 139.107 29.5925 139.107C36.2455 141.042 48.2257 140.459 50.7971 140.008C53.7394 139.478 55.0374 140.247 55.647 140.962C52.8379 140.326 50.2664 141.598 50.2664 141.598C52.97 140.857 54.7731 140.909 55.7002 141.042C55.7269 141.095 55.7535 141.121 55.7802 141.174C53.0233 141.227 50.877 142.924 50.877 142.924C53.1565 141.732 54.852 141.36 55.8334 141.254C56.0711 141.678 56.1244 142.022 56.1244 142.022C30.1755 155.143 19.9184 140.989 19.9184 140.989ZM48.2257 138.975C24.3974 142.261 13.9283 127.365 13.9283 127.365C59.5441 145.786 89.972 119.944 89.972 119.944C45.0457 146.688 12.6825 124.45 12.6825 124.45C56.946 140.406 105.371 111.091 114.463 103.776C123.554 96.46 136.488 89.6216 144.467 90.7352C152.445 91.8478 156.155 102.185 158.515 110.057C160.874 117.929 166.042 121.641 166.042 121.641L165.962 125.51C162.676 124.317 159.23 120.871 156.367 111.436C153.531 101.999 147.541 95.5585 141.392 95.2675C135.243 94.9755 128.352 96.6188 118.915 105.763C109.48 114.908 93.152 122.25 93.152 122.25C80.1381 130.281 72.0273 135.688 48.2257 138.975ZM50.1076 160.736C50.1076 160.736 57.741 160.073 60.5511 157.82C60.5511 157.82 47.2452 162.962 36.9349 156.282C36.9349 156.282 57.529 161.16 65.0568 150.955C65.0568 150.955 53.3419 159.49 38.6571 155.673C38.6571 155.673 54.1635 157.476 59.4375 149.604C59.4375 149.604 52.9177 154.984 43.9321 154.321C43.9321 154.321 52.5725 153.526 59.6496 144.329C59.6496 144.329 62.1145 142.765 64.4738 143.984C66.8322 145.23 70.7559 145.097 71.8951 144.779C72.5846 144.567 79.7672 142.288 82.4442 142.977C77.3556 143.242 73.4595 148.251 73.4595 148.251C77.5676 144.726 81.0662 143.534 82.5507 143.136C79.6617 147.907 77.3023 149.444 76.7194 149.762C79.926 148.278 81.9145 144.779 82.7095 143.109H82.7361C84.0341 143.772 83.9286 146.211 81.4105 147.376C81.4371 147.35 68.8473 161.504 50.1076 160.736ZM59.6496 164.658C59.6496 164.658 73.353 167.123 83.4779 158.483C83.4779 158.483 74.3867 164.446 62.3532 163.545C62.3532 163.545 69.7745 160.841 72.1338 157.713C74.4932 154.56 80.4567 150.08 82.5763 149.285C82.5763 149.285 87.295 147.138 88.4076 146.714C89.5212 146.264 97.2611 145.892 97.5255 145.866C97.5255 145.866 97.5255 145.866 97.5255 145.892C97.4199 145.892 97.2868 145.919 97.1013 145.945C97.2611 145.919 97.3933 145.919 97.5255 145.892V145.919C90.8469 147.588 91.4298 152.333 91.4298 152.333C91.9595 148.41 96.4918 146.369 97.5255 145.945C97.3134 148.013 96.6772 152.359 94.743 154.798C94.743 154.798 97.0491 153.129 97.5255 147.562C97.7642 151.087 99.3019 157.237 99.3019 157.237C99.3019 157.237 80.0858 178.15 59.6496 164.658ZM97.0491 164.102C99.514 161.743 101.423 158.932 101.423 158.932C104.524 157.899 110.328 151.803 111.282 150.769C110.248 152.042 107.571 155.461 106.935 157.476C106.935 157.476 108.976 154.375 111.414 150.716C111.521 152.254 111.468 155.461 109.427 157.847C109.427 157.847 111.918 155.752 111.733 152.095C112.13 153.261 112.793 154.56 112.793 154.56C113.376 154.533 114.595 154.003 115.894 153.393C115.046 154.719 114.277 156.15 113.562 157.713C113.535 157.793 113.508 157.873 113.482 157.925C111.229 160.629 100.706 172.186 87.1885 170.277C87.1619 170.277 94.2922 166.752 97.0491 164.102ZM93.3384 175.446C93.3384 175.446 99.5662 175.048 102.032 171.019C102.032 171.019 97.2611 174.279 89.6268 172.08C89.6268 172.08 103.649 172.557 113.323 158.244C111.626 162.193 111.043 165.983 111.309 169.561C104.656 175.127 100.044 175.843 93.3384 175.446ZM116.477 174.915C116.133 174.253 115.814 173.591 115.522 172.901C115.497 172.848 115.497 172.796 115.47 172.742C115.337 172.398 115.178 172.053 115.073 171.682C114.701 170.622 114.41 169.535 114.198 168.474C114.118 168.025 114.039 167.574 113.986 167.123C113.879 166.328 113.8 165.533 113.774 164.764C113.641 160.365 115.099 156.177 117.616 152.493C119.446 149.816 121.831 147.403 124.615 145.416C126.363 144.143 128.272 143.056 130.259 142.181C130.605 142.022 130.949 141.89 131.293 141.731C133.44 140.857 135.693 140.22 137.973 139.85C138.45 139.77 138.901 139.716 139.377 139.664C142.161 139.346 144.97 139.425 147.727 139.982C150.324 140.511 152.524 141.281 154.3 142.181C155.069 142.579 155.784 143.003 156.394 143.454C159.256 145.521 160.555 148.039 160.396 150.477C160.317 151.697 159.892 152.863 159.151 153.924C158.965 154.188 158.78 154.427 158.541 154.666C158.461 154.772 158.356 154.851 158.276 154.931C158.064 155.17 157.798 155.382 157.561 155.594C157.481 155.673 157.374 155.726 157.295 155.806C156.898 156.123 156.447 156.415 155.97 156.68C155.625 156.865 155.281 157.052 154.909 157.21C154.538 157.369 154.114 157.528 153.717 157.688C153.214 157.873 152.683 158.032 152.1 158.164C151.968 158.191 151.862 158.217 151.756 158.244C147.859 159.171 144.44 159.357 141.604 159.171C140.384 159.092 139.272 158.959 138.291 158.8C137.231 158.615 136.33 158.403 135.561 158.191C135.455 158.164 135.349 158.137 135.243 158.085C134.103 157.74 133.334 157.422 133.016 157.264C132.911 157.21 132.831 157.184 132.804 157.157C130.605 161.424 130.631 164.844 132.088 167.574C132.221 167.839 132.38 168.077 132.539 168.316C133.07 169.137 133.758 169.907 134.527 170.595C134.713 170.754 134.898 170.914 135.084 171.073C135.137 171.126 135.19 171.152 135.243 171.205C135.72 171.602 136.25 171.947 136.807 172.318C146.985 178.706 167.182 178.838 168.347 178.838C168.374 178.838 168.401 178.838 168.401 178.838V180.853V183.159C168.11 183.212 167.844 183.291 167.606 183.318C165.034 183.901 159.946 185.279 154.671 187.479C144.255 186.897 129.995 184.219 122.229 174.518C121.937 174.147 121.646 173.776 121.38 173.379C121.195 173.113 121.009 172.821 120.824 172.53C120.427 171.894 120.029 171.258 119.684 170.568C119.34 169.907 119.022 169.217 118.73 168.474C118.624 168.21 118.518 167.971 118.412 167.706C118.067 166.752 117.75 165.745 117.511 164.712C117.431 164.34 117.352 163.995 117.272 163.625C116.98 162.22 116.795 160.709 116.716 159.119C116.716 159.119 116.238 161.292 116.53 164.473C116.556 164.87 116.609 165.294 116.689 165.719C116.848 166.752 117.087 167.891 117.458 169.058C117.538 169.323 117.643 169.615 117.723 169.88C117.882 170.33 118.067 170.807 118.253 171.258C118.518 171.868 118.81 172.477 119.154 173.087C119.26 173.272 119.34 173.432 119.446 173.617C119.684 174.015 119.949 174.439 120.214 174.836C123.316 179.501 128.882 184.166 138.715 187.161C142.717 188.38 146.375 189.228 149.635 189.786C148.416 190.447 147.249 191.137 146.137 191.905C130.127 189.626 120.718 182.867 116.477 174.915ZM185.178 242.902C188.572 243.776 195.515 249.289 195.437 251.834C195.357 254.696 193.13 257.321 184.781 259.865L185.178 242.902ZM182.926 260.395C180.487 261.058 177.598 261.72 174.205 262.383C174.02 255.757 173.835 249.262 173.649 243.087C176.565 242.345 179.268 241.762 180.832 241.365C181.468 241.205 182.343 240.967 183.376 240.702L182.926 260.395ZM170.575 258.009C168.798 257.214 158.992 252.629 160.502 249.157C161.377 247.169 165.645 245.446 170.177 244.094L170.575 258.009ZM174.656 278.074C176.909 277.518 179.586 276.908 182.555 276.14L182.29 287.086C180.355 288.093 177.837 289.259 175 290.479C174.921 286.423 174.788 282.262 174.656 278.074ZM184.357 280.062C185.761 280.725 187.538 282.819 186.133 284.621C185.841 284.992 185.179 285.496 184.225 286.052L184.357 280.062ZM172.774 335.696C172.138 335.326 171.051 334.584 169.938 333.417C168.374 331.747 169.646 331.615 172.642 331.429L172.774 335.696ZM176.538 337.737C176.485 336.439 176.406 334.08 176.273 330.925C177.864 330.608 179.666 330.157 181.336 329.733L180.99 344.788C179.878 346.033 178.473 347.332 176.909 348.631C176.909 348.631 176.909 348.631 176.882 348.658C176.803 346.167 176.75 342.668 176.538 337.737ZM183.058 338.4C184.278 338.957 184.092 340.388 182.979 342.191L183.058 338.4ZM183.191 359.022C180.965 363.819 178.764 365.303 177.652 363.951C176.803 362.918 177.81 361.248 178.632 360.055C180.037 358.015 180.249 356.185 179.851 354.727C181.282 353.773 182.581 352.819 182.581 352.819C183.244 352.289 183.854 351.759 184.41 351.228C184.675 352.952 184.702 355.787 183.191 359.022ZM189.949 336.094C190.454 341.528 187.67 346.325 181.336 351.176C180.965 351.467 180.566 351.759 180.143 352.05C179.745 352.342 179.321 352.634 178.897 352.925C178.579 353.137 178.235 353.376 177.889 353.588C177.837 353.614 177.81 353.641 177.757 353.668C174.391 355.841 173.49 355.602 173.013 354.966C172.165 353.853 173.172 352.952 174.1 352.448C174.603 352.183 175.69 351.388 177.015 350.328C177.386 350.009 177.784 349.692 178.181 349.346C179.056 348.605 179.957 347.783 180.778 346.935C180.832 346.882 180.885 346.829 180.938 346.776C181.441 346.272 181.892 345.769 182.316 345.292C184.834 342.323 188.359 336.015 183.218 332.49C183.032 332.357 182.846 332.224 182.635 332.119L182.66 331.456C182.872 331.508 183.058 331.588 183.244 331.668C186.107 332.966 186.663 337.128 186.663 337.128C186.769 333.019 184.383 330.952 183.27 330.21C182.952 329.998 182.74 329.892 182.74 329.892L182.767 329.468V329.335C182.952 329.282 183.111 329.229 183.297 329.203C183.774 329.07 184.225 328.965 184.596 328.831C185.683 328.54 186.371 328.328 186.371 328.328C186.451 328.302 186.531 328.275 186.61 328.248C188.015 330.025 189.632 332.702 189.949 336.094ZM196.285 300.153C198.034 302.724 200.923 314.36 192.626 320.483C189.552 322.762 186.371 323.982 183.35 324.723C182.714 324.882 182.051 325.015 181.415 325.147C179.533 325.518 177.757 325.73 176.087 325.942C174.788 326.102 173.596 326.288 172.483 326.526C170.575 326.949 168.984 327.586 167.898 328.779C164.797 332.198 171.343 336.147 172.801 336.942C172.96 337.049 173.066 337.101 173.066 337.101V343.834C173.066 343.834 173.04 343.834 172.986 343.807C172.191 343.516 164.875 340.547 161.271 333.948C158.435 328.752 162.781 324.272 168.269 321.675C168.931 321.357 169.593 321.092 170.283 320.827C170.68 320.668 171.104 320.535 171.502 320.403C171.74 320.323 171.979 320.244 172.218 320.191C172.245 320.191 172.297 320.164 172.323 320.164C172.986 319.979 173.649 319.82 174.312 319.688C174.815 319.581 175.346 319.476 175.902 319.369C177.784 318.972 179.745 318.521 181.6 317.938C182.263 317.726 182.899 317.514 183.509 317.275C187.379 315.817 190.48 313.645 190.824 310.119C191.328 304.898 188.677 301.611 185.656 299.198C185.1 298.749 184.516 298.325 183.933 297.927C183.615 297.715 183.297 297.503 183.006 297.291C182.872 297.211 182.74 297.105 182.608 297.026C182.608 297.026 182.979 296.893 183.535 296.734C183.615 296.76 183.694 296.813 183.88 296.893C183.906 296.893 183.933 296.919 183.959 296.919C184.569 297.184 185.683 297.715 186.902 298.616C188.677 299.888 190.692 301.929 191.726 304.951C191.726 304.951 192.494 302.035 188.253 297.927C187.617 297.291 186.848 296.655 185.948 295.965C186.424 295.806 186.875 295.673 187.167 295.568C188.359 295.197 190.612 294.136 191.01 293.845C191.01 293.845 191.566 294.454 192.362 295.329C193.633 296.813 195.463 298.907 196.285 300.153ZM183.801 304.368C189.075 306.011 191.434 311.868 185.868 315.208C185.125 315.659 184.357 316.03 183.535 316.348L183.801 304.368ZM181.627 316.984C179.798 317.541 177.864 317.938 175.875 318.336C175.743 313.671 175.558 308.423 175.398 302.804C176.353 302.459 177.413 302.114 178.552 301.77C179.771 301.399 180.912 301.028 181.998 300.656L181.627 316.984ZM172.244 316.958C169.992 315.791 160.529 309.881 171.873 304.288L172.244 316.958ZM197.185 275.769C198.431 279.532 198.246 289.207 190.454 293.262C188.704 294.19 186.424 294.958 183.986 295.727C183.35 295.912 182.74 296.124 182.077 296.309C179.798 296.999 177.465 297.741 175.239 298.589C174.02 299.066 172.827 299.57 171.74 300.127C167.898 302.114 165.061 304.765 164.982 308.82C164.849 314.174 170.733 317.249 172.244 317.938C172.483 318.044 172.615 318.097 172.615 318.097L172.509 319.077C172.43 319.104 172.35 319.104 172.297 319.131C169.912 319.74 167.552 320.51 165.433 321.755C162.013 318.866 158.62 314.996 158.249 310.914C157.507 302.538 161.986 296.681 168.586 294.137C168.825 294.057 169.063 293.951 169.302 293.871C169.62 293.739 169.965 293.606 170.309 293.474C170.654 293.342 171.025 293.208 171.396 293.05C171.449 293.023 171.502 292.996 171.555 292.996C171.714 292.917 171.899 292.864 172.059 292.784C173.013 292.413 174.02 292.016 175.054 291.592C177.545 290.558 180.09 289.445 182.29 288.305C182.952 287.961 183.589 287.589 184.198 287.245C186.292 285.972 187.777 284.7 188.068 283.534C188.863 280.38 187.803 277.093 185.709 275.345C185.417 275.106 185.125 274.894 184.781 274.708V274.124C185.524 274.39 186.186 274.708 186.743 275.053C191.99 278.312 189.552 284.727 189.552 284.727C192.123 280.274 190.162 276.828 188.015 274.682C186.61 273.303 185.152 272.456 184.781 272.269V270.176L191.302 268.346C191.302 268.346 193.528 270.096 195.303 272.402C196.099 273.463 196.814 274.602 197.185 275.769ZM208.132 245.552C209.325 253.345 206.436 262.807 191.726 267.419L188.81 268.241C187.352 268.638 185.921 268.983 184.596 269.328C183.959 269.487 183.35 269.645 182.714 269.778C179.586 270.547 176.83 271.183 174.471 271.845C173.198 272.19 172.032 272.561 170.972 272.932C166.837 274.416 164.611 276.245 164.531 279.585C164.425 284.065 170.707 285.708 171.316 285.867V284.462C171.316 284.462 166.28 283.19 166.784 281.255C166.996 280.38 168.586 279.691 171.158 278.975L171.343 285.867C171.37 285.867 171.396 285.867 171.396 285.867V287.351L171.528 291.963C171.502 291.989 171.475 291.989 171.423 292.016L171.396 289.816V292.016C171.158 292.122 170.919 292.228 170.68 292.308C168.613 291.857 164.451 290.399 159.495 285.84C159.495 285.84 162.305 290.452 169.01 292.996C168.693 293.129 168.374 293.262 168.03 293.394C164.875 292.201 160.211 289.683 156.898 284.595C152.524 277.862 157.162 269.487 165.989 265.484L166.492 265.272H166.466C167.791 264.689 169.222 264.238 170.707 263.867C171.37 263.709 172.032 263.575 172.721 263.47C173.225 263.39 173.702 263.311 174.205 263.231C177.306 262.701 180.222 262.092 182.872 261.376C183.509 261.19 184.118 261.032 184.728 260.846C191.619 258.726 196.444 255.81 197.424 251.807C198.617 246.798 195.622 242.928 189.472 239.005C190.507 238.713 191.566 238.422 192.6 238.131C195.41 239.959 198.564 243.035 199.598 248.043C199.598 248.043 200.34 242.345 194.879 237.468C198.352 236.487 201.268 235.639 202.168 235.375C204.633 237.654 207.47 241.126 208.132 245.552ZM217.118 206.669C219.079 214.488 217.118 226.76 201.029 233.095C200.684 233.227 200.313 233.36 199.942 233.493C199.094 233.81 198.246 234.102 197.345 234.367C195.728 234.844 194.164 235.295 192.6 235.692C191.566 235.958 190.532 236.222 189.499 236.461C188.465 236.699 187.431 236.938 186.451 237.177C186.08 237.256 185.683 237.336 185.312 237.442C185.046 237.494 184.808 237.548 184.542 237.601C184.171 237.68 183.827 237.76 183.456 237.84C179.878 238.635 176.538 239.297 173.569 240.039C172.35 240.331 171.184 240.649 170.097 240.993C164.266 242.743 160.423 245.022 159.76 249.342C158.965 254.352 169.753 259.6 170.654 260.025C170.68 260.05 170.707 260.05 170.707 260.05V262.356V262.754C168.295 263.47 166.333 264.238 164.849 264.901C162.252 264.133 156.898 261.88 150.934 255.466C150.934 255.466 154.061 262.144 162.861 265.882C162.013 266.332 161.562 266.624 161.562 266.624C156.367 264.292 151.835 261.8 148.973 253.981C145.792 245.287 150.006 239.032 156.023 234.685C157.586 233.572 159.256 232.565 160.953 231.69C161.748 231.266 162.569 230.895 163.391 230.524C165.353 229.649 167.288 228.907 169.064 228.324C169.302 228.244 169.541 228.164 169.78 228.085C170.017 228.006 170.283 227.926 170.521 227.847C170.945 227.714 171.37 227.581 171.767 227.476C172.297 227.316 172.801 227.184 173.252 227.052C174.974 226.574 176.194 226.336 176.565 226.257C177.28 226.124 180.169 225.673 183.801 224.878C184.384 224.746 184.993 224.613 185.629 224.454C193.104 222.652 202.487 219.365 202.937 213.958C203.388 208.471 199.942 203.86 195.41 200.44C192.626 198.346 189.42 196.703 186.478 195.616C186.478 195.616 187.326 195.537 188.73 195.404C190.532 195.961 194.164 197.339 197.477 200.201C200.472 202.799 203.229 206.616 204.157 212.129C204.157 212.129 206.568 206.457 200.366 199.777C198.855 198.161 196.814 196.464 194.111 194.794C198.643 194.238 204.289 193.416 208.265 192.436C208.265 192.436 210.279 194.158 212.453 197.074C214.202 199.565 216.137 202.853 217.118 206.669ZM175.637 202.083L177.121 217.298L177.253 201.898C179.4 201.659 181.733 201.447 184.278 201.342L183.774 222.864C181.468 223.473 178.818 224.056 175.77 224.666C174.868 224.825 173.993 225.037 173.118 225.249C172.774 212.844 172.509 204.097 172.483 202.614C173.49 202.402 174.524 202.242 175.637 202.083ZM186.08 201.5C197.159 203.329 200.154 213.083 199.041 215.097C198.167 216.688 195.781 219.497 185.629 222.36L186.08 201.5ZM169.514 220.664C167.95 220.346 157.825 218.119 153.107 212.5L153.214 212.049C153.214 212.049 155.148 206.43 169.01 203.25L169.514 220.664ZM239.356 173.988C239.356 173.988 239.329 173.962 239.276 173.882V173.855C239.303 173.908 239.356 173.935 239.356 173.988ZM237.606 170.648C237.5 170.966 237.421 171.285 237.315 171.602C237.235 171.814 237.182 172 237.103 172.212C236.917 172.716 236.731 173.193 236.519 173.643C236.493 173.696 236.493 173.723 236.467 173.776C236.281 174.2 236.069 174.624 235.857 175.048C235.061 176.559 234.134 177.858 233.154 178.838C228.303 183.689 218.999 192.117 186.239 194.847C185.656 194.901 185.046 194.954 184.437 195.006C184.357 195.006 184.251 195.033 184.171 195.033C181.707 195.218 179.427 195.457 177.306 195.722C174.1 196.12 171.29 196.597 168.825 197.154C168.719 197.18 168.586 197.207 168.481 197.233C168.242 197.286 168.03 197.339 167.818 197.392C150.324 201.527 151.384 208.79 151.384 209.743C151.384 210.936 150.642 217.351 169.568 221.989C169.593 221.989 169.646 222.016 169.673 222.016L170.229 226.045C170.044 226.097 169.885 226.15 169.7 226.204C167.791 226.76 165.936 227.396 164.134 228.112C158.859 227.369 150.298 224.958 143.009 217.298C143.009 217.298 146.004 225.382 160.343 229.782C159.601 230.153 158.885 230.524 158.17 230.895C150.642 228.324 142.187 223.977 139.696 217.059C136.409 207.888 138.477 201.183 142.903 196.252C144.255 194.742 145.845 193.39 147.568 192.197C148.655 191.455 149.794 190.766 150.987 190.13C152.79 189.149 154.671 188.328 156.527 187.585C160.821 185.942 165.088 184.881 168.374 184.272C168.401 184.272 168.427 184.272 168.481 184.245C168.481 184.245 168.481 184.245 168.507 184.245C169.965 183.981 171.237 183.769 172.218 183.636C173.49 183.477 175.292 183.212 177.44 182.894C179.586 182.575 182.077 182.178 184.781 181.701C185.364 181.595 185.973 181.489 186.557 181.383C197.609 179.422 211.26 176.347 217.754 172.424C218.549 171.947 219.212 171.443 219.768 170.94C220.219 170.516 220.616 170.092 220.881 169.668C221.12 169.296 221.332 168.925 221.544 168.581C221.703 168.316 221.835 168.077 221.968 167.813C224.99 162.035 223.002 158.986 221.094 157.634C221.014 157.581 220.935 157.528 220.828 157.476C219.821 156.839 218.867 156.654 218.787 156.813C218.787 156.813 218.761 156.813 218.708 156.839C218.629 156.865 218.522 156.892 218.337 156.972C217.78 157.157 216.667 157.476 215.13 157.767C214.149 157.952 212.983 158.137 211.657 158.271C210.677 158.376 209.59 158.456 208.45 158.483C206.41 158.535 203.971 158.191 201.585 157.528C200.923 157.342 200.26 157.13 199.598 156.918C199.306 156.813 198.988 156.706 198.696 156.601C198.299 156.442 197.928 156.282 197.531 156.123C197.106 155.938 196.709 155.752 196.31 155.54C196.232 155.514 196.152 155.461 196.099 155.408C195.887 155.302 195.701 155.196 195.515 155.09C195.437 155.036 195.357 155.01 195.303 154.957C194.747 154.612 194.217 154.268 193.74 153.897C193.104 153.393 192.548 152.863 192.123 152.306C191.619 151.671 191.249 150.982 191.09 150.265C190.295 146.581 192.68 143.878 197.822 142.129C198.246 141.996 198.696 141.837 199.174 141.705C200.393 141.36 201.744 141.069 203.229 140.803C206.224 140.299 209.962 140.274 213.858 140.83C214.546 140.936 215.236 141.042 215.925 141.174C218.231 141.625 220.537 142.261 222.79 143.136C223.24 143.322 223.717 143.507 224.168 143.692C225.918 144.461 227.613 145.362 229.178 146.423C231.192 147.801 233.047 149.392 234.532 151.299C234.69 151.511 234.849 151.697 234.982 151.909C238.11 156.203 238.984 161.292 238.534 165.983C238.481 166.434 238.428 166.858 238.374 167.309C238.162 168.422 237.925 169.561 237.606 170.648ZM256.663 164.102C259.447 166.752 266.549 170.277 266.549 170.277C251.283 172.424 239.807 157.369 239.807 157.369C249.481 172.584 264.085 172.08 264.085 172.08C256.451 174.279 251.68 171.019 251.68 171.019C254.145 175.075 260.374 175.446 260.374 175.446C252.899 175.87 248.023 174.942 240.044 167.441C240.177 162.538 239.249 157.369 236.705 152.81C238.401 153.685 240.177 154.507 240.919 154.56C240.919 154.56 241.582 153.261 241.98 152.095C241.794 155.752 244.286 157.847 244.286 157.847C242.245 155.461 242.192 152.254 242.298 150.716C244.736 154.375 246.777 157.476 246.777 157.476C246.168 155.461 243.464 152.042 242.43 150.769C243.384 151.777 249.189 157.899 252.29 158.932C252.29 158.932 254.198 161.743 256.663 164.102ZM291.386 163.545C279.352 164.446 270.261 158.483 270.261 158.483C280.359 167.123 294.089 164.658 294.089 164.658C273.653 178.15 254.437 157.184 254.437 157.184C254.437 157.184 255.974 151.06 256.213 147.51C256.69 153.102 258.996 154.745 258.996 154.745C257.061 152.306 256.425 147.959 256.213 145.892C257.246 146.316 261.753 148.331 262.309 152.281C262.309 152.281 262.892 147.562 256.213 145.866V145.84C256.372 145.84 256.504 145.866 256.637 145.892C256.451 145.866 256.319 145.84 256.213 145.84C256.213 145.84 256.213 145.84 256.213 145.813C256.478 145.813 264.244 146.211 265.33 146.661C266.444 147.112 271.162 149.232 271.162 149.232C273.309 150.027 279.246 154.507 281.605 157.661C283.964 160.841 291.386 163.545 291.386 163.545ZM309.807 154.321C300.821 154.984 294.3 149.604 294.3 149.604C299.575 157.476 315.081 155.673 315.081 155.673C300.397 159.49 288.682 150.955 288.682 150.955C296.209 161.133 316.804 156.282 316.804 156.282C306.467 162.935 293.188 157.82 293.188 157.82C295.997 160.073 303.63 160.736 303.63 160.736C284.865 161.531 272.275 147.376 272.275 147.376C269.757 146.237 269.651 143.772 270.95 143.109H270.976C271.771 144.779 273.76 148.305 276.966 149.762C276.41 149.444 274.051 147.907 271.135 143.136C272.646 143.507 276.118 144.726 280.226 148.251C280.226 148.251 276.303 143.242 271.242 142.977C273.919 142.261 281.101 144.567 281.791 144.779C282.903 145.124 286.853 145.23 289.212 143.984C291.571 142.739 294.036 144.329 294.036 144.329C301.165 153.526 309.807 154.321 309.807 154.321ZM333.211 139.266C333.211 139.266 322.794 144.965 312.165 143.321C312.165 143.321 323.987 146.237 333.821 140.989C333.821 140.989 323.562 155.143 297.64 142.049C297.64 142.049 297.667 141.705 297.932 141.281C298.913 141.386 300.609 141.757 302.889 142.951C302.889 142.951 300.768 141.254 297.985 141.201C298.012 141.148 298.038 141.121 298.064 141.069C298.966 140.936 300.768 140.883 303.498 141.625C303.498 141.625 300.927 140.353 298.118 140.989C298.701 140.247 300.026 139.504 302.969 140.035C305.539 140.486 317.493 141.095 324.172 139.133C324.145 139.133 330.507 139.187 333.211 139.266ZM339.811 127.365C339.811 127.365 329.314 142.261 305.512 138.975C281.684 135.688 273.6 130.281 260.586 122.197C260.586 122.197 244.259 114.854 234.824 105.71C225.387 96.5665 218.495 94.9223 212.347 95.2142C206.198 95.5062 200.208 101.947 197.371 111.382C194.535 120.818 191.09 124.264 187.777 125.457L187.855 121.481C188.73 120.792 193.104 117.107 195.224 110.031C197.583 102.159 201.293 91.8212 209.272 90.7086C217.25 89.595 230.158 96.4333 239.276 103.749C248.367 111.038 296.792 140.379 341.056 124.423C341.056 124.423 308.693 146.661 263.767 119.917C263.74 119.944 294.195 145.786 339.811 127.365ZM277.073 149.816C277.046 149.816 277.02 149.789 276.993 149.762C277.02 149.789 277.046 149.789 277.073 149.816ZM256.61 145.919C264.43 146.74 265.357 152.705 265.357 152.705C263.316 147.376 258.36 146.184 256.61 145.919ZM223.081 95.5851C222.286 95.1876 209.564 89.1975 202.911 97.0163C202.884 97.0429 207.682 87.6864 223.081 95.5851ZM291.411 129.009C291.411 129.009 305.645 132.454 321.071 130.281C321.071 130.281 307.898 133.197 291.411 129.009ZM330.136 132.905C330.136 132.905 325.948 136.191 316.512 136.642C316.512 136.642 325.498 135.608 330.136 132.905ZM163.789 127.207C163.789 127.207 165.406 127.948 166.837 129.565L166.891 130.944C165.804 129.486 164.293 127.497 163.789 127.207ZM76.6395 149.816C76.6661 149.789 76.6927 149.789 76.7194 149.762C76.6927 149.789 76.6661 149.789 76.6395 149.816ZM97.1013 145.919C95.3525 146.184 90.4228 147.376 88.3554 152.705C88.3554 152.705 89.2825 146.74 97.1013 145.919ZM130.657 95.5851C146.057 87.6864 150.828 97.0163 150.828 97.0163C144.148 89.1975 131.453 95.1876 130.657 95.5851ZM62.2999 129.009C45.8141 133.197 32.6413 130.281 32.6413 130.281C48.0669 132.454 62.2999 129.009 62.2999 129.009ZM23.5758 132.905C28.2146 135.608 37.2003 136.642 37.2003 136.642C27.7905 136.191 23.5758 132.905 23.5758 132.905ZM142.612 146.343C142.612 146.343 143.963 146.635 145.342 146.873C145.553 146.9 145.765 146.952 145.977 146.979C146.666 147.085 147.329 147.164 147.753 147.164C149.131 147.164 149.953 148.57 148.84 148.782C148.256 148.887 147.17 149.153 145.977 148.914C145.713 148.861 145.421 148.782 145.155 148.675C144.255 148.331 143.353 147.642 142.612 146.343ZM134.766 155.858C133.97 155.54 133.546 155.328 133.546 155.328C133.944 155.434 134.315 155.514 134.686 155.594C134.792 155.619 134.898 155.646 135.03 155.673C136.197 155.911 137.283 156.123 138.344 156.256C140.12 156.494 141.737 156.547 143.221 156.521C144.706 156.468 146.03 156.309 147.276 156.07C147.383 156.043 147.488 156.018 147.621 155.991C149.477 155.594 151.04 154.984 152.366 154.295C152.498 154.215 152.63 154.162 152.763 154.083C153.293 153.791 153.77 153.5 154.221 153.181C157.269 151.06 158.408 148.702 158.408 148.702C157.11 151.723 155.387 153.817 153.425 155.222C152.842 155.646 152.259 155.991 151.649 156.309C151.544 156.362 151.411 156.415 151.279 156.468C149.768 157.184 148.151 157.581 146.561 157.74C145.13 157.899 143.724 157.873 142.373 157.74C141.021 157.608 139.749 157.369 138.609 157.077C137.231 156.733 136.038 156.335 135.164 155.991C135.03 155.965 134.898 155.911 134.766 155.858ZM206.198 145.706C206.595 145.68 207.205 145.574 207.868 145.442C208 145.416 208.132 145.389 208.265 145.362C209.696 145.045 211.233 144.646 211.233 144.646C210.438 146.104 209.431 146.82 208.424 147.164C208.185 147.244 207.973 147.297 207.761 147.324C206.727 147.51 205.774 147.35 205.243 147.271C204.104 147.138 204.845 145.786 206.198 145.706ZM209.166 154.772C215.289 154.56 219.901 152.598 219.901 152.598C216.269 154.612 213.036 155.619 210.147 155.991C208.848 156.15 207.629 156.203 206.515 156.15C206.41 156.15 206.33 156.123 206.25 156.123C204.607 156.018 203.123 155.699 201.851 155.275C201.718 155.222 201.585 155.196 201.453 155.143C200.923 154.957 200.446 154.772 199.995 154.56C197.292 153.34 195.861 151.856 195.861 151.856C197.106 152.518 198.352 153.049 199.598 153.473C200.048 153.632 200.499 153.764 200.923 153.871C201.029 153.897 201.135 153.924 201.268 153.976C202.514 154.295 203.759 154.507 204.952 154.639C205.164 154.666 205.403 154.692 205.615 154.692C206.834 154.798 208.026 154.798 209.166 154.772ZM235.406 163.837C235.406 163.837 235.831 165.533 235.565 168.077C235.539 168.396 235.485 168.74 235.433 169.085C235.327 169.695 235.194 170.356 234.982 171.046C234.797 171.682 234.558 172.345 234.266 173.033C234.187 173.245 234.107 173.432 234.002 173.643C233.815 174.041 233.603 174.466 233.366 174.889C230.582 179.819 224.539 185.227 211.737 188.407C202.884 190.607 194.642 191.508 186.292 192.648C185.683 192.727 185.1 192.807 184.49 192.887C183.323 193.045 182.131 193.231 180.965 193.416C179.745 193.602 178.526 193.814 177.333 193.999C174.364 194.503 171.502 195.086 168.798 195.749C168.693 195.776 168.586 195.802 168.481 195.828C166.864 196.225 165.326 196.676 163.868 197.154C154.936 200.096 149.026 204.681 149.874 212.818C149.874 212.818 145.633 203.409 159.575 196.968C160.767 196.412 162.093 195.881 163.577 195.378C165.194 194.847 166.811 194.344 168.481 193.894C168.56 193.867 168.639 193.84 168.746 193.814C171.555 193.045 174.444 192.409 177.36 191.826C179.745 191.349 182.157 190.925 184.569 190.527C185.178 190.422 185.761 190.342 186.371 190.235C205.588 187.161 224.407 185.571 231.987 174.651C232.252 174.279 232.491 173.882 232.73 173.484C232.888 173.22 233.047 172.954 233.18 172.663C233.524 172 233.815 171.311 234.081 170.595C234.373 169.827 234.611 169.005 234.824 168.157C234.902 167.839 234.956 167.521 235.036 167.203C235.194 166.143 235.327 165.029 235.406 163.837ZM184.649 266.783C190.798 265.325 197.106 263.258 201.956 258.592C201.956 258.592 198.802 265.325 185.205 268.134C184.993 268.188 184.808 268.214 184.596 268.267C183.959 268.4 183.323 268.532 182.714 268.665C179.507 269.328 176.777 269.937 174.417 270.599C173.145 270.944 171.979 271.315 170.919 271.739C166.652 273.356 164.08 275.503 162.596 279.399C162.596 279.399 162.676 273.754 169.832 270.706C170.177 270.574 170.521 270.44 170.866 270.308C171.953 269.884 173.145 269.54 174.364 269.195C176.962 268.48 179.825 267.922 182.74 267.26C183.403 267.075 184.013 266.915 184.649 266.783ZM196.178 280.937C196.178 280.937 197.159 290.665 185.125 294.295C184.754 294.402 184.41 294.507 184.039 294.614C183.376 294.799 182.74 295.011 182.131 295.197C179.454 296.018 177.174 296.734 175.239 297.476C173.94 297.953 172.774 298.457 171.74 298.961C169.169 300.206 167.314 301.611 165.856 303.572C162.49 308.052 165.3 313.909 165.3 313.909C163.391 311.1 163.232 308.396 163.471 306.329C163.948 302.512 167.42 299.861 171.714 297.847C172.827 297.318 174.02 296.84 175.212 296.389C177.572 295.514 179.983 294.746 182.157 294.03C182.82 293.818 183.456 293.606 184.066 293.394C185.524 292.891 186.822 292.413 187.882 291.936C194.774 288.649 196.178 280.937 196.178 280.937ZM183.456 320.51C189.313 318.574 194.72 315.367 196.152 308.237C196.152 308.237 196.152 315.049 190.612 318.654C188.094 320.297 185.788 321.357 183.43 322.153C182.794 322.365 182.157 322.577 181.494 322.762C179.798 323.239 178.023 323.663 176.061 324.087C175.902 324.114 175.743 324.167 175.558 324.194C174.444 324.432 173.41 324.67 172.483 324.935C168.507 325.996 166.042 327.268 165.697 330.422C165.697 330.422 164.743 326.844 169.302 324.644C170.229 324.194 171.29 323.823 172.457 323.477C173.569 323.16 174.763 322.841 176.034 322.524C177.81 322.1 179.692 321.649 181.574 321.092C182.184 320.907 182.82 320.722 183.456 320.51ZM185.417 232.22C200.42 228.589 211.71 226.495 214.07 212.898C214.07 212.898 215.13 225.726 198.855 230.709C195.012 231.902 190.162 233.174 185.364 234.393C184.754 234.552 184.145 234.712 183.535 234.871C181.972 235.268 180.434 235.666 178.95 236.037C177.068 236.514 175.239 236.965 173.517 237.442C172.323 237.76 171.158 238.104 170.044 238.449C161.562 241.126 155.811 244.598 156.791 252.046C156.791 252.046 151.279 243.432 169.992 236.646C170.283 236.541 170.575 236.434 170.866 236.328C171.74 236.037 172.589 235.746 173.464 235.48C176.962 234.367 180.355 233.466 183.615 232.671C184.198 232.511 184.808 232.352 185.417 232.22Z" fill="#E6E8EB"/>
</g>
</svg>
