<svg width="254" height="340" viewBox="0 0 254 340" fill="none" xmlns="http://www.w3.org/2000/svg">
<mask id="mask0" mask-type="alpha" maskUnits="userSpaceOnUse" x="0" y="0" width="254" height="340">
<rect width="254" height="340" fill="#C4C4C4"/>
</mask>
<g mask="url(#mask0)">
<path fill-rule="evenodd" clip-rule="evenodd" d="M-36.5216 6.36685C-43.4576 20.6364 -55.6893 34.1168 -64.4896 37.1913C-65.7906 37.645 -68.7585 38.2546 -71.0853 38.5446L-75.3167 39.0723L-78.4366 51.6512C-94.7518 117.429 -98.3382 174.921 -89.4433 228.134C-78.118 295.893 -44.8888 353.456 6.80187 394.862C25.073 409.497 47.2669 422.861 66.3193 430.698C74.9863 434.264 75.4864 434.366 78.9515 433.295C83.2914 431.954 91.9259 428.097 100.351 423.735C135.311 405.64 167.297 378.513 190.994 346.864C215.646 313.941 232.232 275.614 240.351 232.812C249.19 186.222 247.834 133.418 236.354 77.0113C233.668 63.8119 227.911 39.739 227.308 39.1847C227.239 39.1216 225.034 38.7547 222.408 38.371C219.543 37.9508 216.67 37.2288 215.222 36.566C206.481 32.5614 195.816 20.4214 188.773 6.45761L187.453 3.8418H76.0802H-35.2936L-36.5216 6.36685ZM176.234 26.8682C180.763 34.6011 192.119 46.8901 198.877 51.3671C202.385 53.6939 207.926 56.6066 209.744 57.083C210.417 57.2586 210.959 59.0478 212.849 67.3499C218.188 90.8024 221.73 112.528 223.652 133.619C225.905 158.345 225.743 186.328 223.221 208.397C214.588 283.922 179.444 345.611 121.476 386.992C109.393 395.617 92.9991 404.947 80.8897 410.088L76.3495 412.015L74.0878 411.228C70.3663 409.933 55.5868 402.596 48.9901 398.769C30.8353 388.234 15.468 376.335 -0.178528 360.696C-18.4191 342.462 -31.6845 324.398 -43.3994 301.84C-71.8902 246.981 -79.9989 178.877 -67.3007 101.12C-64.9739 86.8718 -59.3457 59.8537 -58.2893 57.8534C-58.095 57.4874 -57.1787 56.9213 -56.2525 56.5958C-55.3254 56.2693 -53.1288 55.2178 -51.3711 54.2591C-42.199 49.2504 -33.0832 40.3348 -25.3196 28.7807L-22.7265 24.9221H76.1838H175.094L176.234 26.8682ZM-13.6738 39.0861C-17.6014 45.5526 -18.8255 47.3941 -21.4008 50.7102C-25.1509 55.5384 -30.9102 61.1567 -34.4601 63.4489C-37.2919 65.2776 -40.5439 66.7098 -43.6914 67.5147C-45.8022 68.0542 -45.454 67.2296 -47.9494 77.6238C-52.8052 97.8578 -56.4439 120.024 -58.5439 142.183C-59.4927 152.19 -59.8744 180.585 -59.2067 191.412C-55.7061 248.093 -37.3551 295.576 -3.86945 334.593C1.95889 341.383 15.176 354.269 22.3438 360.148C37.6638 372.715 57.5802 384.963 72.2393 390.833L76.1621 392.404L80.2958 390.682C105.907 380.015 133.318 360.086 153.586 337.399C184.907 302.335 203.531 259.782 209.805 208.939C214.134 173.858 211.947 133.884 203.427 92.3362C201.787 84.3389 198.111 68.3669 197.85 68.1065C197.763 68.0197 196.527 67.6449 195.103 67.274C189.805 65.8951 183.027 61.4259 177.996 55.9941C174.707 52.4422 169.781 45.7706 167.281 41.4819L165.308 38.0978H76.1177H-13.0741L-13.6738 39.0861Z" fill="#E6E8EB"/>
<path d="M247.568 120.554C201.066 141.386 150.82 112.178 135.532 100.171C120.217 88.1905 109.891 88.0317 104.769 89.383C99.6729 90.7353 93.807 101.655 92.4794 108.255C91.4447 113.291 88.2332 117.267 86.7734 118.857L87.2241 98.5541C87.2241 98.5541 93.7537 94.0484 92.1608 84.2944C90.197 72.0755 80.1904 69.7694 75.6779 69.7694C71.1663 69.7694 59.3814 71.7303 59.1684 85.3547C59.0096 95.6917 64.8754 99.2958 64.8754 99.2958L65.4593 119.784H65.3794V119.625C65.3794 119.625 60.3105 114.881 58.9563 108.281C57.603 101.682 51.7638 90.7619 46.6673 89.4096C41.5709 88.0583 31.2191 88.2171 15.9041 100.197C0.588997 112.151 -49.6557 141.36 -96.1582 120.554C-96.1582 120.554 -82.6482 135.37 -74.8708 138.232C-74.8708 138.232 -81.7723 138.842 -85.3823 137.49C-85.3823 137.49 -76.8356 158.456 -43.3914 142.739L-42.6487 143.348C-42.6487 143.348 -50.4517 155.036 -67.2532 153.976C-67.2532 153.976 -55.5482 169.403 -31.3944 156.972C-31.3944 156.972 -35.7472 163.413 -44.4537 162.803C-44.4537 162.803 -40.7105 170.144 -25.3954 170.144C-15.2035 170.144 -2.88789 159.357 -2.88789 159.357L-2.35725 160.258C-2.35725 160.258 -8.62057 167.362 -16.3713 170.966C-16.3713 170.966 -10.399 177.699 -0.737656 176.029C3.26988 175.339 6.90656 173.591 10.198 170.966C12.1086 184.325 26.1503 194.265 40.191 196.067C39.0231 197.366 38.094 198.77 37.4835 200.281C33.3161 210.618 36.793 223.42 40.8548 227.476C44.1719 230.789 48.6844 233.652 51.4186 234.526C44.9689 239.615 41.4653 246.161 43.3492 253.424C46.9327 267.26 56.4618 269.884 56.6206 269.937C52.905 273.939 51.7638 278.922 52.5864 283.826C54.0462 292.547 60.8412 296.734 61.2387 296.972C56.3553 301.452 54.3648 308.079 54.7623 313.087C55.2407 319.157 60.6025 323.16 61.4518 323.77C58.3191 326.579 57.0724 330.316 58.7709 335.962C60.7347 342.456 70.4493 349.214 72.0422 350.301L72.0688 351.308C70.0251 352.793 69.0161 353.853 70.2905 355.946C71.8292 358.491 74.0859 357.298 75.5723 356.609C75.9432 356.45 76.5015 356.133 77.1111 355.735C77.0321 356.769 76.6603 358.783 74.9352 361.433C72.9713 364.429 73.8995 367.635 75.5457 368.033C77.2442 368.43 80.9075 367.238 82.606 364.217C86.3482 357.537 85.5522 351.599 85.0482 349.373C91.0462 342.429 89.8784 335.67 89.4276 333.365C88.9492 330.952 87.0121 328.355 86.6402 327.851C101.186 322.497 98.8236 306.833 97.7346 302.592C96.9653 299.597 94.1523 296.257 92.4528 294.428C99.9914 287.988 98.6904 280.645 97.4693 276.537C96.9653 274.814 96.1427 273.303 95.2668 272.031C110.343 266.464 109.733 252.39 107.821 244.121C106.813 239.827 104.397 236.806 102.247 234.897C122.977 223.765 118.226 209.16 116.448 203.621C115.678 201.209 114.085 198.744 112.519 196.756C122.844 193.443 129.135 188.937 133.169 184.908C135.16 182.921 137.018 179.13 138.106 174.571C139.539 174.174 140.363 173.67 140.363 173.67C139.726 173.325 139.115 172.928 138.531 172.477C138.717 171.338 138.876 170.171 138.955 168.979C142.857 172.742 147.237 175.181 152.174 176.056C161.862 177.752 167.807 170.993 167.807 170.993C160.057 167.389 153.793 160.285 153.793 160.285L154.324 159.383C154.324 159.383 166.613 170.171 176.832 170.171C192.121 170.171 195.889 162.83 195.889 162.83C187.184 163.439 182.83 156.998 182.83 156.998C206.984 169.429 218.69 154.003 218.69 154.003C201.888 155.063 194.084 143.375 194.084 143.375L194.828 142.765C228.271 158.483 236.818 137.517 236.818 137.517C233.208 138.868 226.307 138.259 226.307 138.259C234.084 135.37 247.568 120.554 247.568 120.554Z" fill="white"/>
<path d="M248.077 120.554C201.639 141.386 151.465 112.178 136.198 100.171C120.904 88.1905 110.594 88.0317 105.478 89.383C100.389 90.7353 94.5314 101.655 93.2067 108.255C92.173 113.291 88.9654 117.267 87.5076 118.857L87.9583 98.5541C87.9583 98.5541 94.4781 94.0484 92.8881 84.2944C90.9272 72.0755 80.9345 69.7694 76.4289 69.7694C71.9222 69.7694 60.1541 71.7303 59.942 85.3547C59.7832 95.6917 65.6411 99.2958 65.6411 99.2958L66.4362 127.127L66.5151 129.671L66.5417 131.049L66.5683 132.348L66.6216 133.78L66.6482 134.787L66.807 140.591C66.7804 140.645 66.7804 140.698 66.7538 140.777L66.595 135.158C66.4628 135.874 66.2241 136.642 66.0653 137.49C65.7467 139.346 63.918 140.962 63.918 140.962C63.918 140.962 63.9979 140.035 63.9446 137.119C63.8914 134.204 62.5657 134.416 62.9109 135.211C63.2552 136.006 63.3617 141.837 63.3617 141.837C63.4673 141.386 60.6581 137.464 59.8888 136.112C59.0938 134.76 59.5445 133.409 61.3466 131.951C61.6385 131.712 61.9305 131.606 62.2481 131.527C62.6722 132.799 62.5657 133.806 62.5657 133.806C62.8577 132.639 62.5924 131.898 62.3803 131.5C62.4336 131.5 62.5134 131.474 62.5657 131.474C64.1034 132.614 64.8195 133.673 64.8195 133.673C64.6331 132.614 63.5205 131.844 62.8044 131.447C64.3954 131.474 66.0653 132.826 66.0653 132.826C66.303 133.064 66.4362 133.302 66.5417 133.568L66.5151 132.348C62.0361 130.969 62.1159 126.332 62.2215 125.033C62.4602 125.563 62.9376 126.173 63.9446 126.517C63.9446 126.517 62.8843 125.934 62.2481 124.742C62.2481 124.688 62.2481 124.662 62.2481 124.662C62.3803 124.715 62.4868 124.767 62.619 124.794C63.2019 125.43 63.7592 126.12 63.7592 126.12C63.4939 125.616 63.123 125.191 62.8044 124.874C64.3954 125.457 65.5346 126.199 66.3296 127.021L66.1176 119.625C66.1176 119.625 61.0556 114.881 59.7034 108.281C58.3521 101.682 52.5207 90.7619 47.4312 89.4096C42.3426 88.0583 32.0056 88.2171 16.7122 100.197C1.44452 112.151 -48.7292 141.36 -95.1666 120.554C-95.1666 120.554 -81.6752 135.37 -73.9097 138.232C-73.9097 138.232 -80.8013 138.842 -84.4055 137.49C-84.4055 137.49 -75.8706 158.456 -42.4747 142.739L-41.732 143.348C-41.732 143.348 -49.5242 155.036 -66.302 153.976C-66.302 153.976 -54.6137 169.403 -30.4935 156.972C-30.4935 156.972 -34.8404 163.413 -43.534 162.803C-43.534 162.803 -39.7968 170.144 -24.5034 170.144C-14.3252 170.144 -2.02743 159.357 -2.02743 159.357L-1.49678 160.258C-1.49678 160.258 -7.75221 167.362 -15.4921 170.966C-15.4921 170.966 -9.52863 177.699 0.119858 176.029C4.12247 175.339 7.75324 173.591 11.0398 170.966C12.9483 184.325 26.9693 194.265 40.9913 196.067C39.8244 197.366 38.8972 198.77 38.2877 200.281C34.1263 210.618 37.5982 223.42 41.6531 227.476C44.9662 230.789 49.4729 233.652 52.2021 234.526C45.7622 239.615 42.2626 246.161 44.1446 253.424C47.7231 267.26 57.2384 269.884 57.3972 269.937C53.6866 273.939 52.5474 278.922 53.369 283.826C54.8268 292.547 61.6119 296.734 62.0094 296.972C57.1329 301.452 55.1444 308.079 55.5419 313.087C56.0193 319.157 61.3732 323.16 62.2215 323.77C59.0938 326.579 57.848 330.316 59.5445 335.962C61.5064 342.456 71.2071 349.214 72.7971 350.301L72.8238 351.308C70.783 352.793 69.7759 353.853 71.0473 355.947C72.5851 358.491 74.8379 357.298 76.3224 356.609C76.6932 356.45 77.2505 356.133 77.86 355.735C77.7802 356.769 77.4093 358.783 75.6862 361.433C73.7253 364.429 74.6524 367.635 76.2957 368.033C77.9922 368.43 81.6496 367.238 83.3461 364.217C87.0834 357.537 86.2884 351.6 85.7844 349.373C91.7745 342.429 90.6087 335.67 90.1579 333.365C89.6815 330.952 87.7463 328.355 87.3754 327.851C101.9 322.497 99.5411 306.833 98.4541 302.592C97.6857 299.597 94.8756 296.257 93.1801 294.428C100.707 287.988 99.4089 280.645 98.1888 276.537C97.6857 274.814 96.8641 273.303 95.9892 272.031C111.044 266.464 110.434 252.39 108.527 244.121C107.519 239.827 105.107 236.806 102.96 234.897C123.661 223.765 118.916 209.16 117.141 203.621C116.372 201.209 114.781 198.744 113.218 196.756C123.528 193.443 129.81 188.937 133.838 184.908C135.827 182.921 137.682 179.13 138.769 174.571C140.2 174.174 141.022 173.67 141.022 173.67C140.386 173.325 139.776 172.928 139.193 172.477C139.379 171.338 139.538 170.171 139.617 168.979C143.514 172.742 147.887 175.181 152.817 176.056C162.491 177.752 168.428 170.993 168.428 170.993C160.689 167.389 154.433 160.285 154.433 160.285L154.963 159.383C154.963 159.383 167.235 170.171 177.44 170.171C192.707 170.171 196.471 162.83 196.471 162.83C187.777 163.439 183.43 156.998 183.43 156.998C207.55 169.429 219.239 154.003 219.239 154.003C202.461 155.063 194.669 143.375 194.669 143.375L195.41 142.765C228.807 158.483 237.342 137.517 237.342 137.517C233.737 138.868 226.845 138.259 226.845 138.259C234.612 135.37 248.077 120.554 248.077 120.554ZM97.5269 115.252C97.739 115.04 97.9244 114.828 98.1365 114.642C98.1365 114.642 98.1365 114.669 98.1631 114.669C97.9511 117.453 96.2279 119.547 96.2279 119.547C97.9777 117.691 98.242 115.836 98.242 114.828C98.534 115.359 99.3556 116.87 99.7798 117.24C99.7798 117.24 97.9777 122.621 97.9777 124.662C97.9777 126.703 98.7194 129.538 98.7194 129.538C98.7194 129.538 96.9174 134.336 96.0159 134.787C96.0159 134.787 95.565 128.717 95.6449 125.51C95.3796 127.948 94.9555 132.11 95.0354 133.965C95.0354 133.965 91.8012 132.03 91.9609 128.426C92.0931 125.086 93.1535 119.971 97.1028 115.649C96.8375 116.419 96.5988 117.426 96.5988 118.645C96.6521 118.645 97.0495 116.975 97.5269 115.252ZM105.214 98.9782C105.584 98.7395 105.929 98.5807 106.247 98.5274C106.247 98.5274 106.273 98.634 106.326 98.7928C106.141 99.8797 105.16 100.992 105.16 100.992C106.087 100.117 106.326 99.429 106.379 99.0048C107.042 101.549 109.56 113.689 99.1169 120.156C99.1169 120.156 104.285 111.462 103.676 106.161C103.676 106.161 101.582 115.385 100.23 116.949C100.23 116.949 97.5269 115.517 98.7194 109.898C99.6732 105.446 102.483 101.125 104.656 99.3491C103.57 100.834 104.1 102.238 104.1 102.238C104.02 100.78 104.656 99.6676 105.214 98.9782ZM108.924 98.8983C109.136 98.6862 109.348 98.4742 109.534 98.2888C110.01 98.8983 110.567 99.7732 111.071 100.992C111.071 100.992 110.726 99.4556 109.639 98.1832C109.851 97.9445 110.01 97.7324 110.17 97.547C112.555 99.0837 113.086 101.178 113.086 101.178C112.661 98.9516 111.15 97.8912 110.249 97.4405C110.514 97.0962 110.673 96.8575 110.673 96.8575C110.673 96.8575 114.119 97.4671 114.649 100.913C115.179 104.359 114.808 111.012 112.635 113.582C112.635 113.582 112.555 108.123 111.892 106.93C111.23 105.737 111.362 115.173 111.362 115.173C111.362 115.173 107.837 112.47 107.705 109.474C107.519 106.479 107.891 99.8797 108.924 98.8983ZM116.054 98.7661C116.133 98.5807 116.504 98.3953 116.928 98.2355C117.432 99.1636 117.989 100.383 118.413 101.841C118.413 101.841 118.254 99.9853 117.167 98.1299C117.697 97.9445 118.227 97.7857 118.227 97.7857C118.227 97.7857 118.254 97.7857 118.28 97.7857C119.049 98.6073 120.056 99.8797 120.931 101.523C120.931 101.523 120.295 99.429 118.598 97.7857C120.321 97.9179 127.504 99.5079 123.475 116.048C123.475 116.048 122.282 105.419 118.969 101.894C118.969 101.894 122.628 109.156 121.965 115.836C121.965 115.836 116.584 114.272 115.895 109.686C115.232 105.127 115.815 99.1903 116.054 98.7661ZM163.896 128.611C163.286 128.16 159.416 125.483 158.807 124.742C158.807 124.742 159.019 124.503 159.337 124.264C160.265 125.113 162.518 126.995 165.248 128.187L159.416 124.211L159.443 124.184C159.946 124.264 160.901 124.555 162.147 125.483C162.147 125.483 161.113 124.052 159.655 124.052C160.132 123.787 160.742 123.628 161.404 123.999C162.756 124.742 177.572 134.787 189.049 137.252C189.049 137.252 181.548 139.638 169.197 133.806C169.197 133.806 178.871 140.167 193.979 139.346C193.979 139.346 177.864 153.208 157.429 127.895C157.429 127.895 157.508 127.656 157.64 127.339C158.171 128.214 159.151 129.247 160.954 129.777C160.954 129.777 159.231 129.009 157.773 127.073C157.8 127.021 157.852 126.941 157.905 126.888C159.098 127.577 161.696 129.247 162.438 131.129C162.438 131.129 161.51 127.948 157.985 126.756C158.224 126.437 158.568 126.146 158.992 126.093C160.106 125.934 162.226 129.089 163.631 129.247C163.683 129.247 164.532 129.035 163.896 128.611ZM168.561 143.534C168.561 143.534 159.787 135.37 153.134 133.355C153.134 133.355 164.373 140.698 167.527 145.574C167.527 145.574 153.453 145.574 148.285 138.312C143.116 131.049 142.002 126.995 142.002 126.544C142.002 126.437 142.161 126.358 142.4 126.278C142.48 126.305 142.585 126.332 142.665 126.358C143.275 128.134 144.653 131.447 146.986 132.773C146.986 132.773 144.626 130.387 142.824 126.411C144.414 126.915 147.33 128.055 148.946 129.857C148.946 129.857 147.303 126.782 142.771 126.173C143.063 126.12 143.407 126.04 143.726 126.013C144.838 126.04 146.879 126.278 148.337 127.656C148.337 127.656 147.515 125.987 144.706 125.908C144.838 125.908 144.918 125.881 144.918 125.881C144.918 125.881 151.65 125.059 152.87 125.881C154.009 126.676 168.693 137.914 168.561 143.534ZM149.98 156.494C146.535 155.434 141.286 148.861 141.446 147.801C141.605 146.74 141.605 139.716 141.154 135.211C140.703 130.705 137.868 128.929 137.868 128.929L142.056 129.221C147.303 141.652 154.646 144.646 154.646 144.646C156.289 149.577 152.101 157.528 152.101 157.528C151.65 154.241 147.171 144.037 147.171 144.037C146.986 149.312 149.98 156.494 149.98 156.494ZM137.682 151.565C133.786 148.861 130.5 146.184 129.889 141.069C129.28 135.979 125.993 125.934 125.993 125.934C126.55 126.252 127.902 126.623 129.571 127.047C128.935 128.876 129.996 132.534 129.996 132.534C129.651 130.308 129.677 128.028 129.704 127.1H129.73C130.764 132.348 133.76 132.799 133.76 132.799C131.533 131.208 130.366 128.584 129.863 127.153C130.154 127.233 130.42 127.312 130.711 127.392C130.844 128.187 131.374 129.724 133.626 130.096C133.626 130.096 131.904 129.645 130.897 127.444C133.547 128.16 136.595 129.089 138.531 130.466C142.135 133.011 140.174 155.328 139.723 152.625C139.272 149.921 133.574 133.912 133.441 136.457C133.362 138.975 137.682 151.565 137.682 151.565ZM121.434 137.702C121.434 137.702 121.541 139.187 121.965 141.386C121.329 141.069 119.34 140.274 115.365 139.929C115.365 139.902 115.365 139.85 115.365 139.823C115.259 131.5 115.921 131.632 115.921 131.632C115.921 131.632 116.054 131.739 116.239 131.898C114.993 134.257 116.875 136.245 116.875 136.245C115.524 134.177 115.975 132.534 116.239 131.898L116.266 131.924C116.027 132.826 116.531 133.7 116.531 133.7C116.292 132.826 116.292 132.295 116.319 131.978C117.618 132.985 121.593 136.059 122.521 136.139C122.521 136.139 124.695 132.56 124.986 128.743C125.039 129.035 125.729 133.488 125.517 135.45C125.517 135.45 126.126 131.58 124.986 128.717C124.986 128.69 124.986 128.664 124.986 128.664C126.178 130.52 126.709 131.474 126.709 131.474C126.576 130.308 125.437 129.035 125.013 128.585C125.039 128.028 125.039 127.471 124.986 126.915C124.986 126.915 128.14 127.948 128.643 144.699C126.948 143.587 125.039 142.605 122.839 141.784C122.309 140.353 121.805 138.975 121.434 137.702ZM92.676 159.383C92.7027 159.41 92.756 159.437 92.7826 159.463C94.054 160.577 95.6183 161.424 97.3938 161.955C97.7913 162.087 98.1888 162.167 98.5873 162.272C99.0637 166.143 99.0636 169.932 99.0636 169.932C97.6324 166.619 94.85 162.484 93.1801 160.073C95.6716 164.128 98.5074 171.258 98.5074 171.258C89.787 164.924 87.3222 158.244 86.7126 153.976L86.8181 149.709C86.9247 149.816 87.0036 149.948 87.1101 150.053C87.1101 151.352 87.2688 155.965 89.5217 158.403C89.5217 158.403 87.7729 155.461 87.1633 150.107C87.2689 150.213 87.3754 150.345 87.4543 150.451C87.9051 151.406 88.8333 153.552 89.1242 155.646C89.1242 155.646 89.1775 153.181 87.7729 150.823C88.3825 151.485 88.9654 151.989 89.4951 152.386C89.6016 155.302 90.7674 157.661 92.676 159.383ZM103.437 163.28C108.049 169.111 112.502 171.365 115.815 172.16C115.365 172.398 114.888 172.636 114.357 172.875C109.242 175.127 96.9963 177.699 86.1563 179.766L86.6327 157.899C90.7675 167.335 99.1702 173.458 99.1702 173.458C100.231 170.914 99.9652 166.514 99.3822 162.538C100.707 162.803 102.059 163.068 103.437 163.28ZM113.059 163.651C113.933 166.567 116.636 169.483 117.935 170.754C117.857 170.834 117.75 170.887 117.67 170.966C114.729 169.27 109.189 163.757 109.189 163.757C109.985 166.726 115.656 170.569 116.982 171.443C116.928 171.47 116.875 171.523 116.823 171.55C112.211 170.728 108.235 167.176 105.266 163.491C107.837 163.757 110.461 163.783 113.059 163.651ZM119.976 162.856C119.976 162.856 121.01 164.578 120.534 166.806C119.367 165.56 118.386 164.314 117.645 163.227C118.44 163.121 119.208 163.015 119.976 162.856ZM116.504 163.359C117.777 165.029 119.022 166.487 120.268 167.733C119.95 168.554 119.393 169.403 118.492 170.251C116.08 168.184 114.967 165.639 114.437 163.571C115.126 163.518 115.815 163.439 116.504 163.359ZM85.5724 128.293L85.5201 130.917L85.4934 132.295V132.56L84.4065 180.084C81.8094 180.561 79.3179 181.039 77.0384 181.436V181.065L78.231 103.166C78.231 103.166 83.6904 102.106 86.2352 99.429L85.5724 128.293ZM89.5217 151.406C88.5679 150.557 87.481 149.392 86.8714 148.013L86.9513 144.249C87.7197 145.707 88.6478 146.184 88.6478 146.184C88.0372 145.574 87.4543 144.355 86.9779 143.188L87.0035 141.44C87.3488 142.155 87.7729 143.109 87.9583 143.692C87.9583 143.692 87.8518 142.42 87.0035 141.121V141.095C87.8262 141.837 89.4162 143.242 89.7338 143.322C89.7338 143.322 91.8544 139.001 93.4188 137.464C91.8811 140.83 93.0203 142.871 93.0203 142.871C92.5961 141.095 93.259 138.551 93.6831 137.225C93.8419 137.093 94.0017 136.986 94.1339 136.961C94.1339 136.961 94.4258 137.173 94.8233 137.544C94.8499 138.471 94.85 139.77 94.6646 141.228C94.6646 141.228 95.1942 139.796 94.9821 137.676C95.7505 138.392 96.8109 139.558 97.3415 140.91C97.3671 141.015 97.3937 141.121 97.4204 141.228C92.3851 142.579 89.8669 145.521 89.4951 151.167C89.5217 151.247 89.5217 151.326 89.5217 151.406ZM96.7319 136.351C96.4932 134.045 97.5269 133.064 98.7993 132.851C99.2224 134.681 99.833 137.331 99.833 137.331C99.8587 135.291 99.2757 133.647 98.9315 132.826C99.1169 132.799 99.2757 132.799 99.4612 132.799C100.707 134.707 102.165 137.41 102.165 137.41C101.423 135.131 100.097 133.435 99.541 132.799C101.104 132.826 102.801 133.673 103.12 134.442C103.781 136.006 108.049 138.153 108.049 138.153C108.049 138.153 107.148 135.9 111.071 129.274C111.071 129.274 111.336 129.247 111.733 129.274C111.575 130.201 111.442 131.792 111.892 133.249C111.892 133.249 111.68 131.606 111.84 129.274C111.919 129.274 111.999 129.274 112.104 129.301C112.157 130.308 112.343 132.269 113.111 133.249C113.111 133.249 112.528 131.871 112.184 129.301C113.138 129.379 114.464 129.671 114.781 130.625C115.285 132.003 115.073 136.801 113.854 139.85C110.488 139.69 105.955 139.85 99.9386 140.75C99.3823 140.83 98.8516 140.936 98.3486 141.042C97.5003 139.425 96.8907 137.808 96.7319 136.351ZM125.914 108.387C127.424 111.833 129.571 112.072 129.571 112.072C127.902 111.409 126.629 109.447 125.966 108.176C126.312 106.85 126.603 106.002 126.603 106.002C126.682 106.029 126.762 106.055 126.815 106.082C127.531 107.221 128.618 110.375 128.618 110.375C128.458 108.281 128.194 107.116 128.008 106.479C141.685 111.78 141.049 126.729 141.049 126.729C136.622 124.715 128.618 113.026 128.618 113.026C127.557 118.194 140.306 128.452 140.306 128.452C129.359 126.941 125.49 124.105 124.642 119.228C124.111 116.021 125.145 111.25 125.914 108.387ZM141.737 115.597C145.342 121.587 155.07 124.582 155.07 124.582C142.797 126.385 139.034 115.146 137.841 113.052C136.649 110.958 129.147 105.419 127.796 104.518C127 103.988 125.595 102.636 125.066 101.655C125.383 102.026 125.887 102.477 126.736 102.954C126.736 102.954 125.649 102.265 124.88 101.151C124.854 101.046 124.88 100.939 124.933 100.86C125.941 101.47 128.723 103.298 129.889 105.127C129.889 105.127 128.167 102.159 124.959 100.807C125.092 100.648 125.357 100.595 125.834 100.648C128.379 100.939 134.82 108.149 138.875 111.144C142.931 114.139 156.554 122.541 156.554 122.541C149.53 123.177 141.737 115.597 141.737 115.597ZM116.424 114.113C116.716 114.59 117.008 115.146 117.326 115.783C117.326 115.783 117.087 115.013 116.663 114.192C119.659 115.067 123.714 116.949 124.005 120.712C124.933 133.037 122.548 133.488 122.548 133.488C121.275 132.056 118.148 119.652 118.148 119.652C117.777 123.548 121.514 134.707 121.514 134.707C121.514 134.707 115.365 130.969 113.191 126.703C111.018 122.436 113.483 113.53 113.483 113.53C113.483 113.53 113.907 113.582 114.569 113.715C114.676 114.642 114.756 116.048 114.649 117.505C114.649 117.505 114.967 115.305 114.781 113.769C114.993 113.821 115.205 113.847 115.444 113.901C115.841 114.881 116.266 116.259 116.345 117.929C116.345 117.929 116.531 115.836 115.736 113.98C115.948 114.006 116.187 114.06 116.424 114.113ZM108.659 113.37C109.163 115.279 108.791 118.194 108.791 118.194C109.401 117.002 109.322 115.12 109.189 113.954C111.309 116.631 111.628 121.666 111.336 125.351C110.965 130.069 106.989 134.787 106.989 134.787C105.929 132.003 106.247 120.554 106.247 120.554C104.153 126.464 105.955 135.316 105.955 135.316C99.6732 133.143 96.8374 123.363 100.045 120.554C106.645 114.776 106.936 112.311 106.936 112.311C106.962 112.311 106.989 112.336 107.016 112.336C107.625 114.934 107.174 118.989 107.174 118.989C107.943 117.134 107.731 114.033 107.572 112.575C107.943 112.787 108.315 113.052 108.659 113.37ZM93.0203 136.139C92.2253 137.49 89.4162 141.413 89.5483 141.864C89.5483 141.864 89.6548 136.032 89.9991 135.237C90.3433 134.442 89.0187 134.23 88.9654 137.146C88.9121 140.062 88.992 140.989 88.992 140.989C88.992 140.989 87.693 139.823 87.1101 138.339L87.2422 132.614C87.8262 132.215 88.9921 131.527 90.1313 131.5C89.3895 131.898 88.3026 132.639 88.1172 133.726C88.1172 133.726 88.8333 132.639 90.37 131.527C90.4232 131.527 90.5031 131.527 90.5554 131.553C90.3433 131.951 90.079 132.693 90.37 133.86C90.37 133.86 90.2911 132.878 90.6886 131.58C91.0062 131.632 91.3247 131.765 91.5891 132.003C93.3655 133.435 93.8162 134.787 93.0203 136.139ZM90.2645 124.821C90.3966 124.767 90.5031 124.715 90.6353 124.688C90.6353 124.688 90.6353 124.715 90.6353 124.767C89.9991 125.934 88.9387 126.544 88.9387 126.544C89.9458 126.2 90.4232 125.563 90.6619 125.059C90.7674 126.278 90.8207 130.387 87.19 132.056L87.2422 129.884C88.1438 128.664 89.1242 127.471 89.4951 127.259C89.4951 127.259 88.4357 127.763 87.2422 128.797L87.2955 126.358C88.0116 125.828 88.9121 125.325 90.0524 124.9C89.7071 125.218 89.3629 125.642 89.0975 126.146C89.1508 126.12 89.6815 125.43 90.2645 124.821ZM66.0909 91.0262C58.5907 81.5908 64.2889 70.8031 77.4883 71.2538C90.6619 71.7046 93.8163 87.5809 89.9192 92.8293C86.0231 98.0767 78.5219 98.8194 78.5219 98.8194C86.1563 95.9827 86.9246 90.4433 86.9246 90.4433C85.7055 93.5977 73.5921 100.489 66.0909 91.0262ZM66.8337 141.413L67.8674 178.016C51.7523 177.487 42.7667 174.915 37.8103 171.947C41.1501 170.966 45.4703 168.501 49.9227 162.696C51.2217 162.458 52.4675 162.087 53.6343 161.584C52.9715 165.771 52.574 170.702 53.7132 173.405C53.7132 173.405 63.5994 166.222 67.2045 155.434L66.807 141.732C66.807 141.652 66.8337 141.52 66.8337 141.413ZM32.2443 161.504C32.2443 161.504 33.6755 161.901 35.8751 162.299C35.0801 163.545 33.9931 165.056 32.5886 166.567C31.3428 163.757 32.2443 161.504 32.2443 161.504ZM37.0419 162.511C37.545 162.591 38.1023 162.67 38.6586 162.75C38.2877 164.79 37.3063 167.547 34.9479 169.8C34.073 168.979 33.4368 168.157 32.986 167.362C34.3117 166.01 35.663 164.393 37.0419 162.511ZM36.4846 171.073C38.3932 169.774 43.0054 166.434 43.7205 163.757C43.7205 163.757 38.8973 168.581 35.8485 170.595C35.7163 170.49 35.5841 170.383 35.4509 170.278C36.9887 168.713 39.5068 165.771 40.0365 162.935C42.528 163.201 45.3381 163.306 48.0674 162.988C45.2316 166.619 41.3887 170.251 36.9087 171.39C36.7766 171.258 36.6178 171.178 36.4846 171.073ZM56.7354 159.729C59.0148 157.793 60.3928 155.699 61.029 153.605C62.1682 153.288 63.5205 152.572 65.1371 150.849C63.7592 153.208 63.7858 155.673 63.7858 155.673C64.0768 153.605 65.0316 151.432 65.4548 150.478C65.5613 150.372 65.6411 150.265 65.7467 150.133C65.1371 155.487 63.3874 158.43 63.3874 158.43C65.6412 155.991 65.8 151.379 65.8 150.08C65.9321 149.921 66.0653 149.762 66.1975 149.604C66.1975 149.604 68.6624 160.948 54.4027 171.285C54.4027 171.285 57.2384 164.128 59.73 160.099C58.0334 162.484 55.2775 166.646 53.8463 169.959C53.8463 169.959 53.8464 165.453 54.4816 161.239C55.2776 160.789 56.0459 160.311 56.7354 159.729ZM63.1496 143.322C63.4939 143.242 65.1105 141.784 65.9322 141.042C65.0573 142.367 64.9517 143.692 64.9517 143.692C65.1904 142.897 65.8789 141.466 66.1975 140.803C66.3296 140.698 66.4095 140.618 66.4095 140.618C66.4095 140.618 66.4628 140.962 66.4894 141.625C65.9854 143.109 65.1638 145.257 64.2623 146.157C64.2623 146.157 65.7467 145.389 66.5151 142.765C66.5417 143.587 66.5417 144.646 66.4894 145.999C66.3829 149.816 61.5587 152.73 61.5587 152.73C61.5587 152.73 61.4531 152.598 61.2943 152.333C61.9561 148.198 59.7299 144.17 55.4364 141.44C55.4364 141.228 55.463 141.042 55.5153 140.883C56.0726 139.531 57.1329 138.365 57.8746 137.649C57.6626 139.77 58.1932 141.201 58.1932 141.201C58.0068 139.743 57.9812 138.444 58.0335 137.517C58.431 137.146 58.7229 136.934 58.7229 136.934C58.8551 136.986 59.0148 137.066 59.1736 137.198C59.5978 138.524 60.2863 141.069 59.8365 142.844C59.8365 142.844 61.0024 140.83 59.439 137.437C61.029 139.001 63.1496 143.322 63.1496 143.322ZM54.1374 140.724C50.8775 139.028 45.0728 137.994 38.6586 138.789C37.757 135.794 37.6515 131.844 38.1022 130.599C38.4465 129.645 39.7455 129.353 40.6993 129.274C40.3551 131.844 39.7712 133.223 39.7712 133.223C40.5405 132.215 40.7259 130.281 40.7792 129.274C40.8581 129.274 40.9646 129.274 41.0435 129.247C41.2033 131.58 40.9913 133.223 40.9913 133.223C41.4411 131.765 41.2823 130.175 41.1501 129.247C41.5476 129.247 41.8129 129.247 41.8129 129.247C45.7356 135.874 44.8341 138.126 44.8341 138.126C44.8341 138.126 49.101 135.979 49.7639 134.416C50.1091 133.647 51.779 132.799 53.3423 132.773C52.786 133.409 51.4604 135.105 50.7187 137.385C50.7187 137.385 52.1765 134.681 53.4222 132.773C53.6077 132.773 53.7665 132.799 53.952 132.799C53.6077 133.621 53.0238 135.264 53.0504 137.305C53.0504 137.305 53.66 134.655 54.0841 132.826C55.3831 133.064 56.4168 134.018 56.1515 136.324C55.9927 137.782 55.3831 139.346 54.5349 140.936C54.4293 140.883 54.2962 140.803 54.1374 140.724ZM30.3624 140.936C28.2683 141.757 26.2276 142.844 24.2391 144.17C24.823 127.895 27.8975 126.888 27.8975 126.888C27.8442 127.444 27.8442 128.002 27.8708 128.558C27.4467 129.009 26.2808 130.308 26.1743 131.447C26.1743 131.447 26.705 130.466 27.8975 128.638C27.8975 128.664 27.8975 128.69 27.8975 128.69C26.7839 131.527 27.3668 135.423 27.3668 135.423C27.1547 133.461 27.8442 129.009 27.8975 128.717C28.2151 132.507 30.3624 136.112 30.3624 136.112C31.2895 136.006 35.2921 132.958 36.5645 131.951C36.5911 132.269 36.5645 132.826 36.3525 133.673C36.3525 133.673 36.8565 132.799 36.6178 131.898L36.6445 131.871C36.9088 132.507 37.3595 134.15 36.0082 136.218C36.0082 136.218 37.8902 134.204 36.6445 131.871C36.8565 131.712 36.962 131.606 36.962 131.606C36.962 131.606 37.5982 131.527 37.5183 138.948C35.3987 139.292 33.1981 139.823 31.0518 140.645C31.3694 138.842 31.4493 137.676 31.4493 137.676C31.184 138.709 30.7865 139.823 30.3624 140.936ZM19.4158 136.43C19.256 133.885 13.5845 149.921 13.1338 152.598C12.683 155.302 10.7488 132.985 14.3263 130.44C16.2615 129.062 19.3093 128.134 21.9596 127.419C20.9526 129.618 19.2304 130.069 19.2304 130.069C21.4832 129.724 22.0129 128.187 22.146 127.365C22.437 127.285 22.729 127.207 22.9933 127.127C22.4903 128.558 21.3244 131.182 19.0972 132.773C19.0972 132.773 22.0928 132.322 23.1265 127.073H23.1531C23.1797 128.002 23.232 130.281 22.8612 132.507C22.8612 132.507 23.9215 128.876 23.2853 127.021C24.9552 126.597 26.3065 126.225 26.8638 125.908C26.8638 125.908 23.5772 135.953 22.9677 141.042C22.3581 146.131 19.0706 148.834 15.1745 151.538C15.2278 151.565 19.5746 138.975 19.4158 136.43ZM11.4905 147.801C11.6493 148.861 6.40192 155.434 2.95561 156.494C2.95561 156.494 5.95116 149.312 5.79137 144.063C5.79137 144.063 1.28574 154.241 0.861603 157.555C0.861603 157.555 -3.32546 149.604 -1.68221 144.673C-1.68221 144.673 5.65921 141.678 10.9076 129.247L15.0956 128.955C15.0956 128.955 12.2589 130.758 11.8081 135.237C11.3317 139.716 11.3317 146.767 11.4905 147.801ZM-14.5906 145.574C-11.4362 140.698 -0.19873 133.355 -0.19873 133.355C-6.85069 135.37 -15.6243 143.534 -15.6243 143.534C-15.7831 137.914 -1.09928 126.676 0.0932159 125.854C1.28571 125.033 8.04519 125.854 8.04519 125.854C8.04519 125.854 8.12409 125.854 8.25725 125.881C5.44714 125.961 4.6255 127.631 4.6255 127.631C6.08333 126.252 8.12408 126.013 9.23767 125.987C9.55527 126.04 9.90051 126.093 10.1915 126.146C5.6592 126.756 4.01595 129.83 4.01595 129.83C5.65922 128.028 8.54821 126.888 10.1392 126.385C8.36278 130.36 5.97779 132.746 5.97779 132.746C8.30952 131.42 9.68845 128.107 10.298 126.332C10.4035 126.305 10.4835 126.278 10.5624 126.252C10.8011 126.332 10.9608 126.411 10.9608 126.517C10.9608 126.968 9.84726 131.023 4.67878 138.285C-0.4897 145.574 -14.5906 145.574 -14.5906 145.574ZM-41.0958 139.346C-25.9612 140.167 -16.3137 133.806 -16.3137 133.806C-28.6648 139.638 -36.166 137.252 -36.166 137.252C-24.7155 134.787 -9.87287 124.742 -8.52058 123.999C-7.88439 123.655 -7.24917 123.787 -6.77177 124.052C-8.2296 124.052 -9.2633 125.483 -9.2633 125.483C-7.99091 124.555 -7.06275 124.264 -6.55972 124.184L-6.53307 124.211L-12.3644 128.187C-9.63418 126.995 -7.38134 125.113 -6.45319 124.264C-6.13558 124.503 -5.92353 124.742 -5.92353 124.742C-6.5331 125.457 -10.4025 128.16 -11.0121 128.611C-11.6217 129.062 -10.8 129.247 -10.8 129.247C-9.36885 129.089 -7.2748 125.961 -6.1622 126.093C-5.73807 126.146 -5.39384 126.437 -5.15514 126.756C-8.68036 127.948 -9.60754 131.129 -9.60754 131.129C-8.8658 129.247 -6.26775 127.577 -5.07525 126.888C-5.02199 126.941 -4.99535 127.021 -4.94308 127.073C-6.37428 129.009 -8.12307 129.777 -8.12307 129.777C-6.32101 129.247 -5.34057 128.214 -4.80991 127.339C-4.65111 127.656 -4.59785 127.895 -4.59785 127.895C-24.9808 153.208 -41.0958 139.346 -41.0958 139.346ZM34.6559 97.7857C34.6826 97.7857 34.7092 97.7857 34.7092 97.7857C34.7092 97.7857 35.2389 97.9179 35.7695 98.1299C34.7092 99.9586 34.5238 101.841 34.5238 101.841C34.9213 100.383 35.5042 99.1636 36.0082 98.2355C36.4057 98.3953 36.7766 98.5807 36.8821 98.7661C37.0942 99.2169 37.7038 105.127 37.0419 109.713C36.3791 114.298 30.9719 115.862 30.9719 115.862C30.3091 109.21 33.9665 101.92 33.9665 101.92C30.68 105.446 29.4608 116.074 29.4608 116.074C25.4326 99.5345 32.5886 97.9711 34.3383 97.8123C32.6418 99.4556 32.0056 101.549 32.0056 101.549C32.8805 99.8797 33.8876 98.6073 34.6559 97.7857ZM42.7667 97.547C42.9255 97.7324 43.0843 97.9445 43.2964 98.1832C42.2104 99.4556 41.8652 100.992 41.8652 100.992C42.3692 99.7732 42.9255 98.8983 43.4029 98.2888C43.5883 98.5008 43.8004 98.6862 44.0125 98.8983C45.0728 99.8797 45.4436 106.453 45.2848 109.447C45.126 112.443 41.6274 115.146 41.6274 115.146C41.6274 115.146 41.7863 105.71 41.0968 106.904C40.434 108.096 40.3551 113.556 40.3551 113.556C38.1812 111.012 37.8103 104.332 38.34 100.887C38.8706 97.4405 42.316 96.8309 42.316 96.8309C42.316 96.8309 42.4748 97.0696 42.7401 97.4138C41.8129 97.8646 40.3018 98.8983 39.9043 101.151C39.8244 101.178 40.3817 99.0837 42.7667 97.547ZM46.5573 99.0048C46.6095 99.429 46.8482 100.092 47.7764 100.992C47.7764 100.992 46.7959 99.8797 46.6095 98.7928C46.6628 98.634 46.6894 98.5274 46.6894 98.5274C46.9814 98.5807 47.3523 98.7395 47.7231 98.9782C48.2794 99.6676 48.9156 100.78 48.8101 102.238C48.8101 102.238 49.3664 100.834 48.2538 99.3491C50.4267 101.125 53.2625 105.472 54.1906 109.898C55.3831 115.517 52.6795 116.949 52.6795 116.949C51.3282 115.385 49.2342 106.161 49.2342 106.161C48.6246 111.489 53.7931 120.156 53.7931 120.156C43.3763 113.689 45.8944 101.575 46.5573 99.0048ZM45.7622 118.989C45.7622 118.989 45.3115 114.934 45.9211 112.336C45.9477 112.336 45.9743 112.311 46 112.311C46 112.311 46.2919 114.776 52.8916 120.554C56.0992 123.363 53.2625 133.143 46.9814 135.316C46.9814 135.316 48.7834 126.49 46.6894 120.554C46.6894 120.554 46.9814 132.003 45.9477 134.787C45.9477 134.787 41.9717 130.069 41.6008 125.351C41.3089 121.666 41.6275 116.658 43.7471 113.954C43.615 115.12 43.5617 117.028 44.1446 118.194C44.1446 118.194 43.7471 115.279 44.2778 113.37C44.622 113.052 44.9662 112.787 45.3904 112.575C45.2316 114.033 44.9929 117.161 45.7622 118.989ZM36.5645 117.877C36.6444 116.207 37.0685 114.828 37.466 113.847C37.7037 113.794 37.9158 113.742 38.1279 113.715C37.9158 115.279 38.2611 117.479 38.2611 117.479C38.1279 116.021 38.2345 114.616 38.34 113.689C39.0028 113.556 39.4269 113.503 39.4269 113.503C39.4269 113.503 41.8918 122.409 39.7189 126.676C37.5449 130.944 31.3961 134.681 31.3961 134.681C31.3961 134.681 35.1333 123.522 34.7625 119.625C34.7625 119.625 31.6348 132.03 30.3624 133.461C30.3624 133.461 27.9764 132.985 28.9045 120.686C29.1965 116.922 33.2514 115.04 36.2459 114.166C35.8228 115.013 35.5841 115.756 35.5841 115.756C35.9017 115.12 36.1936 114.564 36.4846 114.086C36.7233 114.006 36.9621 113.954 37.1741 113.901C36.3791 115.809 36.5645 117.877 36.5645 117.877ZM12.6041 128.479C12.6041 128.479 25.326 118.221 24.2923 113.052C24.2923 113.052 16.2881 124.742 11.8614 126.756C11.8614 126.756 11.2252 111.807 24.9019 106.506C24.7165 107.141 24.4511 108.281 24.2923 110.402C24.2923 110.402 25.3793 107.221 26.0944 106.108C26.1743 106.082 26.2542 106.055 26.3065 106.029C26.3065 106.029 26.5984 106.877 26.9427 108.202C26.2808 109.447 24.9818 111.409 23.3386 112.099C23.3386 112.099 25.5115 111.86 26.9959 108.414C27.7643 111.25 28.798 116.048 28.2417 119.281C27.4467 124.131 23.5506 126.994 12.6041 128.479ZM27.9507 100.86C28.003 100.939 28.003 101.046 28.003 101.151C27.2346 102.265 26.1477 102.954 26.1477 102.954C26.9959 102.477 27.5 102.026 27.8176 101.655C27.3145 102.636 25.8833 103.988 25.0873 104.518C23.736 105.419 16.2615 110.958 15.0424 113.052C13.8499 115.146 10.1126 126.385 -2.18624 124.582C-2.18624 124.582 7.54115 121.587 11.1463 115.597C11.1463 115.597 3.35313 123.151 -3.67068 122.488C-3.67068 122.488 9.95278 114.113 14.0087 111.091C18.0635 108.096 24.5044 100.913 27.0492 100.595C27.5266 100.542 27.7909 100.621 27.9241 100.754C24.7431 102.106 22.9933 105.074 22.9933 105.074C24.1602 103.298 26.9693 101.47 27.9507 100.86ZM57.848 133.965C57.9545 132.11 57.5304 127.948 57.2384 125.51C57.3183 128.743 56.8676 134.787 56.8676 134.787C55.9661 134.336 54.164 129.538 54.164 129.538C54.164 129.538 54.9057 126.703 54.9057 124.662C54.9057 122.621 53.1036 117.24 53.1036 117.24C53.5278 116.87 54.3494 115.359 54.6414 114.828C54.6414 115.836 54.9057 117.691 56.6555 119.547C56.6555 119.547 54.959 117.453 54.7203 114.669L54.7469 114.642C54.959 114.855 55.171 115.04 55.3565 115.252C55.8338 117.002 56.2314 118.645 56.2314 118.645C56.2314 117.453 55.9927 116.419 55.7274 115.649C59.6767 119.971 60.737 125.086 60.8702 128.426C61.0556 132.003 57.848 133.965 57.848 133.965ZM-80.4827 140.989C-70.6755 146.237 -58.8284 143.322 -58.8284 143.322C-69.4563 144.965 -79.8732 139.266 -79.8732 139.266C-77.1696 139.187 -70.8086 139.107 -70.8086 139.107C-64.1557 141.042 -52.1755 140.459 -49.604 140.008C-46.6618 139.478 -45.3637 140.247 -44.7542 140.962C-47.5633 140.326 -50.1347 141.598 -50.1347 141.598C-47.4311 140.857 -45.6281 140.909 -44.7009 141.042C-44.6743 141.095 -44.6476 141.121 -44.621 141.174C-47.3778 141.228 -49.5242 142.924 -49.5242 142.924C-47.2447 141.732 -45.5492 141.36 -44.5677 141.254C-44.33 141.678 -44.2768 142.023 -44.2768 142.023C-70.2257 155.143 -80.4827 140.989 -80.4827 140.989ZM-52.1755 138.975C-76.0037 142.261 -86.4728 127.365 -86.4728 127.365C-40.8571 145.786 -10.4292 119.944 -10.4292 119.944C-55.3555 146.688 -87.7186 124.45 -87.7186 124.45C-43.4551 140.406 4.96975 111.091 14.0619 103.776C23.1531 96.46 36.0872 89.6217 44.0657 90.7353C52.0434 91.8479 55.754 102.185 58.1134 110.057C60.4727 117.929 65.6411 121.641 65.6411 121.641L65.5612 125.51C62.2747 124.318 58.8285 120.871 55.9661 111.436C53.1303 101.999 47.1402 95.5585 40.9913 95.2675C34.8414 94.9756 27.9507 96.6188 18.5143 105.763C9.07887 114.908 -7.24918 122.25 -7.24918 122.25C-20.2631 130.281 -28.3739 135.688 -52.1755 138.975ZM-50.2935 160.736C-50.2935 160.736 -42.6602 160.073 -39.85 157.82C-39.85 157.82 -53.1559 162.962 -63.4662 156.282C-63.4662 156.282 -42.8722 161.16 -35.3444 150.955C-35.3444 150.955 -47.0593 159.49 -61.7441 155.673C-61.7441 155.673 -46.2376 157.476 -40.9636 149.604C-40.9636 149.604 -47.4834 154.984 -56.4691 154.321C-56.4691 154.321 -47.8286 153.526 -40.7516 144.329C-40.7516 144.329 -38.2867 142.765 -35.9273 143.984C-33.5689 145.23 -29.6452 145.097 -28.506 144.779C-27.8166 144.567 -20.6339 142.288 -17.957 142.977C-23.0456 143.242 -26.9417 148.251 -26.9417 148.251C-22.8335 144.726 -19.3349 143.534 -17.8505 143.136C-20.7395 147.907 -23.0989 149.444 -23.6818 149.762C-20.4752 148.278 -18.4867 144.779 -17.6917 143.109H-17.665C-16.367 143.772 -16.4725 146.211 -18.9907 147.376C-18.9641 147.35 -31.5538 161.504 -50.2935 160.736ZM-40.7516 164.658C-40.7516 164.658 -27.0482 167.123 -16.9233 158.483C-16.9233 158.483 -26.0145 164.446 -38.048 163.545C-38.048 163.545 -30.6267 160.841 -28.2673 157.713C-25.908 154.56 -19.9445 150.08 -17.8248 149.285C-17.8248 149.285 -13.1061 147.138 -11.9935 146.714C-10.8799 146.264 -3.14002 145.892 -2.87568 145.866C-2.87568 145.866 -2.87568 145.866 -2.87568 145.892C-2.98122 145.892 -3.1144 145.919 -3.29984 145.945C-3.14005 145.919 -3.00785 145.919 -2.87568 145.892V145.919C-9.55426 147.589 -8.97135 152.333 -8.97135 152.333C-8.44168 148.41 -3.90937 146.369 -2.87568 145.945C-3.08775 148.013 -3.72395 152.359 -5.65819 154.798C-5.65819 154.798 -3.35209 153.129 -2.87568 147.562C-2.63698 151.087 -1.09927 157.237 -1.09927 157.237C-1.09927 157.237 -20.3154 178.15 -40.7516 164.658ZM-3.35209 164.102C-0.887199 161.743 1.02139 158.933 1.02139 158.933C4.12247 157.899 9.92715 151.803 10.8809 150.77C9.84725 152.042 7.17028 155.461 6.53409 157.476C6.53409 157.476 8.57486 154.375 11.0131 150.716C11.1196 152.254 11.0664 155.461 9.02561 157.847C9.02561 157.847 11.5171 155.753 11.3317 152.095C11.7292 153.261 12.392 154.56 12.392 154.56C12.975 154.533 14.1941 154.003 15.4931 153.393C14.6449 154.719 13.8755 156.15 13.1604 157.713C13.1338 157.793 13.1072 157.873 13.0805 157.925C10.8277 160.629 0.30529 172.186 -13.2126 170.278C-13.2393 170.278 -6.10894 166.752 -3.35209 164.102ZM-7.06276 175.446C-7.06276 175.446 -0.834915 175.049 1.63096 171.019C1.63096 171.019 -3.14005 174.279 -10.7744 172.08C-10.7744 172.08 3.24758 172.557 12.9217 158.244C11.2252 162.193 10.6423 165.983 10.9076 169.561C4.25465 175.127 -0.357552 175.844 -7.06276 175.446ZM16.0761 174.915C15.7318 174.254 15.4132 173.591 15.1213 172.901C15.0956 172.848 15.0956 172.796 15.069 172.742C14.9358 172.398 14.777 172.053 14.6715 171.682C14.2996 170.622 14.0087 169.535 13.7966 168.474C13.7167 168.025 13.6378 167.574 13.5845 167.123C13.478 166.328 13.3991 165.533 13.3725 164.764C13.2403 160.365 14.6981 156.177 17.2153 152.493C19.045 149.816 21.43 147.403 24.2134 145.416C25.9622 144.143 27.8708 143.056 29.8583 142.181C30.2035 142.023 30.5478 141.89 30.892 141.732C33.0393 140.857 35.2921 140.22 37.5716 139.85C38.049 139.77 38.4997 139.716 38.9761 139.664C41.7596 139.346 44.5688 139.425 47.3256 139.982C49.9227 140.511 52.1232 141.281 53.8987 142.181C54.668 142.579 55.3831 143.003 55.9927 143.454C58.8551 145.521 60.1541 148.039 59.9953 150.478C59.9154 151.697 59.4912 152.864 58.7495 153.924C58.5641 154.188 58.3787 154.427 58.14 154.666C58.0601 154.772 57.9545 154.851 57.8746 154.931C57.6626 155.17 57.3972 155.382 57.1595 155.594C57.0796 155.673 56.9731 155.726 56.8942 155.806C56.4967 156.123 56.0459 156.415 55.5686 156.68C55.2243 156.865 54.8801 157.052 54.5082 157.21C54.1373 157.369 53.7132 157.528 53.3157 157.688C52.8127 157.873 52.2821 158.032 51.6991 158.164C51.567 158.191 51.4604 158.217 51.3549 158.244C47.4578 159.171 44.0391 159.357 41.2033 159.171C39.9832 159.092 38.8707 158.959 37.8902 158.8C36.8299 158.615 35.9284 158.403 35.16 158.191C35.0535 158.164 34.9479 158.138 34.8414 158.085C33.7022 157.74 32.9328 157.422 32.6152 157.264C32.5097 157.21 32.4297 157.184 32.4031 157.157C30.2035 161.424 30.2302 164.844 31.687 167.574C31.8202 167.839 31.979 168.077 32.1378 168.316C32.6684 169.137 33.3569 169.907 34.1263 170.595C34.3117 170.754 34.4971 170.914 34.6826 171.073C34.7359 171.126 34.7891 171.152 34.8414 171.205C35.3188 171.602 35.8485 171.947 36.4057 172.318C46.5839 178.706 66.7804 178.838 67.9463 178.838C67.9729 178.838 67.9996 178.838 67.9996 178.838V180.853V183.159C67.7086 183.212 67.4432 183.291 67.2045 183.318C64.6331 183.901 59.5445 185.279 54.2695 187.48C43.8537 186.897 29.594 184.219 21.8275 174.518C21.5355 174.147 21.2445 173.776 20.9792 173.379C20.7938 173.113 20.6083 172.821 20.4229 172.53C20.0254 171.894 19.6279 171.258 19.2827 170.569C18.9385 169.907 18.6208 169.217 18.3289 168.474C18.2224 168.21 18.1168 167.971 18.0113 167.706C17.6661 166.752 17.3484 165.745 17.1098 164.712C17.0299 164.34 16.951 163.995 16.8711 163.625C16.5791 162.22 16.3937 160.709 16.3148 159.119C16.3148 159.119 15.8373 161.292 16.1293 164.473C16.1549 164.87 16.2082 165.294 16.2881 165.719C16.4469 166.752 16.6856 167.892 17.0565 169.058C17.1364 169.323 17.2419 169.615 17.3218 169.88C17.4806 170.33 17.666 170.807 17.8515 171.258C18.1168 171.868 18.4088 172.477 18.753 173.087C18.8585 173.272 18.9385 173.432 19.045 173.617C19.2827 174.015 19.548 174.439 19.8133 174.836C22.9144 179.501 28.4804 184.166 38.3143 187.161C42.316 188.38 45.9743 189.228 49.2342 189.786C48.0151 190.447 46.8482 191.137 45.7356 191.905C29.7262 189.626 20.3164 182.867 16.0761 174.915ZM84.7773 242.902C88.1704 243.776 95.1143 249.289 95.0354 251.834C94.9555 254.696 92.7293 257.321 84.3799 259.865L84.7773 242.902ZM82.5245 260.395C80.0863 261.058 77.1972 261.72 73.8042 262.383C73.6187 255.757 73.4333 249.263 73.2479 243.087C76.1636 242.345 78.8671 241.762 80.4305 241.365C81.0667 241.205 81.9416 240.967 82.9753 240.702L82.5245 260.395ZM70.1734 258.009C68.397 257.214 58.5907 252.629 60.1008 249.157C60.9757 247.17 65.2437 245.446 69.7759 244.094L70.1734 258.009ZM74.255 278.074C76.5078 277.518 79.1848 276.908 82.1537 276.14L81.8884 287.086C79.9541 288.093 77.436 289.259 74.5992 290.479C74.5203 286.423 74.3871 282.262 74.255 278.074ZM83.9557 280.062C85.3603 280.725 87.1367 282.819 85.7321 284.621C85.4402 284.992 84.7774 285.496 83.8235 286.052L83.9557 280.062ZM72.373 335.696C71.7368 335.326 70.6498 334.584 69.5372 333.417C67.9729 331.747 69.2453 331.615 72.2409 331.43L72.373 335.696ZM76.1369 337.737C76.0837 336.439 76.0047 334.08 75.8716 330.925C77.4626 330.608 79.2646 330.157 80.9345 329.733L80.5893 344.788C79.4767 346.033 78.0721 347.332 76.5078 348.631C76.5078 348.631 76.5078 348.631 76.4812 348.658C76.4023 346.167 76.349 342.668 76.1369 337.737ZM82.6567 338.4C83.8768 338.957 83.6904 340.389 82.5778 342.191L82.6567 338.4ZM82.7899 359.022C80.5637 363.819 78.3631 365.303 77.2505 363.951C76.4023 362.918 77.4093 361.248 78.231 360.055C79.6355 358.015 79.8475 356.185 79.4501 354.727C80.8812 353.773 82.1803 352.819 82.1803 352.819C82.8431 352.289 83.4527 351.759 84.009 351.229C84.2743 352.952 84.301 355.787 82.7899 359.022ZM89.5483 336.094C90.0524 341.528 87.2689 346.325 80.9345 351.176C80.5636 351.467 80.1652 351.759 79.742 352.05C79.3436 352.342 78.9194 352.634 78.4963 352.925C78.1777 353.137 77.8335 353.376 77.4883 353.588C77.436 353.614 77.4093 353.641 77.356 353.668C73.9896 355.841 73.0891 355.602 72.6117 354.966C71.7634 353.853 72.7705 352.952 73.6986 352.448C74.2017 352.183 75.2886 351.388 76.6143 350.328C76.9852 350.009 77.3827 349.692 77.7802 349.347C78.6551 348.605 79.5556 347.783 80.3772 346.935C80.4305 346.882 80.4838 346.829 80.5371 346.776C81.0401 346.272 81.4908 345.769 81.915 345.292C84.4331 342.323 87.9583 336.015 82.8165 332.49C82.6311 332.357 82.4446 332.224 82.2336 332.119L82.2592 331.456C82.4713 331.508 82.6567 331.588 82.8431 331.668C85.7055 332.966 86.2618 337.128 86.2618 337.128C86.3683 333.02 83.9823 330.952 82.8687 330.21C82.5511 329.998 82.3391 329.892 82.3391 329.892L82.3657 329.468V329.335C82.5511 329.282 82.71 329.229 82.8954 329.203C83.3728 329.07 83.8235 328.965 84.1944 328.831C85.2814 328.54 85.9699 328.328 85.9699 328.328C86.0498 328.302 86.1297 328.275 86.2086 328.249C87.6141 330.025 89.2307 332.702 89.5483 336.094ZM95.8837 300.153C97.6324 302.724 100.521 314.36 92.2253 320.483C89.1508 322.762 85.9698 323.982 82.9486 324.723C82.3124 324.882 81.6496 325.015 81.0134 325.147C79.1315 325.518 77.356 325.73 75.6862 325.942C74.3871 326.102 73.1946 326.288 72.082 326.526C70.1734 326.949 68.5825 327.586 67.4965 328.779C64.3954 332.198 70.9418 336.147 72.3997 336.942C72.5585 337.049 72.665 337.101 72.665 337.101V343.834C72.665 343.834 72.6384 343.834 72.5851 343.807C71.7901 343.516 64.4743 340.547 60.8702 333.948C58.0334 328.753 62.3803 324.273 67.8674 321.675C68.5302 321.357 69.192 321.093 69.8815 320.827C70.279 320.668 70.7031 320.535 71.1006 320.403C71.3393 320.323 71.578 320.244 71.8167 320.191C71.8434 320.191 71.8956 320.164 71.9223 320.164C72.5851 319.979 73.2479 319.82 73.9107 319.688C74.4138 319.581 74.9444 319.476 75.5007 319.369C77.3827 318.972 79.3435 318.521 81.1989 317.938C81.8617 317.726 82.4979 317.514 83.1075 317.275C86.9779 315.818 90.079 313.645 90.4232 310.119C90.9272 304.898 88.2759 301.611 85.2547 299.199C84.6984 298.749 84.1145 298.325 83.5316 297.927C83.214 297.715 82.8954 297.503 82.6044 297.291C82.4712 297.211 82.3391 297.105 82.2069 297.026C82.2069 297.026 82.5778 296.893 83.1341 296.734C83.214 296.76 83.2929 296.814 83.4783 296.893C83.505 296.893 83.5316 296.919 83.5582 296.919C84.1678 297.184 85.2814 297.715 86.5005 298.616C88.2759 299.888 90.291 301.929 91.3247 304.951C91.3247 304.951 92.0931 302.035 87.8518 297.927C87.2156 297.291 86.4473 296.655 85.5467 295.965C86.0231 295.806 86.4738 295.673 86.7658 295.568C87.9583 295.197 90.2112 294.137 90.6087 293.845C90.6087 293.845 91.165 294.454 91.9609 295.329C93.2323 296.814 95.062 298.908 95.8837 300.153ZM83.3994 304.368C88.6734 306.011 91.0328 311.868 85.4668 315.208C84.7241 315.659 83.9557 316.03 83.1341 316.348L83.3994 304.368ZM81.2255 316.984C79.3968 317.541 77.4626 317.938 75.4741 318.336C75.3419 313.671 75.1565 308.423 74.9967 302.804C75.9515 302.459 77.0118 302.114 78.1511 301.77C79.3702 301.399 80.5104 301.028 81.5973 300.656L81.2255 316.984ZM71.8433 316.958C69.5905 315.791 60.1275 309.881 71.4715 304.288L71.8433 316.958ZM96.7842 275.769C98.03 279.532 97.8445 289.207 90.0524 293.262C88.3026 294.19 86.0231 294.958 83.5849 295.727C82.9487 295.912 82.3391 296.124 81.6763 296.309C79.3968 296.999 77.0641 297.741 74.8379 298.589C73.6188 299.066 72.4263 299.57 71.3393 300.127C67.4965 302.114 64.6598 304.766 64.5809 308.82C64.4477 314.174 70.3322 317.249 71.8433 317.938C72.082 318.044 72.2142 318.097 72.2142 318.097L72.1077 319.077C72.0288 319.104 71.9489 319.104 71.8956 319.131C69.5106 319.74 67.1513 320.51 65.0316 321.755C61.6119 318.866 58.2189 314.996 57.848 310.914C57.1062 302.538 61.5853 296.681 68.185 294.137C68.4237 294.057 68.6623 293.951 68.901 293.871C69.2186 293.739 69.5639 293.606 69.9081 293.474C70.2524 293.342 70.6242 293.208 70.9951 293.05C71.0474 293.023 71.1006 292.996 71.1539 292.996C71.3127 292.917 71.4981 292.864 71.6579 292.784C72.6117 292.413 73.6188 292.016 74.6525 291.592C77.144 290.558 79.6888 289.445 81.8884 288.305C82.5512 287.961 83.1874 287.589 83.7969 287.245C85.891 285.973 87.3754 284.7 87.6664 283.534C88.4614 280.38 87.402 277.093 85.308 275.345C85.0161 275.106 84.7241 274.894 84.3799 274.708V274.124C85.1226 274.39 85.7844 274.708 86.3417 275.053C91.5891 278.313 89.1508 284.727 89.1508 284.727C91.7222 280.274 89.7604 276.828 87.6141 274.682C86.2086 273.303 84.7507 272.456 84.3799 272.269V270.176L90.9006 268.346C90.9006 268.346 93.1268 270.096 94.9022 272.402C95.6982 273.463 96.4133 274.602 96.7842 275.769ZM107.731 245.552C108.924 253.345 106.035 262.807 91.3247 267.419L88.4091 268.241C86.9512 268.638 85.5201 268.983 84.1944 269.328C83.5582 269.487 82.9487 269.645 82.3125 269.778C79.1848 270.547 76.4289 271.183 74.0695 271.845C72.7972 272.19 71.6313 272.561 70.571 272.932C66.4362 274.416 64.21 276.245 64.1301 279.585C64.0235 284.065 70.3056 285.708 70.9152 285.867V284.462C70.9152 284.462 65.8789 283.19 66.3829 281.255C66.595 280.38 68.185 279.691 70.7564 278.975L70.9418 285.867C70.9684 285.867 70.9951 285.867 70.9951 285.867V287.351L71.1272 291.963C71.1006 291.989 71.074 291.989 71.0217 292.016L70.9951 289.816V292.016C70.7564 292.122 70.5177 292.228 70.279 292.308C68.2116 291.857 64.0502 290.399 59.0938 285.84C59.0938 285.84 61.9039 290.453 68.6091 292.996C68.2915 293.13 67.9729 293.262 67.6286 293.394C64.4743 292.201 59.8098 289.683 56.4967 284.595C52.1232 277.862 56.7611 269.487 65.5879 265.484L66.0909 265.272H66.0653C67.3899 264.689 68.8211 264.238 70.3056 263.867C70.9684 263.709 71.6312 263.575 72.3197 263.47C72.8237 263.39 73.3011 263.311 73.8042 263.231C76.9053 262.702 79.821 262.092 82.4713 261.376C83.1075 261.19 83.717 261.032 84.3266 260.846C91.2182 258.726 96.0425 255.81 97.0229 251.807C98.2154 246.798 95.2208 242.928 89.0709 239.005C90.1056 238.714 91.165 238.423 92.1987 238.131C95.0088 239.959 98.1631 243.035 99.1968 248.043C99.1968 248.043 99.9386 242.345 94.4781 237.468C97.951 236.487 100.867 235.639 101.767 235.375C104.232 237.654 107.069 241.126 107.731 245.552ZM116.716 206.669C118.678 214.488 116.716 226.76 100.628 233.095C100.283 233.227 99.9119 233.36 99.541 233.493C98.6928 233.81 97.8445 234.102 96.944 234.367C95.3264 234.844 93.763 235.295 92.1987 235.692C91.165 235.958 90.1313 236.222 89.0975 236.461C88.0639 236.699 87.0302 236.938 86.0498 237.177C85.6789 237.256 85.2814 237.336 84.9105 237.442C84.6452 237.494 84.4065 237.548 84.1412 237.601C83.7703 237.68 83.4261 237.76 83.0552 237.84C79.4767 238.635 76.1369 239.297 73.168 240.039C71.9489 240.331 70.783 240.649 69.696 240.993C63.8647 242.743 60.0219 245.022 59.3591 249.342C58.5641 254.352 69.3518 259.6 70.2524 260.025C70.279 260.05 70.3056 260.05 70.3056 260.05V262.356V262.754C67.894 263.47 65.9322 264.238 64.4477 264.901C61.8506 264.133 56.4967 261.88 50.5332 255.466C50.5332 255.466 53.66 262.144 62.4602 265.882C61.6119 266.332 61.1611 266.624 61.1611 266.624C55.966 264.292 51.4338 261.8 48.5714 253.981C45.3904 245.288 49.6051 239.032 55.6218 234.685C57.1852 233.572 58.8551 232.565 60.5516 231.69C61.3466 231.266 62.1682 230.895 62.9898 230.524C64.9517 229.649 66.8869 228.907 68.6624 228.324C68.9011 228.244 69.1397 228.164 69.3784 228.086C69.6161 228.006 69.8815 227.926 70.1202 227.847C70.5443 227.714 70.9684 227.582 71.3659 227.476C71.8956 227.316 72.3996 227.184 72.8504 227.052C74.5726 226.574 75.7927 226.336 76.1636 226.257C76.8787 226.124 79.7677 225.673 83.3994 224.878C83.9824 224.746 84.5919 224.613 85.2281 224.454C92.7027 222.652 102.086 219.365 102.536 213.958C102.986 208.471 99.5411 203.86 95.0088 200.44C92.2253 198.346 89.0187 196.703 86.0764 195.616C86.0764 195.616 86.9246 195.537 88.3292 195.404C90.1313 195.961 93.763 197.339 97.0761 200.201C100.071 202.8 102.828 206.616 103.756 212.129C103.756 212.129 106.167 206.457 99.9652 199.777C98.4541 198.161 96.4133 196.464 93.7097 194.794C98.242 194.238 103.888 193.416 107.864 192.436C107.864 192.436 109.878 194.158 112.052 197.074C113.801 199.565 115.736 202.853 116.716 206.669ZM75.2354 202.083L76.7198 217.298L76.852 201.898C78.9993 201.659 81.332 201.447 83.8768 201.342L83.3728 222.864C81.0667 223.473 78.4164 224.056 75.3685 224.666C74.467 224.825 73.5921 225.037 72.7172 225.249C72.373 212.844 72.1077 204.098 72.082 202.614C73.0891 202.402 74.1228 202.242 75.2354 202.083ZM85.6789 201.501C96.7576 203.329 99.7531 213.083 98.6395 215.097C97.7656 216.688 95.3797 219.497 85.2281 222.36L85.6789 201.501ZM69.1131 220.664C67.5488 220.346 57.4239 218.12 52.7062 212.5L52.8127 212.049C52.8127 212.049 54.7469 206.43 68.6091 203.25L69.1131 220.664ZM138.955 173.988C138.955 173.988 138.928 173.962 138.875 173.882V173.855C138.901 173.908 138.955 173.935 138.955 173.988ZM137.205 170.648C137.099 170.966 137.019 171.285 136.914 171.602C136.834 171.814 136.781 172 136.702 172.212C136.515 172.716 136.33 173.193 136.118 173.643C136.092 173.696 136.092 173.723 136.066 173.776C135.88 174.2 135.668 174.624 135.456 175.049C134.66 176.559 133.733 177.858 132.752 178.838C127.902 183.689 118.598 192.117 85.8377 194.848C85.2547 194.901 84.6452 194.954 84.0356 195.006C83.9557 195.006 83.8502 195.033 83.7703 195.033C81.3054 195.218 79.026 195.457 76.9053 195.722C73.6987 196.12 70.8886 196.597 68.4237 197.154C68.3181 197.18 68.185 197.207 68.0795 197.234C67.8407 197.286 67.6287 197.339 67.4166 197.392C49.9227 201.527 50.983 208.79 50.983 209.743C50.983 210.936 50.2413 217.351 69.1664 221.989C69.192 221.989 69.2453 222.016 69.2719 222.016L69.8282 226.045C69.6428 226.097 69.484 226.15 69.2985 226.204C67.39 226.76 65.5346 227.396 63.7326 228.112C58.4576 227.37 49.897 224.958 42.6079 217.298C42.6079 217.298 45.6025 225.382 59.942 229.782C59.2003 230.153 58.4842 230.524 57.7691 230.895C50.2413 228.324 41.7863 223.977 39.2947 217.059C36.0082 207.888 38.0756 201.183 42.5014 196.252C43.8537 194.742 45.4436 193.39 47.1668 192.197C48.2538 191.456 49.393 190.766 50.5855 190.13C52.3885 189.149 54.2695 188.328 56.1258 187.585C60.4194 185.942 64.6864 184.881 67.9729 184.272C67.9995 184.272 68.0262 184.272 68.0795 184.245C68.0795 184.245 68.0794 184.245 68.106 184.245C69.5639 183.981 70.8363 183.769 71.8167 183.636C73.0891 183.477 74.8911 183.212 77.0384 182.894C79.1847 182.575 81.6763 182.178 84.3799 181.701C84.9628 181.595 85.5723 181.489 86.1563 181.383C97.2083 179.422 110.858 176.347 117.353 172.424C118.148 171.947 118.81 171.443 119.367 170.94C119.817 170.516 120.215 170.092 120.48 169.668C120.719 169.296 120.931 168.925 121.143 168.581C121.302 168.316 121.434 168.077 121.567 167.813C124.588 162.035 122.601 158.986 120.692 157.635C120.612 157.581 120.534 157.528 120.427 157.476C119.42 156.84 118.466 156.654 118.386 156.813C118.386 156.813 118.36 156.813 118.306 156.84C118.227 156.865 118.121 156.892 117.935 156.972C117.379 157.157 116.266 157.476 114.729 157.767C113.747 157.952 112.582 158.138 111.256 158.271C110.276 158.376 109.189 158.456 108.049 158.483C106.009 158.535 103.57 158.191 101.184 157.528C100.521 157.343 99.8587 157.13 99.1968 156.918C98.9048 156.813 98.5872 156.706 98.2953 156.601C97.8978 156.442 97.5269 156.282 97.1294 156.123C96.7053 155.938 96.3078 155.753 95.9093 155.54C95.8304 155.514 95.7505 155.461 95.6982 155.408C95.4862 155.302 95.2998 155.196 95.1143 155.09C95.0354 155.036 94.9555 155.01 94.9022 154.958C94.3459 154.612 93.8162 154.268 93.3389 153.897C92.7027 153.393 92.1464 152.864 91.7222 152.306C91.2182 151.671 90.8474 150.982 90.6886 150.265C89.8936 146.581 92.2785 143.878 97.4204 142.129C97.8445 141.996 98.2953 141.837 98.7727 141.705C99.9918 141.36 101.343 141.069 102.828 140.803C105.823 140.299 109.56 140.274 113.457 140.83C114.145 140.936 114.834 141.042 115.524 141.174C117.83 141.625 120.136 142.261 122.389 143.136C122.839 143.322 123.316 143.507 123.767 143.692C125.517 144.461 127.212 145.362 128.776 146.423C130.791 147.801 132.646 149.392 134.13 151.299C134.289 151.511 134.448 151.697 134.581 151.909C137.709 156.203 138.583 161.292 138.133 165.983C138.08 166.434 138.026 166.858 137.973 167.309C137.761 168.422 137.523 169.561 137.205 170.648ZM156.262 164.102C159.046 166.752 166.148 170.278 166.148 170.278C150.882 172.424 139.405 157.369 139.405 157.369C149.08 172.584 163.683 172.08 163.683 172.08C156.05 174.279 151.279 171.019 151.279 171.019C153.744 175.075 159.973 175.446 159.973 175.446C152.498 175.87 147.622 174.942 139.643 167.441C139.776 162.538 138.848 157.369 136.304 152.81C138 153.685 139.776 154.507 140.518 154.56C140.518 154.56 141.181 153.261 141.578 152.095C141.393 155.753 143.884 157.847 143.884 157.847C141.844 155.461 141.79 152.254 141.897 150.716C144.335 154.375 146.376 157.476 146.376 157.476C145.766 155.461 143.063 152.042 142.029 150.77C142.983 151.777 148.788 157.899 151.889 158.933C151.889 158.933 153.797 161.743 156.262 164.102ZM190.985 163.545C178.951 164.446 169.86 158.483 169.86 158.483C179.958 167.123 193.688 164.658 193.688 164.658C173.252 178.15 154.036 157.184 154.036 157.184C154.036 157.184 155.573 151.06 155.811 147.51C156.289 153.102 158.595 154.745 158.595 154.745C156.66 152.306 156.023 147.959 155.811 145.892C156.845 146.316 161.352 148.331 161.908 152.281C161.908 152.281 162.491 147.562 155.811 145.866V145.84C155.971 145.84 156.103 145.866 156.236 145.892C156.05 145.866 155.918 145.84 155.811 145.84C155.811 145.84 155.811 145.84 155.811 145.813C156.077 145.813 163.843 146.211 164.929 146.661C166.043 147.112 170.761 149.232 170.761 149.232C172.908 150.027 178.845 154.507 181.204 157.661C183.562 160.841 190.985 163.545 190.985 163.545ZM209.406 154.321C200.42 154.984 193.899 149.604 193.899 149.604C199.174 157.476 214.68 155.673 214.68 155.673C199.996 159.49 188.281 150.955 188.281 150.955C195.808 161.133 216.403 156.282 216.403 156.282C206.066 162.935 192.787 157.82 192.787 157.82C195.596 160.073 203.229 160.736 203.229 160.736C184.464 161.531 171.874 147.376 171.874 147.376C169.356 146.237 169.249 143.772 170.548 143.109H170.575C171.37 144.779 173.359 148.305 176.565 149.762C176.009 149.444 173.65 147.907 170.734 143.136C172.245 143.507 175.717 144.726 179.825 148.251C179.825 148.251 175.902 143.242 170.84 142.977C173.517 142.261 180.7 144.567 181.389 144.779C182.502 145.124 186.451 145.23 188.811 143.984C191.17 142.739 193.635 144.329 193.635 144.329C200.764 153.526 209.406 154.321 209.406 154.321ZM232.81 139.266C232.81 139.266 222.393 144.965 211.764 143.322C211.764 143.322 223.586 146.237 233.419 140.989C233.419 140.989 223.161 155.143 197.239 142.049C197.239 142.049 197.266 141.705 197.531 141.281C198.511 141.386 200.208 141.757 202.487 142.951C202.487 142.951 200.367 141.254 197.584 141.201C197.611 141.148 197.637 141.121 197.663 141.069C198.565 140.936 200.367 140.883 203.097 141.625C203.097 141.625 200.526 140.353 197.716 140.989C198.299 140.247 199.625 139.504 202.567 140.035C205.138 140.486 217.092 141.095 223.771 139.134C223.744 139.134 230.106 139.187 232.81 139.266ZM239.41 127.365C239.41 127.365 228.913 142.261 205.111 138.975C181.283 135.688 173.199 130.281 160.185 122.197C160.185 122.197 143.858 114.855 134.422 105.71C124.986 96.5666 118.094 94.9223 111.945 95.2143C105.796 95.5063 99.8064 101.947 96.9696 111.383C94.1339 120.818 90.6886 124.264 87.3754 125.457L87.4543 121.481C88.3292 120.792 92.7027 117.107 94.8233 110.031C97.1817 102.159 100.892 91.8212 108.871 90.7086C116.849 89.595 129.757 96.4334 138.875 103.749C147.966 111.038 196.391 140.379 240.655 124.423C240.655 124.423 208.292 146.661 163.366 119.917C163.339 119.944 193.794 145.786 239.41 127.365ZM176.672 149.816C176.645 149.816 176.618 149.789 176.592 149.762C176.618 149.789 176.645 149.789 176.672 149.816ZM156.209 145.919C164.029 146.74 164.956 152.705 164.956 152.705C162.915 147.376 157.959 146.184 156.209 145.919ZM122.68 95.5851C121.885 95.1876 109.163 89.1976 102.51 97.0164C102.483 97.043 107.281 87.6864 122.68 95.5851ZM191.01 129.009C191.01 129.009 205.244 132.454 220.67 130.281C220.67 130.281 207.497 133.197 191.01 129.009ZM229.734 132.905C229.734 132.905 225.547 136.191 216.111 136.642C216.111 136.642 225.097 135.608 229.734 132.905ZM63.3874 127.207C63.3874 127.207 65.005 127.948 66.4362 129.565L66.4894 130.944C65.4025 129.486 63.8914 127.498 63.3874 127.207ZM-23.7617 149.816C-23.735 149.789 -23.7084 149.789 -23.6818 149.762C-23.7084 149.789 -23.735 149.789 -23.7617 149.816ZM-3.29984 145.919C-5.04863 146.184 -9.97839 147.376 -12.0458 152.705C-12.0458 152.705 -11.1186 146.74 -3.29984 145.919ZM30.2558 95.5851C45.6557 87.6864 50.4267 97.0164 50.4267 97.0164C43.7471 89.1976 31.0518 95.1876 30.2558 95.5851ZM-38.1012 129.009C-54.5871 133.197 -67.7598 130.281 -67.7598 130.281C-52.3343 132.454 -38.1012 129.009 -38.1012 129.009ZM-76.8254 132.905C-72.1866 135.608 -63.2009 136.642 -63.2009 136.642C-72.6107 136.191 -76.8254 132.905 -76.8254 132.905ZM42.2104 146.343C42.2104 146.343 43.5617 146.635 44.9406 146.873C45.1517 146.9 45.3638 146.952 45.5759 146.979C46.2653 147.085 46.9281 147.164 47.3522 147.164C48.7302 147.164 49.5518 148.57 48.4392 148.782C47.8553 148.888 46.7693 149.153 45.5759 148.914C45.3115 148.861 45.0195 148.782 44.7542 148.675C43.8537 148.331 42.9521 147.642 42.2104 146.343ZM34.365 155.858C33.569 155.54 33.1449 155.328 33.1449 155.328C33.5433 155.434 33.9142 155.514 34.2851 155.594C34.3906 155.619 34.4971 155.646 34.6293 155.673C35.7962 155.911 36.8821 156.123 37.9425 156.256C39.7189 156.494 41.3355 156.548 42.82 156.521C44.3044 156.468 45.6291 156.309 46.8748 156.07C46.9814 156.044 47.0869 156.018 47.2201 155.991C49.0754 155.594 50.6388 154.984 51.9644 154.295C52.0966 154.215 52.2288 154.163 52.362 154.083C52.8916 153.791 53.369 153.5 53.8197 153.181C56.8676 151.06 58.0068 148.702 58.0068 148.702C56.7088 151.723 54.9856 153.817 53.0237 155.222C52.4408 155.646 51.8579 155.991 51.2483 156.309C51.1428 156.362 51.0097 156.415 50.8775 156.468C49.3664 157.184 47.7498 157.581 46.1597 157.74C44.7286 157.899 43.323 157.873 41.9717 157.74C40.6194 157.608 39.348 157.369 38.2078 157.077C36.8298 156.733 35.6364 156.335 34.7625 155.991C34.6293 155.965 34.4971 155.911 34.365 155.858ZM105.796 145.707C106.194 145.68 106.804 145.574 107.466 145.442C107.599 145.416 107.731 145.389 107.864 145.362C109.295 145.045 110.832 144.646 110.832 144.646C110.037 146.104 109.03 146.82 108.023 147.164C107.784 147.244 107.572 147.298 107.36 147.324C106.326 147.51 105.372 147.35 104.842 147.271C103.702 147.138 104.444 145.786 105.796 145.707ZM108.764 154.772C114.888 154.56 119.5 152.598 119.5 152.598C115.868 154.612 112.635 155.619 109.746 155.991C108.447 156.15 107.228 156.203 106.114 156.15C106.009 156.15 105.929 156.123 105.849 156.123C104.206 156.018 102.722 155.699 101.45 155.275C101.316 155.222 101.184 155.196 101.052 155.143C100.521 154.958 100.045 154.772 99.5943 154.56C96.8907 153.34 95.4595 151.856 95.4595 151.856C96.7053 152.518 97.951 153.049 99.1968 153.473C99.6466 153.632 100.097 153.764 100.521 153.871C100.628 153.897 100.734 153.924 100.867 153.976C102.112 154.295 103.358 154.507 104.551 154.639C104.763 154.666 105.001 154.692 105.214 154.692C106.433 154.798 107.625 154.798 108.764 154.772ZM135.005 163.837C135.005 163.837 135.429 165.533 135.164 168.077C135.137 168.396 135.084 168.74 135.032 169.085C134.925 169.695 134.793 170.356 134.581 171.046C134.396 171.682 134.157 172.345 133.865 173.033C133.786 173.245 133.706 173.432 133.601 173.643C133.414 174.041 133.202 174.466 132.965 174.889C130.181 179.819 124.138 185.227 111.336 188.407C102.483 190.607 94.2404 191.508 85.8909 192.648C85.2814 192.727 84.6984 192.807 84.0889 192.887C82.922 193.045 81.7295 193.231 80.5637 193.416C79.3436 193.602 78.1244 193.814 76.9319 193.999C73.963 194.503 71.1006 195.086 68.397 195.749C68.2915 195.776 68.185 195.802 68.0795 195.828C66.4628 196.225 64.9251 196.676 63.4672 197.154C54.5349 200.096 48.6246 204.681 49.4729 212.818C49.4729 212.818 45.2316 203.409 59.1736 196.968C60.3661 196.412 61.6918 195.881 63.1763 195.378C64.7929 194.848 66.4095 194.344 68.0795 193.894C68.1584 193.867 68.2382 193.84 68.3448 193.814C71.1539 193.045 74.0429 192.409 76.9585 191.826C79.3435 191.349 81.7562 190.925 84.1678 190.527C84.7773 190.422 85.3603 190.342 85.9699 190.235C105.187 187.161 124.005 185.571 131.586 174.651C131.851 174.279 132.09 173.882 132.328 173.484C132.487 173.22 132.646 172.955 132.779 172.663C133.123 172 133.414 171.311 133.68 170.595C133.972 169.827 134.21 169.005 134.422 168.157C134.501 167.839 134.555 167.521 134.634 167.203C134.793 166.143 134.925 165.029 135.005 163.837ZM84.2477 266.783C90.3966 265.325 96.7053 263.258 101.555 258.592C101.555 258.592 98.4008 265.325 84.804 268.134C84.5919 268.188 84.4065 268.214 84.1944 268.268C83.5582 268.4 82.922 268.532 82.3125 268.665C79.1059 269.328 76.3756 269.937 74.0163 270.599C72.7439 270.945 71.578 271.315 70.5177 271.74C66.2507 273.356 63.6793 275.503 62.1949 279.4C62.1949 279.4 62.2748 273.754 69.4307 270.706C69.776 270.574 70.1202 270.44 70.4644 270.308C71.5514 269.884 72.7439 269.54 73.963 269.195C76.561 268.48 79.4234 267.922 82.3391 267.26C83.0019 267.075 83.6115 266.915 84.2477 266.783ZM95.7772 280.937C95.7772 280.937 96.7576 290.665 84.7241 294.295C84.3532 294.402 84.009 294.507 83.6381 294.614C82.9753 294.799 82.3391 295.011 81.7295 295.197C79.0526 296.019 76.7731 296.734 74.8379 297.476C73.5389 297.953 72.373 298.457 71.3393 298.961C68.7679 300.207 66.9126 301.611 65.4548 303.572C62.0893 308.052 64.8984 313.909 64.8984 313.909C62.9898 311.1 62.831 308.396 63.0697 306.329C63.5471 302.512 67.0191 299.861 71.3127 297.847C72.4263 297.318 73.6187 296.84 74.8112 296.389C77.1706 295.514 79.5822 294.746 81.7561 294.03C82.419 293.818 83.0552 293.606 83.6647 293.394C85.1226 292.891 86.4206 292.413 87.4809 291.936C94.3726 288.649 95.7772 280.937 95.7772 280.937ZM83.0552 320.51C88.9121 318.574 94.3193 315.367 95.7505 308.237C95.7505 308.237 95.7505 315.049 90.2112 318.654C87.693 320.298 85.3869 321.357 83.0286 322.153C82.3924 322.365 81.7561 322.577 81.0933 322.762C79.3968 323.239 77.6214 323.663 75.6595 324.087C75.5007 324.114 75.3419 324.167 75.1565 324.194C74.0429 324.432 73.0092 324.67 72.082 324.935C68.1061 325.996 65.6412 327.268 65.2959 330.422C65.2959 330.422 64.3421 326.844 68.901 324.644C69.8282 324.194 70.8886 323.823 72.0554 323.478C73.168 323.16 74.3615 322.841 75.6329 322.524C77.4093 322.1 79.2913 321.649 81.1732 321.093C81.7828 320.907 82.419 320.722 83.0552 320.51ZM85.016 232.22C100.018 228.589 111.309 226.495 113.669 212.898C113.669 212.898 114.729 225.726 98.4541 230.709C94.6113 231.902 89.7604 233.174 84.9628 234.393C84.3533 234.552 83.7437 234.712 83.1341 234.871C81.5708 235.268 80.033 235.666 78.5485 236.037C76.6666 236.514 74.8379 236.965 73.1157 237.442C71.9222 237.76 70.7564 238.104 69.6428 238.449C61.1611 241.126 55.4098 244.598 56.3902 252.046C56.3902 252.046 50.8775 243.432 69.5905 236.646C69.8815 236.541 70.1734 236.434 70.4644 236.329C71.3393 236.037 72.1876 235.746 73.0625 235.48C76.5611 234.367 79.9541 233.466 83.214 232.671C83.7969 232.511 84.4065 232.353 85.016 232.22Z" fill="#E6E8EB"/>
</g>
</svg>
