<svg width="115" height="126" viewBox="0 0 115 126" fill="none" xmlns="http://www.w3.org/2000/svg">
<g clip-path="url(#clip0)">
<path d="M85.5698 76.0277C84.8638 76.0277 84.2968 76.5944 84.2968 77.3V96.9725C84.2968 97.6781 84.8638 98.2448 85.5698 98.2448H97.7543C98.4603 98.2448 99.0273 97.6781 99.0273 96.9725C99.0273 96.2668 98.4603 95.7002 97.7543 95.7002H86.8428V77.3C86.8428 76.5944 86.2758 76.0277 85.5698 76.0277Z" fill="white"/>
<path d="M1.27301 114.015H62.0672C61.4682 113.192 60.9226 112.347 60.4091 111.47H2.54602V16.9141H87.9553V68.0304C88.8111 68.1053 89.6669 68.2122 90.5013 68.3512V1.2723C90.5013 0.566653 89.9343 0 89.2283 0H1.27301C0.56697 0 0 0.566653 0 1.2723V112.743C0 113.448 0.56697 114.015 1.27301 114.015Z" fill="white"/>
<circle cx="85.5" cy="97.2" r="27.9" fill="#02BFCB"/>
<path d="M86.843 77.2999V95.6894H97.7546C98.4606 95.6894 99.0276 96.256 99.0276 96.9617C99.0276 97.6673 98.4606 98.234 97.7546 98.234H85.57C84.864 98.234 84.297 97.6673 84.297 96.9617V77.2999C84.297 76.5943 84.864 76.0276 85.57 76.0276C86.2761 76.0276 86.843 76.5943 86.843 77.2999ZM62.0675 114.015C67.3521 121.274 75.9208 126 85.57 126C101.595 126 114.625 112.978 114.625 96.9617C114.625 82.635 104.184 70.7032 90.5123 68.3511C89.6779 68.2014 88.8221 68.0945 87.9663 68.0303C87.1747 67.9662 86.383 67.9234 85.57 67.9234C79.5687 67.9234 73.9739 69.7517 69.3418 72.8843C68.7428 73.2906 68.1758 73.7182 67.6088 74.1566C67.0846 74.5629 66.5819 74.9905 66.0898 75.4289C61.1796 79.8766 57.7885 85.9708 56.815 92.824C56.7508 93.241 56.6973 93.6687 56.6545 94.0963C56.6117 94.5133 56.5796 94.941 56.5582 95.3686C56.5261 95.8925 56.5154 96.4164 56.5154 96.951C56.5154 102.233 57.9382 107.183 60.4094 111.449C60.9228 112.347 61.4791 113.202 62.0675 114.015Z" fill="white"/>
<path d="M15.6613 33.7105L15.2762 33.2829C14.8055 32.759 14.0032 32.7055 13.479 33.176C12.9548 33.6464 12.9013 34.4483 13.372 34.9722L17.9078 40.072C18.1324 40.3286 18.4533 40.4783 18.7957 40.4997C18.817 40.4997 18.8384 40.4997 18.8598 40.4997C19.1808 40.4997 19.491 40.3821 19.7263 40.1576L30.5095 30.2358C31.023 29.7547 31.0657 28.9528 30.5844 28.4396C30.103 27.9264 29.3006 27.8836 28.7872 28.3648L26.7974 30.2037L18.9561 37.4205L15.6613 33.7105Z" fill="white"/>
<path d="M40.0087 34.2773C40.0087 34.9829 40.5757 35.5496 41.2817 35.5496H76.1878C76.8939 35.5496 77.4608 34.9829 77.4608 34.2773C77.4608 33.5717 76.8939 33.005 76.1878 33.005H41.2817C40.5757 33.005 40.0087 33.5717 40.0087 34.2773Z" fill="white"/>
<path d="M13.3721 54.9226L17.9079 60.0225C18.1325 60.2791 18.4534 60.4288 18.7958 60.4502C18.8172 60.4502 18.8385 60.4502 18.8599 60.4502C19.1809 60.4502 19.4911 60.3326 19.7264 60.1081L30.5096 50.1863C31.0231 49.7052 31.0658 48.9033 30.5845 48.3901C30.1031 47.8769 29.3008 47.8341 28.7873 48.3153L26.7868 50.1542L18.9562 57.3603L15.6614 53.6504L15.2763 53.2227C14.8056 52.6988 14.0033 52.6453 13.4791 53.1158C12.9549 53.5969 12.9121 54.3988 13.3721 54.9226Z" fill="white"/>
<path d="M77.4608 54.2171C77.4608 53.5114 76.8939 52.9448 76.1878 52.9448H41.2817C40.5757 52.9448 40.0087 53.5114 40.0087 54.2171C40.0087 54.9227 40.5757 55.4894 41.2817 55.4894H76.1878C76.8939 55.4894 77.4608 54.9227 77.4608 54.2171Z" fill="white"/>
<path d="M13.3719 74.873L17.9077 79.9729C18.1323 80.2295 18.4533 80.3792 18.7956 80.4005C18.817 80.4005 18.8384 80.4005 18.8598 80.4005C19.1807 80.4005 19.4909 80.2829 19.7263 80.0584L30.5094 70.1367C31.0229 69.6555 31.0657 68.8537 30.5843 68.3405C30.1029 67.8273 29.3006 67.7845 28.7871 68.2656L26.7974 70.1046L18.9668 77.3107L15.6719 73.6007L15.2868 73.1731C14.8161 72.6492 14.0138 72.5957 13.4896 73.0661C12.9547 73.5366 12.9119 74.3491 13.3719 74.873Z" fill="white"/>
<path d="M69.3414 72.8951H41.2817C40.5757 72.8951 40.0087 73.4617 40.0087 74.1674C40.0087 74.873 40.5757 75.4397 41.2817 75.4397H66.0893C66.5814 75.0013 67.0842 74.5737 67.6084 74.1674C68.1754 73.7183 68.7423 73.2907 69.3414 72.8951Z" fill="white"/>
<path d="M13.3721 94.8129L17.9079 99.9128C18.1325 100.169 18.4534 100.319 18.7958 100.34C18.8172 100.34 18.8385 100.34 18.8599 100.34C19.1809 100.34 19.4911 100.223 19.7264 99.9983L30.5096 90.0765C31.0231 89.5954 31.0658 88.7936 30.5845 88.2804C30.1031 87.7672 29.3008 87.7244 28.7873 88.2055L26.7868 90.0445L18.9562 97.2506L15.6614 93.5513L15.2763 93.1236C14.8056 92.5997 14.0033 92.5463 13.4791 93.0167C12.9549 93.4871 12.9121 94.289 13.3721 94.8129Z" fill="white"/>
<path d="M56.5578 95.3902C56.5792 94.9625 56.6113 94.5348 56.6541 94.1179C56.6969 93.6902 56.7504 93.2626 56.8145 92.8456H41.2817C40.5757 92.8456 40.0087 93.4122 40.0087 94.1179C40.0087 94.8235 40.5757 95.3902 41.2817 95.3902H56.5578Z" fill="white"/>
</g>
<defs>
<clipPath id="clip0">
<rect width="114.625" height="126" fill="white"/>
</clipPath>
</defs>
</svg>
