<svg width="22" height="22" viewBox="0 0 22 22" fill="none" xmlns="http://www.w3.org/2000/svg">
<path d="M21.5355 20.266L16.3427 15.0732C17.6299 13.5038 18.4057 11.4937 18.4057 9.30287C18.4057 4.27756 14.3282 0.200012 9.30285 0.200012C4.27314 0.200012 0.199997 4.27756 0.199997 9.30287C0.199997 14.3282 4.27314 18.4057 9.30285 18.4057C11.4937 18.4057 13.4994 17.6343 15.0687 16.3471L20.2615 21.5355C20.6142 21.8882 21.1829 21.8882 21.5355 21.5355C21.8882 21.1873 21.8882 20.6142 21.5355 20.266ZM9.30285 16.594C5.2782 16.594 2.00734 13.3231 2.00734 9.30287C2.00734 5.28262 5.2782 2.00736 9.30285 2.00736C13.3231 2.00736 16.5984 5.28262 16.5984 9.30287C16.5984 13.3231 13.3231 16.594 9.30285 16.594Z" fill="white"/>
</svg>
