<svg width="26" height="26" viewBox="0 0 26 26" fill="none" xmlns="http://www.w3.org/2000/svg">
<path d="M25.8348 12.4943C25.6025 12.1766 20.0682 4.71429 12.9999 4.71429C5.93157 4.71429 0.397009 12.1766 0.164989 12.494C-0.0549962 12.7954 -0.0549962 13.2043 0.164989 13.5057C0.397009 13.8235 5.93157 21.2857 12.9999 21.2857C20.0682 21.2857 25.6025 13.8234 25.8348 13.506C26.055 13.2046 26.055 12.7954 25.8348 12.4943ZM12.9999 19.5715C7.79331 19.5715 3.28388 14.6186 1.94899 12.9994C3.28215 11.3788 7.78214 6.42857 12.9999 6.42857C18.2062 6.42857 22.7153 11.3806 24.0508 13.0006C22.7176 14.6211 18.2176 19.5715 12.9999 19.5715Z" fill="white"/>
<path d="M13 7.85712C10.1643 7.85712 7.85711 10.1643 7.85711 13C7.85711 15.8357 10.1643 18.1429 13 18.1429C15.8357 18.1429 18.1429 15.8357 18.1429 13C18.1429 10.1643 15.8357 7.85712 13 7.85712ZM13 16.4286C11.1094 16.4286 9.57143 14.8905 9.57143 13C9.57143 11.1095 11.1094 9.57144 13 9.57144C14.8905 9.57144 16.4285 11.1095 16.4285 13C16.4285 14.8905 14.8906 16.4286 13 16.4286Z" fill="white"/>
</svg>
