<?xml version="1.0" encoding="UTF-8"?>
<!DOCTYPE svg PUBLIC "-//W3C//DTD SVG 1.1//EN" "http://www.w3.org/Graphics/SVG/1.1/DTD/svg11.dtd">
<!-- Creator: CorelDRAW 2020 (64-Bit) -->
<svg xmlns="http://www.w3.org/2000/svg" xml:space="preserve" width="2.7092mm" height="2.7092mm" version="1.1" style="shape-rendering:geometricPrecision; text-rendering:geometricPrecision; image-rendering:optimizeQuality; fill-rule:evenodd; clip-rule:evenodd"
viewBox="0 0 270.92 270.92"
 xmlns:xlink="http://www.w3.org/1999/xlink"
 xmlns:xodm="http://www.corel.com/coreldraw/odm/2003">
 <defs>
  <style type="text/css">
   <![CDATA[
    .fil0 {fill:#FEFEFE}
    .fil1 {fill:#2787F5;fill-rule:nonzero}
   ]]>
  </style>
 </defs>
 <g id="Слой_x0020_1">
  <metadata id="CorelCorpID_0Corel-Layer"/>
  <rect class="fil0" x="0" y="-0.01" width="270.93" height="270.93" rx="20.69" ry="22.59"/>
  <path class="fil1" d="M188.51 142.3c-2.59,-3.26 -1.85,-4.71 0,-7.62 0.04,-0.04 21.51,-29.48 23.72,-39.47l0.02 0c1.09,-3.64 0,-6.31 -5.32,-6.31l-17.59 0c-4.48,0 -6.54,2.29 -7.65,4.86 0,0 -8.96,21.27 -21.62,35.06 -4.09,3.99 -5.98,5.26 -8.22,5.26 -1.09,0 -2.8,-1.27 -2.8,-4.91l0 -33.96c0,-4.37 -1.26,-6.31 -4.96,-6.31l-27.66 0c-2.81,0 -4.48,2.03 -4.48,3.93 0,4.14 6.34,5.09 6.99,16.73l0 25.25c0,5.54 -1.01,6.56 -3.25,6.56 -5.98,0 -20.5,-21.36 -29.09,-45.81 -1.74,-4.74 -3.44,-6.66 -7.95,-6.66l-17.59 0c-5.03,0 -6.04,2.3 -6.04,4.87 0,4.53 5.98,27.09 27.81,56.89 14.54,20.34 35.03,31.36 53.66,31.36 11.2,0 12.57,-2.44 12.57,-6.65 0,-19.44 -1.01,-21.28 4.6,-21.28 2.6,0 7.08,1.28 17.54,11.09 11.94,11.64 13.91,16.84 20.6,16.84l17.59 0c5.01,0 7.55,-2.44 6.09,-7.27 -3.34,-10.16 -25.95,-31.05 -26.97,-32.45z"/>
 </g>
</svg>
